<?xml version="1.0" encoding="UTF-8"?><svg id="Layer_2" xmlns="http://www.w3.org/2000/svg" xmlns:xlink="http://www.w3.org/1999/xlink" viewBox="0 0 824 824"><defs><pattern id="New_Pattern" x="0" y="0" width="300" height="300" patternTransform="translate(-2973 986)" patternUnits="userSpaceOnUse" viewBox="0 0 300 300"><rect x="0" width="300" height="300" style="fill:none;"/><rect x="0" width="300" height="300" style="fill:#0fe0df;"/><polygon points="203.45 39.19 200.44 43.54 174.39 25.48 177.4 21.13 203.45 39.19" style="fill:#7686d6;"/><polygon points="301.44 188.6 297.49 185.08 318.56 161.4 322.51 164.92 301.44 188.6" style="fill:#7686d6;"/><polygon points="79.5 192 76 186.36 109.77 165.42 113.27 171.06 79.5 192" style="fill:#fff;"/><polygon points="138.92 62.32 142.29 58.24 166.73 78.42 163.36 82.5 138.92 62.32" style="fill:#fff;"/><polygon points="168 185.98 169.84 179.28 209.94 190.31 208.1 197 168 185.98" style="fill:#008da1;"/><polygon points="257.4 48.21 261.62 51.4 242.5 76.68 238.28 73.49 257.4 48.21" style="fill:#008da1;"/><polygon points="39.6 252.77 43.81 249.57 63 274.8 58.79 278 39.6 252.77" style="fill:#008da1;"/><polygon points="189.44 116.41 194.42 114.62 205.14 144.45 200.16 146.24 189.44 116.41" style="fill:#00bd9a;"/><polygon points="262.38 285.9 259.61 281.39 286.64 264.83 289.41 269.34 262.38 285.9" style="fill:#00cc9f;"/><polygon points="288.91 109.14 292.42 114.96 257.51 136 254 130.17 288.91 109.14" style="fill:#d968c6;"/><polygon points="182.98 271.59 181.54 276.69 151.03 268.09 152.47 263 182.98 271.59" style="fill:#d968c6;"/><polygon points="90.57 49.13 86.17 53.55 59.72 27.17 64.13 22.76 90.57 49.13" style="fill:#d968c6;"/><polygon points="260.23 216.93 263 221.44 235.97 238 233.21 233.49 260.23 216.93" style="fill:#fff;"/><polygon points="72.49 100.8 76.34 94.57 113.61 117.63 109.76 123.85 72.49 100.8" style="fill:#00bd9a;"/><polygon points="127.77 215.91 130.83 220.23 104.95 238.53 101.89 234.21 127.77 215.91"/><polygon points="323 57.9 319.65 62 295.11 41.95 298.46 37.85 323 57.9"/><polygon points="1.44 188.6 -2.51 185.08 18.56 161.4 22.51 164.92 1.44 188.6" style="fill:#7686d6;"/><polygon points="23 57.9 19.65 62 -4.89 41.95 -1.54 37.85 23 57.9"/></pattern></defs><g id="Layer_1-2"><rect width="824" height="824" style="fill:url(#New_Pattern);"/></g></svg>