<?xml version="1.0" encoding="utf-8"?>
<!-- Generator: Adobe Illustrator 23.0.5, SVG Export Plug-In . SVG Version: 6.00 Build 0)  -->
<svg version="1.1" xmlns="http://www.w3.org/2000/svg" xmlns:xlink="http://www.w3.org/1999/xlink" x="0px" y="0px"
	 viewBox="0 0 2000 2000" style="enable-background:new 0 0 2000 2000;" xml:space="preserve">
<style type="text/css">
	.st0{fill-rule:evenodd;clip-rule:evenodd;fill:#FAF2E8;}
	.st1{fill-rule:evenodd;clip-rule:evenodd;fill:#211614;}
	.st2{fill-rule:evenodd;clip-rule:evenodd;fill:#64C0D5;}
	.st3{fill-rule:evenodd;clip-rule:evenodd;fill:#FAC713;}
	.st4{fill-rule:evenodd;clip-rule:evenodd;fill:#D17CFE;}
	.st5{fill-rule:evenodd;clip-rule:evenodd;fill:#A9E0DD;}
	.st6{fill-rule:evenodd;clip-rule:evenodd;fill:#F458B9;}
	.st7{fill-rule:evenodd;clip-rule:evenodd;fill:#36C2EB;}
	.st8{fill-rule:evenodd;clip-rule:evenodd;fill:#373435;}
	.st9{fill-rule:evenodd;clip-rule:evenodd;fill:#F6249F;}
	.st10{fill-rule:evenodd;clip-rule:evenodd;fill:#F6BAD3;}
</style>
<g id="Background">
	<rect x="0" class="st0" width="2000" height="2000"/>
</g>
<g id="Pattern">
	<path class="st1" d="M59,69.7c5.9,0,10.7-4.8,10.7-10.7c0-5.9-4.8-10.7-10.7-10.7c-5.9,0-10.7,4.8-10.7,10.7
		C48.2,64.9,53.1,69.7,59,69.7L59,69.7z M1941,1951.8c5.9,0,10.7-4.8,10.7-10.7c0-5.9-4.8-10.7-10.7-10.7c-5.9,0-10.7,4.8-10.7,10.7
		C1930.3,1946.9,1935.1,1951.8,1941,1951.8L1941,1951.8z M1815.6,1951.8c5.9,0,10.7-4.8,10.7-10.7c0-5.9-4.8-10.7-10.7-10.7
		c-5.9,0-10.7,4.8-10.7,10.7C1804.8,1946.9,1809.6,1951.8,1815.6,1951.8L1815.6,1951.8z M1690.1,1951.8c5.9,0,10.7-4.8,10.7-10.7
		c0-5.9-4.8-10.7-10.7-10.7c-5.9,0-10.7,4.8-10.7,10.7C1679.3,1946.9,1684.1,1951.8,1690.1,1951.8L1690.1,1951.8z M1564.6,1951.8
		c5.9,0,10.7-4.8,10.7-10.7c0-5.9-4.8-10.7-10.7-10.7c-5.9,0-10.7,4.8-10.7,10.7C1553.9,1946.9,1558.7,1951.8,1564.6,1951.8
		L1564.6,1951.8z M1439.1,1951.8c5.9,0,10.7-4.8,10.7-10.7c0-5.9-4.8-10.7-10.7-10.7c-5.9,0-10.7,4.8-10.7,10.7
		C1428.4,1946.9,1433.2,1951.8,1439.1,1951.8L1439.1,1951.8z M1313.7,1951.8c5.9,0,10.7-4.8,10.7-10.7c0-5.9-4.8-10.7-10.7-10.7
		c-5.9,0-10.7,4.8-10.7,10.7C1302.9,1946.9,1307.7,1951.8,1313.7,1951.8L1313.7,1951.8z M1188.2,1951.8c5.9,0,10.7-4.8,10.7-10.7
		c0-5.9-4.8-10.7-10.7-10.7c-5.9,0-10.7,4.8-10.7,10.7C1177.5,1946.9,1182.3,1951.8,1188.2,1951.8L1188.2,1951.8z M1062.7,1951.8
		c5.9,0,10.7-4.8,10.7-10.7c0-5.9-4.8-10.7-10.7-10.7c-5.9,0-10.7,4.8-10.7,10.7C1052,1946.9,1056.8,1951.8,1062.7,1951.8
		L1062.7,1951.8z M937.3,1951.8c5.9,0,10.7-4.8,10.7-10.7c0-5.9-4.8-10.7-10.7-10.7c-5.9,0-10.7,4.8-10.7,10.7
		C926.5,1946.9,931.3,1951.8,937.3,1951.8L937.3,1951.8z M811.8,1951.8c5.9,0,10.7-4.8,10.7-10.7c0-5.9-4.8-10.7-10.7-10.7
		c-5.9,0-10.7,4.8-10.7,10.7C801.1,1946.9,805.9,1951.8,811.8,1951.8L811.8,1951.8z M686.3,1951.8c5.9,0,10.7-4.8,10.7-10.7
		c0-5.9-4.8-10.7-10.7-10.7c-5.9,0-10.7,4.8-10.7,10.7C675.6,1946.9,680.4,1951.8,686.3,1951.8L686.3,1951.8z M560.9,1951.8
		c5.9,0,10.7-4.8,10.7-10.7c0-5.9-4.8-10.7-10.7-10.7s-10.7,4.8-10.7,10.7C550.1,1946.9,554.9,1951.8,560.9,1951.8L560.9,1951.8z
		 M435.4,1951.8c5.9,0,10.7-4.8,10.7-10.7c0-5.9-4.8-10.7-10.7-10.7c-5.9,0-10.7,4.8-10.7,10.7
		C424.7,1946.9,429.5,1951.8,435.4,1951.8L435.4,1951.8z M309.9,1951.8c5.9,0,10.7-4.8,10.7-10.7c0-5.9-4.8-10.7-10.7-10.7
		c-5.9,0-10.7,4.8-10.7,10.7C299.2,1946.9,304,1951.8,309.9,1951.8L309.9,1951.8z M184.5,1951.8c5.9,0,10.7-4.8,10.7-10.7
		c0-5.9-4.8-10.7-10.7-10.7c-5.9,0-10.7,4.8-10.7,10.7C173.7,1946.9,178.5,1951.8,184.5,1951.8L184.5,1951.8z M59,1951.8
		c5.9,0,10.7-4.8,10.7-10.7c0-5.9-4.8-10.7-10.7-10.7c-5.9,0-10.7,4.8-10.7,10.7C48.2,1946.9,53.1,1951.8,59,1951.8L59,1951.8z
		 M1941,1826.3c5.9,0,10.7-4.8,10.7-10.7c0-5.9-4.8-10.7-10.7-10.7c-5.9,0-10.7,4.8-10.7,10.7
		C1930.3,1821.5,1935.1,1826.3,1941,1826.3L1941,1826.3z M1815.6,1826.3c5.9,0,10.7-4.8,10.7-10.7c0-5.9-4.8-10.7-10.7-10.7
		c-5.9,0-10.7,4.8-10.7,10.7C1804.8,1821.5,1809.6,1826.3,1815.6,1826.3L1815.6,1826.3z M1690.1,1826.3c5.9,0,10.7-4.8,10.7-10.7
		c0-5.9-4.8-10.7-10.7-10.7c-5.9,0-10.7,4.8-10.7,10.7C1679.3,1821.5,1684.1,1826.3,1690.1,1826.3L1690.1,1826.3z M1564.6,1826.3
		c5.9,0,10.7-4.8,10.7-10.7c0-5.9-4.8-10.7-10.7-10.7c-5.9,0-10.7,4.8-10.7,10.7C1553.9,1821.5,1558.7,1826.3,1564.6,1826.3
		L1564.6,1826.3z M1439.1,1826.3c5.9,0,10.7-4.8,10.7-10.7c0-5.9-4.8-10.7-10.7-10.7c-5.9,0-10.7,4.8-10.7,10.7
		C1428.4,1821.5,1433.2,1826.3,1439.1,1826.3L1439.1,1826.3z M1313.7,1826.3c5.9,0,10.7-4.8,10.7-10.7c0-5.9-4.8-10.7-10.7-10.7
		c-5.9,0-10.7,4.8-10.7,10.7C1302.9,1821.5,1307.7,1826.3,1313.7,1826.3L1313.7,1826.3z M1188.2,1826.3c5.9,0,10.7-4.8,10.7-10.7
		c0-5.9-4.8-10.7-10.7-10.7c-5.9,0-10.7,4.8-10.7,10.7C1177.5,1821.5,1182.3,1826.3,1188.2,1826.3L1188.2,1826.3z M1062.7,1826.3
		c5.9,0,10.7-4.8,10.7-10.7c0-5.9-4.8-10.7-10.7-10.7c-5.9,0-10.7,4.8-10.7,10.7C1052,1821.5,1056.8,1826.3,1062.7,1826.3
		L1062.7,1826.3z M937.3,1826.3c5.9,0,10.7-4.8,10.7-10.7c0-5.9-4.8-10.7-10.7-10.7c-5.9,0-10.7,4.8-10.7,10.7
		C926.5,1821.5,931.3,1826.3,937.3,1826.3L937.3,1826.3z M811.8,1826.3c5.9,0,10.7-4.8,10.7-10.7c0-5.9-4.8-10.7-10.7-10.7
		c-5.9,0-10.7,4.8-10.7,10.7C801.1,1821.5,805.9,1826.3,811.8,1826.3L811.8,1826.3z M686.3,1826.3c5.9,0,10.7-4.8,10.7-10.7
		c0-5.9-4.8-10.7-10.7-10.7c-5.9,0-10.7,4.8-10.7,10.7C675.6,1821.5,680.4,1826.3,686.3,1826.3L686.3,1826.3z M560.9,1826.3
		c5.9,0,10.7-4.8,10.7-10.7c0-5.9-4.8-10.7-10.7-10.7s-10.7,4.8-10.7,10.7C550.1,1821.5,554.9,1826.3,560.9,1826.3L560.9,1826.3z
		 M435.4,1826.3c5.9,0,10.7-4.8,10.7-10.7c0-5.9-4.8-10.7-10.7-10.7c-5.9,0-10.7,4.8-10.7,10.7
		C424.7,1821.5,429.5,1826.3,435.4,1826.3L435.4,1826.3z M309.9,1826.3c5.9,0,10.7-4.8,10.7-10.7c0-5.9-4.8-10.7-10.7-10.7
		c-5.9,0-10.7,4.8-10.7,10.7C299.2,1821.5,304,1826.3,309.9,1826.3L309.9,1826.3z M184.5,1826.3c5.9,0,10.7-4.8,10.7-10.7
		c0-5.9-4.8-10.7-10.7-10.7c-5.9,0-10.7,4.8-10.7,10.7C173.7,1821.5,178.5,1826.3,184.5,1826.3L184.5,1826.3z M59,1826.3
		c5.9,0,10.7-4.8,10.7-10.7c0-5.9-4.8-10.7-10.7-10.7c-5.9,0-10.7,4.8-10.7,10.7C48.2,1821.5,53.1,1826.3,59,1826.3L59,1826.3z
		 M1941,1700.8c5.9,0,10.7-4.8,10.7-10.7c0-5.9-4.8-10.7-10.7-10.7c-5.9,0-10.7,4.8-10.7,10.7
		C1930.3,1696,1935.1,1700.8,1941,1700.8L1941,1700.8z M1815.6,1700.8c5.9,0,10.7-4.8,10.7-10.7c0-5.9-4.8-10.7-10.7-10.7
		c-5.9,0-10.7,4.8-10.7,10.7C1804.8,1696,1809.6,1700.8,1815.6,1700.8L1815.6,1700.8z M1690.1,1700.8c5.9,0,10.7-4.8,10.7-10.7
		c0-5.9-4.8-10.7-10.7-10.7c-5.9,0-10.7,4.8-10.7,10.7C1679.3,1696,1684.1,1700.8,1690.1,1700.8L1690.1,1700.8z M1564.6,1700.8
		c5.9,0,10.7-4.8,10.7-10.7c0-5.9-4.8-10.7-10.7-10.7c-5.9,0-10.7,4.8-10.7,10.7C1553.9,1696,1558.7,1700.8,1564.6,1700.8
		L1564.6,1700.8z M1439.1,1700.8c5.9,0,10.7-4.8,10.7-10.7c0-5.9-4.8-10.7-10.7-10.7c-5.9,0-10.7,4.8-10.7,10.7
		C1428.4,1696,1433.2,1700.8,1439.1,1700.8L1439.1,1700.8z M1313.7,1700.8c5.9,0,10.7-4.8,10.7-10.7c0-5.9-4.8-10.7-10.7-10.7
		c-5.9,0-10.7,4.8-10.7,10.7C1302.9,1696,1307.7,1700.8,1313.7,1700.8L1313.7,1700.8z M1188.2,1700.8c5.9,0,10.7-4.8,10.7-10.7
		c0-5.9-4.8-10.7-10.7-10.7c-5.9,0-10.7,4.8-10.7,10.7C1177.5,1696,1182.3,1700.8,1188.2,1700.8L1188.2,1700.8z M1062.7,1700.8
		c5.9,0,10.7-4.8,10.7-10.7c0-5.9-4.8-10.7-10.7-10.7c-5.9,0-10.7,4.8-10.7,10.7C1052,1696,1056.8,1700.8,1062.7,1700.8
		L1062.7,1700.8z M937.3,1700.8c5.9,0,10.7-4.8,10.7-10.7c0-5.9-4.8-10.7-10.7-10.7c-5.9,0-10.7,4.8-10.7,10.7
		C926.5,1696,931.3,1700.8,937.3,1700.8L937.3,1700.8z M811.8,1700.8c5.9,0,10.7-4.8,10.7-10.7c0-5.9-4.8-10.7-10.7-10.7
		c-5.9,0-10.7,4.8-10.7,10.7C801.1,1696,805.9,1700.8,811.8,1700.8L811.8,1700.8z M686.3,1700.8c5.9,0,10.7-4.8,10.7-10.7
		c0-5.9-4.8-10.7-10.7-10.7c-5.9,0-10.7,4.8-10.7,10.7C675.6,1696,680.4,1700.8,686.3,1700.8L686.3,1700.8z M560.9,1700.8
		c5.9,0,10.7-4.8,10.7-10.7c0-5.9-4.8-10.7-10.7-10.7s-10.7,4.8-10.7,10.7C550.1,1696,554.9,1700.8,560.9,1700.8L560.9,1700.8z
		 M435.4,1700.8c5.9,0,10.7-4.8,10.7-10.7c0-5.9-4.8-10.7-10.7-10.7c-5.9,0-10.7,4.8-10.7,10.7
		C424.7,1696,429.5,1700.8,435.4,1700.8L435.4,1700.8z M309.9,1700.8c5.9,0,10.7-4.8,10.7-10.7c0-5.9-4.8-10.7-10.7-10.7
		c-5.9,0-10.7,4.8-10.7,10.7C299.2,1696,304,1700.8,309.9,1700.8L309.9,1700.8z M184.5,1700.8c5.9,0,10.7-4.8,10.7-10.7
		c0-5.9-4.8-10.7-10.7-10.7c-5.9,0-10.7,4.8-10.7,10.7C173.7,1696,178.5,1700.8,184.5,1700.8L184.5,1700.8z M59,1700.8
		c5.9,0,10.7-4.8,10.7-10.7c0-5.9-4.8-10.7-10.7-10.7c-5.9,0-10.7,4.8-10.7,10.7C48.2,1696,53.1,1700.8,59,1700.8L59,1700.8z
		 M1941,1575.4c5.9,0,10.7-4.8,10.7-10.7c0-5.9-4.8-10.7-10.7-10.7c-5.9,0-10.7,4.8-10.7,10.7
		C1930.3,1570.5,1935.1,1575.4,1941,1575.4L1941,1575.4z M1815.6,1575.4c5.9,0,10.7-4.8,10.7-10.7c0-5.9-4.8-10.7-10.7-10.7
		c-5.9,0-10.7,4.8-10.7,10.7C1804.8,1570.5,1809.6,1575.4,1815.6,1575.4L1815.6,1575.4z M1690.1,1575.4c5.9,0,10.7-4.8,10.7-10.7
		c0-5.9-4.8-10.7-10.7-10.7c-5.9,0-10.7,4.8-10.7,10.7C1679.3,1570.5,1684.1,1575.4,1690.1,1575.4L1690.1,1575.4z M1564.6,1575.4
		c5.9,0,10.7-4.8,10.7-10.7c0-5.9-4.8-10.7-10.7-10.7c-5.9,0-10.7,4.8-10.7,10.7C1553.9,1570.5,1558.7,1575.4,1564.6,1575.4
		L1564.6,1575.4z M1439.1,1575.4c5.9,0,10.7-4.8,10.7-10.7c0-5.9-4.8-10.7-10.7-10.7c-5.9,0-10.7,4.8-10.7,10.7
		C1428.4,1570.5,1433.2,1575.4,1439.1,1575.4L1439.1,1575.4z M1313.7,1575.4c5.9,0,10.7-4.8,10.7-10.7c0-5.9-4.8-10.7-10.7-10.7
		c-5.9,0-10.7,4.8-10.7,10.7C1302.9,1570.5,1307.7,1575.4,1313.7,1575.4L1313.7,1575.4z M1188.2,1575.4c5.9,0,10.7-4.8,10.7-10.7
		c0-5.9-4.8-10.7-10.7-10.7c-5.9,0-10.7,4.8-10.7,10.7C1177.5,1570.5,1182.3,1575.4,1188.2,1575.4L1188.2,1575.4z M1062.7,1575.4
		c5.9,0,10.7-4.8,10.7-10.7c0-5.9-4.8-10.7-10.7-10.7c-5.9,0-10.7,4.8-10.7,10.7C1052,1570.5,1056.8,1575.4,1062.7,1575.4
		L1062.7,1575.4z M937.3,1575.4c5.9,0,10.7-4.8,10.7-10.7c0-5.9-4.8-10.7-10.7-10.7c-5.9,0-10.7,4.8-10.7,10.7
		C926.5,1570.5,931.3,1575.4,937.3,1575.4L937.3,1575.4z M811.8,1575.4c5.9,0,10.7-4.8,10.7-10.7c0-5.9-4.8-10.7-10.7-10.7
		c-5.9,0-10.7,4.8-10.7,10.7C801.1,1570.5,805.9,1575.4,811.8,1575.4L811.8,1575.4z M686.3,1575.4c5.9,0,10.7-4.8,10.7-10.7
		c0-5.9-4.8-10.7-10.7-10.7c-5.9,0-10.7,4.8-10.7,10.7C675.6,1570.5,680.4,1575.4,686.3,1575.4L686.3,1575.4z M560.9,1575.4
		c5.9,0,10.7-4.8,10.7-10.7c0-5.9-4.8-10.7-10.7-10.7s-10.7,4.8-10.7,10.7C550.1,1570.5,554.9,1575.4,560.9,1575.4L560.9,1575.4z
		 M435.4,1575.4c5.9,0,10.7-4.8,10.7-10.7c0-5.9-4.8-10.7-10.7-10.7c-5.9,0-10.7,4.8-10.7,10.7
		C424.7,1570.5,429.5,1575.4,435.4,1575.4L435.4,1575.4z M309.9,1575.4c5.9,0,10.7-4.8,10.7-10.7c0-5.9-4.8-10.7-10.7-10.7
		c-5.9,0-10.7,4.8-10.7,10.7C299.2,1570.5,304,1575.4,309.9,1575.4L309.9,1575.4z M184.5,1575.4c5.9,0,10.7-4.8,10.7-10.7
		c0-5.9-4.8-10.7-10.7-10.7c-5.9,0-10.7,4.8-10.7,10.7C173.7,1570.5,178.5,1575.4,184.5,1575.4L184.5,1575.4z M59,1575.4
		c5.9,0,10.7-4.8,10.7-10.7c0-5.9-4.8-10.7-10.7-10.7c-5.9,0-10.7,4.8-10.7,10.7C48.2,1570.5,53.1,1575.4,59,1575.4L59,1575.4z
		 M1941,1449.9c5.9,0,10.7-4.8,10.7-10.7c0-5.9-4.8-10.7-10.7-10.7c-5.9,0-10.7,4.8-10.7,10.7
		C1930.3,1445.1,1935.1,1449.9,1941,1449.9L1941,1449.9z M1815.6,1449.9c5.9,0,10.7-4.8,10.7-10.7c0-5.9-4.8-10.7-10.7-10.7
		c-5.9,0-10.7,4.8-10.7,10.7C1804.8,1445.1,1809.6,1449.9,1815.6,1449.9L1815.6,1449.9z M1690.1,1449.9c5.9,0,10.7-4.8,10.7-10.7
		c0-5.9-4.8-10.7-10.7-10.7c-5.9,0-10.7,4.8-10.7,10.7C1679.3,1445.1,1684.1,1449.9,1690.1,1449.9L1690.1,1449.9z M1564.6,1449.9
		c5.9,0,10.7-4.8,10.7-10.7c0-5.9-4.8-10.7-10.7-10.7c-5.9,0-10.7,4.8-10.7,10.7C1553.9,1445.1,1558.7,1449.9,1564.6,1449.9
		L1564.6,1449.9z M1439.1,1449.9c5.9,0,10.7-4.8,10.7-10.7c0-5.9-4.8-10.7-10.7-10.7c-5.9,0-10.7,4.8-10.7,10.7
		C1428.4,1445.1,1433.2,1449.9,1439.1,1449.9L1439.1,1449.9z M1313.7,1449.9c5.9,0,10.7-4.8,10.7-10.7c0-5.9-4.8-10.7-10.7-10.7
		c-5.9,0-10.7,4.8-10.7,10.7C1302.9,1445.1,1307.7,1449.9,1313.7,1449.9L1313.7,1449.9z M1188.2,1449.9c5.9,0,10.7-4.8,10.7-10.7
		c0-5.9-4.8-10.7-10.7-10.7c-5.9,0-10.7,4.8-10.7,10.7C1177.5,1445.1,1182.3,1449.9,1188.2,1449.9L1188.2,1449.9z M1062.7,1449.9
		c5.9,0,10.7-4.8,10.7-10.7c0-5.9-4.8-10.7-10.7-10.7c-5.9,0-10.7,4.8-10.7,10.7C1052,1445.1,1056.8,1449.9,1062.7,1449.9
		L1062.7,1449.9z M937.3,1449.9c5.9,0,10.7-4.8,10.7-10.7c0-5.9-4.8-10.7-10.7-10.7c-5.9,0-10.7,4.8-10.7,10.7
		C926.5,1445.1,931.3,1449.9,937.3,1449.9L937.3,1449.9z M811.8,1449.9c5.9,0,10.7-4.8,10.7-10.7c0-5.9-4.8-10.7-10.7-10.7
		c-5.9,0-10.7,4.8-10.7,10.7C801.1,1445.1,805.9,1449.9,811.8,1449.9L811.8,1449.9z M686.3,1449.9c5.9,0,10.7-4.8,10.7-10.7
		c0-5.9-4.8-10.7-10.7-10.7c-5.9,0-10.7,4.8-10.7,10.7C675.6,1445.1,680.4,1449.9,686.3,1449.9L686.3,1449.9z M560.9,1449.9
		c5.9,0,10.7-4.8,10.7-10.7c0-5.9-4.8-10.7-10.7-10.7s-10.7,4.8-10.7,10.7C550.1,1445.1,554.9,1449.9,560.9,1449.9L560.9,1449.9z
		 M435.4,1449.9c5.9,0,10.7-4.8,10.7-10.7c0-5.9-4.8-10.7-10.7-10.7c-5.9,0-10.7,4.8-10.7,10.7
		C424.7,1445.1,429.5,1449.9,435.4,1449.9L435.4,1449.9z M309.9,1449.9c5.9,0,10.7-4.8,10.7-10.7c0-5.9-4.8-10.7-10.7-10.7
		c-5.9,0-10.7,4.8-10.7,10.7C299.2,1445.1,304,1449.9,309.9,1449.9L309.9,1449.9z M184.5,1449.9c5.9,0,10.7-4.8,10.7-10.7
		c0-5.9-4.8-10.7-10.7-10.7c-5.9,0-10.7,4.8-10.7,10.7C173.7,1445.1,178.5,1449.9,184.5,1449.9L184.5,1449.9z M59,1449.9
		c5.9,0,10.7-4.8,10.7-10.7c0-5.9-4.8-10.7-10.7-10.7c-5.9,0-10.7,4.8-10.7,10.7C48.2,1445.1,53.1,1449.9,59,1449.9L59,1449.9z
		 M1941,1324.4c5.9,0,10.7-4.8,10.7-10.7c0-5.9-4.8-10.7-10.7-10.7c-5.9,0-10.7,4.8-10.7,10.7
		C1930.3,1319.6,1935.1,1324.4,1941,1324.4L1941,1324.4z M1815.6,1324.4c5.9,0,10.7-4.8,10.7-10.7c0-5.9-4.8-10.7-10.7-10.7
		c-5.9,0-10.7,4.8-10.7,10.7C1804.8,1319.6,1809.6,1324.4,1815.6,1324.4L1815.6,1324.4z M1690.1,1324.4c5.9,0,10.7-4.8,10.7-10.7
		c0-5.9-4.8-10.7-10.7-10.7c-5.9,0-10.7,4.8-10.7,10.7C1679.3,1319.6,1684.1,1324.4,1690.1,1324.4L1690.1,1324.4z M1564.6,1324.4
		c5.9,0,10.7-4.8,10.7-10.7c0-5.9-4.8-10.7-10.7-10.7c-5.9,0-10.7,4.8-10.7,10.7C1553.9,1319.6,1558.7,1324.4,1564.6,1324.4
		L1564.6,1324.4z M1439.1,1324.4c5.9,0,10.7-4.8,10.7-10.7c0-5.9-4.8-10.7-10.7-10.7c-5.9,0-10.7,4.8-10.7,10.7
		C1428.4,1319.6,1433.2,1324.4,1439.1,1324.4L1439.1,1324.4z M1313.7,1324.4c5.9,0,10.7-4.8,10.7-10.7c0-5.9-4.8-10.7-10.7-10.7
		c-5.9,0-10.7,4.8-10.7,10.7C1302.9,1319.6,1307.7,1324.4,1313.7,1324.4L1313.7,1324.4z M1188.2,1324.4c5.9,0,10.7-4.8,10.7-10.7
		c0-5.9-4.8-10.7-10.7-10.7c-5.9,0-10.7,4.8-10.7,10.7C1177.5,1319.6,1182.3,1324.4,1188.2,1324.4L1188.2,1324.4z M1062.7,1324.4
		c5.9,0,10.7-4.8,10.7-10.7c0-5.9-4.8-10.7-10.7-10.7c-5.9,0-10.7,4.8-10.7,10.7C1052,1319.6,1056.8,1324.4,1062.7,1324.4
		L1062.7,1324.4z M937.3,1324.4c5.9,0,10.7-4.8,10.7-10.7c0-5.9-4.8-10.7-10.7-10.7c-5.9,0-10.7,4.8-10.7,10.7
		C926.5,1319.6,931.3,1324.4,937.3,1324.4L937.3,1324.4z M811.8,1324.4c5.9,0,10.7-4.8,10.7-10.7c0-5.9-4.8-10.7-10.7-10.7
		c-5.9,0-10.7,4.8-10.7,10.7C801.1,1319.6,805.9,1324.4,811.8,1324.4L811.8,1324.4z M686.3,1324.4c5.9,0,10.7-4.8,10.7-10.7
		c0-5.9-4.8-10.7-10.7-10.7c-5.9,0-10.7,4.8-10.7,10.7C675.6,1319.6,680.4,1324.4,686.3,1324.4L686.3,1324.4z M560.9,1324.4
		c5.9,0,10.7-4.8,10.7-10.7c0-5.9-4.8-10.7-10.7-10.7s-10.7,4.8-10.7,10.7C550.1,1319.6,554.9,1324.4,560.9,1324.4L560.9,1324.4z
		 M435.4,1324.4c5.9,0,10.7-4.8,10.7-10.7c0-5.9-4.8-10.7-10.7-10.7c-5.9,0-10.7,4.8-10.7,10.7
		C424.7,1319.6,429.5,1324.4,435.4,1324.4L435.4,1324.4z M309.9,1324.4c5.9,0,10.7-4.8,10.7-10.7c0-5.9-4.8-10.7-10.7-10.7
		c-5.9,0-10.7,4.8-10.7,10.7C299.2,1319.6,304,1324.4,309.9,1324.4L309.9,1324.4z M184.5,1324.4c5.9,0,10.7-4.8,10.7-10.7
		c0-5.9-4.8-10.7-10.7-10.7c-5.9,0-10.7,4.8-10.7,10.7C173.7,1319.6,178.5,1324.4,184.5,1324.4L184.5,1324.4z M59,1324.4
		c5.9,0,10.7-4.8,10.7-10.7c0-5.9-4.8-10.7-10.7-10.7c-5.9,0-10.7,4.8-10.7,10.7C48.2,1319.6,53.1,1324.4,59,1324.4L59,1324.4z
		 M1941,1198.9c5.9,0,10.7-4.8,10.7-10.7c0-5.9-4.8-10.7-10.7-10.7c-5.9,0-10.7,4.8-10.7,10.7
		C1930.3,1194.1,1935.1,1198.9,1941,1198.9L1941,1198.9z M1815.6,1198.9c5.9,0,10.7-4.8,10.7-10.7c0-5.9-4.8-10.7-10.7-10.7
		c-5.9,0-10.7,4.8-10.7,10.7C1804.8,1194.1,1809.6,1198.9,1815.6,1198.9L1815.6,1198.9z M1690.1,1198.9c5.9,0,10.7-4.8,10.7-10.7
		c0-5.9-4.8-10.7-10.7-10.7c-5.9,0-10.7,4.8-10.7,10.7C1679.3,1194.1,1684.1,1198.9,1690.1,1198.9L1690.1,1198.9z M1564.6,1198.9
		c5.9,0,10.7-4.8,10.7-10.7c0-5.9-4.8-10.7-10.7-10.7c-5.9,0-10.7,4.8-10.7,10.7C1553.9,1194.1,1558.7,1198.9,1564.6,1198.9
		L1564.6,1198.9z M1439.1,1198.9c5.9,0,10.7-4.8,10.7-10.7c0-5.9-4.8-10.7-10.7-10.7c-5.9,0-10.7,4.8-10.7,10.7
		C1428.4,1194.1,1433.2,1198.9,1439.1,1198.9L1439.1,1198.9z M1313.7,1198.9c5.9,0,10.7-4.8,10.7-10.7c0-5.9-4.8-10.7-10.7-10.7
		c-5.9,0-10.7,4.8-10.7,10.7C1302.9,1194.1,1307.7,1198.9,1313.7,1198.9L1313.7,1198.9z M1188.2,1198.9c5.9,0,10.7-4.8,10.7-10.7
		c0-5.9-4.8-10.7-10.7-10.7c-5.9,0-10.7,4.8-10.7,10.7C1177.5,1194.1,1182.3,1198.9,1188.2,1198.9L1188.2,1198.9z M1062.7,1198.9
		c5.9,0,10.7-4.8,10.7-10.7c0-5.9-4.8-10.7-10.7-10.7c-5.9,0-10.7,4.8-10.7,10.7C1052,1194.1,1056.8,1198.9,1062.7,1198.9
		L1062.7,1198.9z M937.3,1198.9c5.9,0,10.7-4.8,10.7-10.7c0-5.9-4.8-10.7-10.7-10.7c-5.9,0-10.7,4.8-10.7,10.7
		C926.5,1194.1,931.3,1198.9,937.3,1198.9L937.3,1198.9z M811.8,1198.9c5.9,0,10.7-4.8,10.7-10.7c0-5.9-4.8-10.7-10.7-10.7
		c-5.9,0-10.7,4.8-10.7,10.7C801.1,1194.1,805.9,1198.9,811.8,1198.9L811.8,1198.9z M686.3,1198.9c5.9,0,10.7-4.8,10.7-10.7
		c0-5.9-4.8-10.7-10.7-10.7c-5.9,0-10.7,4.8-10.7,10.7C675.6,1194.1,680.4,1198.9,686.3,1198.9L686.3,1198.9z M560.9,1198.9
		c5.9,0,10.7-4.8,10.7-10.7c0-5.9-4.8-10.7-10.7-10.7s-10.7,4.8-10.7,10.7C550.1,1194.1,554.9,1198.9,560.9,1198.9L560.9,1198.9z
		 M435.4,1198.9c5.9,0,10.7-4.8,10.7-10.7c0-5.9-4.8-10.7-10.7-10.7c-5.9,0-10.7,4.8-10.7,10.7
		C424.7,1194.1,429.5,1198.9,435.4,1198.9L435.4,1198.9z M309.9,1198.9c5.9,0,10.7-4.8,10.7-10.7c0-5.9-4.8-10.7-10.7-10.7
		c-5.9,0-10.7,4.8-10.7,10.7C299.2,1194.1,304,1198.9,309.9,1198.9L309.9,1198.9z M184.5,1198.9c5.9,0,10.7-4.8,10.7-10.7
		c0-5.9-4.8-10.7-10.7-10.7c-5.9,0-10.7,4.8-10.7,10.7C173.7,1194.1,178.5,1198.9,184.5,1198.9L184.5,1198.9z M59,1198.9
		c5.9,0,10.7-4.8,10.7-10.7c0-5.9-4.8-10.7-10.7-10.7c-5.9,0-10.7,4.8-10.7,10.7C48.2,1194.1,53.1,1198.9,59,1198.9L59,1198.9z
		 M1941,1073.5c5.9,0,10.7-4.8,10.7-10.7c0-5.9-4.8-10.7-10.7-10.7c-5.9,0-10.7,4.8-10.7,10.7
		C1930.3,1068.7,1935.1,1073.5,1941,1073.5L1941,1073.5z M1815.6,1073.5c5.9,0,10.7-4.8,10.7-10.7c0-5.9-4.8-10.7-10.7-10.7
		c-5.9,0-10.7,4.8-10.7,10.7C1804.8,1068.7,1809.6,1073.5,1815.6,1073.5L1815.6,1073.5z M1690.1,1073.5c5.9,0,10.7-4.8,10.7-10.7
		c0-5.9-4.8-10.7-10.7-10.7c-5.9,0-10.7,4.8-10.7,10.7C1679.3,1068.7,1684.1,1073.5,1690.1,1073.5L1690.1,1073.5z M1564.6,1073.5
		c5.9,0,10.7-4.8,10.7-10.7c0-5.9-4.8-10.7-10.7-10.7c-5.9,0-10.7,4.8-10.7,10.7C1553.9,1068.7,1558.7,1073.5,1564.6,1073.5
		L1564.6,1073.5z M1439.1,1073.5c5.9,0,10.7-4.8,10.7-10.7c0-5.9-4.8-10.7-10.7-10.7c-5.9,0-10.7,4.8-10.7,10.7
		C1428.4,1068.7,1433.2,1073.5,1439.1,1073.5L1439.1,1073.5z M1313.7,1073.5c5.9,0,10.7-4.8,10.7-10.7c0-5.9-4.8-10.7-10.7-10.7
		c-5.9,0-10.7,4.8-10.7,10.7C1302.9,1068.7,1307.7,1073.5,1313.7,1073.5L1313.7,1073.5z M1188.2,1073.5c5.9,0,10.7-4.8,10.7-10.7
		c0-5.9-4.8-10.7-10.7-10.7c-5.9,0-10.7,4.8-10.7,10.7C1177.5,1068.7,1182.3,1073.5,1188.2,1073.5L1188.2,1073.5z M1062.7,1073.5
		c5.9,0,10.7-4.8,10.7-10.7c0-5.9-4.8-10.7-10.7-10.7c-5.9,0-10.7,4.8-10.7,10.7C1052,1068.7,1056.8,1073.5,1062.7,1073.5
		L1062.7,1073.5z M937.3,1073.5c5.9,0,10.7-4.8,10.7-10.7c0-5.9-4.8-10.7-10.7-10.7c-5.9,0-10.7,4.8-10.7,10.7
		C926.5,1068.7,931.3,1073.5,937.3,1073.5L937.3,1073.5z M811.8,1073.5c5.9,0,10.7-4.8,10.7-10.7c0-5.9-4.8-10.7-10.7-10.7
		c-5.9,0-10.7,4.8-10.7,10.7C801.1,1068.7,805.9,1073.5,811.8,1073.5L811.8,1073.5z M686.3,1073.5c5.9,0,10.7-4.8,10.7-10.7
		c0-5.9-4.8-10.7-10.7-10.7c-5.9,0-10.7,4.8-10.7,10.7C675.6,1068.7,680.4,1073.5,686.3,1073.5L686.3,1073.5z M560.9,1073.5
		c5.9,0,10.7-4.8,10.7-10.7c0-5.9-4.8-10.7-10.7-10.7s-10.7,4.8-10.7,10.7C550.1,1068.7,554.9,1073.5,560.9,1073.5L560.9,1073.5z
		 M435.4,1073.5c5.9,0,10.7-4.8,10.7-10.7c0-5.9-4.8-10.7-10.7-10.7c-5.9,0-10.7,4.8-10.7,10.7
		C424.7,1068.7,429.5,1073.5,435.4,1073.5L435.4,1073.5z M309.9,1073.5c5.9,0,10.7-4.8,10.7-10.7c0-5.9-4.8-10.7-10.7-10.7
		c-5.9,0-10.7,4.8-10.7,10.7C299.2,1068.7,304,1073.5,309.9,1073.5L309.9,1073.5z M184.5,1073.5c5.9,0,10.7-4.8,10.7-10.7
		c0-5.9-4.8-10.7-10.7-10.7c-5.9,0-10.7,4.8-10.7,10.7C173.7,1068.7,178.5,1073.5,184.5,1073.5L184.5,1073.5z M59,1073.5
		c5.9,0,10.7-4.8,10.7-10.7c0-5.9-4.8-10.7-10.7-10.7c-5.9,0-10.7,4.8-10.7,10.7C48.2,1068.7,53.1,1073.5,59,1073.5L59,1073.5z
		 M1941,948c5.9,0,10.7-4.8,10.7-10.7c0-5.9-4.8-10.7-10.7-10.7c-5.9,0-10.7,4.8-10.7,10.7C1930.3,943.2,1935.1,948,1941,948
		L1941,948z M1815.6,948c5.9,0,10.7-4.8,10.7-10.7c0-5.9-4.8-10.7-10.7-10.7c-5.9,0-10.7,4.8-10.7,10.7
		C1804.8,943.2,1809.6,948,1815.6,948L1815.6,948z M1690.1,948c5.9,0,10.7-4.8,10.7-10.7c0-5.9-4.8-10.7-10.7-10.7
		c-5.9,0-10.7,4.8-10.7,10.7C1679.3,943.2,1684.1,948,1690.1,948L1690.1,948z M1564.6,948c5.9,0,10.7-4.8,10.7-10.7
		c0-5.9-4.8-10.7-10.7-10.7c-5.9,0-10.7,4.8-10.7,10.7C1553.9,943.2,1558.7,948,1564.6,948L1564.6,948z M1439.1,948
		c5.9,0,10.7-4.8,10.7-10.7c0-5.9-4.8-10.7-10.7-10.7c-5.9,0-10.7,4.8-10.7,10.7C1428.4,943.2,1433.2,948,1439.1,948L1439.1,948z
		 M1313.7,948c5.9,0,10.7-4.8,10.7-10.7c0-5.9-4.8-10.7-10.7-10.7c-5.9,0-10.7,4.8-10.7,10.7C1302.9,943.2,1307.7,948,1313.7,948
		L1313.7,948z M1188.2,948c5.9,0,10.7-4.8,10.7-10.7c0-5.9-4.8-10.7-10.7-10.7c-5.9,0-10.7,4.8-10.7,10.7
		C1177.5,943.2,1182.3,948,1188.2,948L1188.2,948z M1062.7,948c5.9,0,10.7-4.8,10.7-10.7c0-5.9-4.8-10.7-10.7-10.7
		c-5.9,0-10.7,4.8-10.7,10.7C1052,943.2,1056.8,948,1062.7,948L1062.7,948z M937.3,948c5.9,0,10.7-4.8,10.7-10.7
		c0-5.9-4.8-10.7-10.7-10.7c-5.9,0-10.7,4.8-10.7,10.7C926.5,943.2,931.3,948,937.3,948L937.3,948z M811.8,948
		c5.9,0,10.7-4.8,10.7-10.7c0-5.9-4.8-10.7-10.7-10.7c-5.9,0-10.7,4.8-10.7,10.7C801.1,943.2,805.9,948,811.8,948L811.8,948z
		 M686.3,948c5.9,0,10.7-4.8,10.7-10.7c0-5.9-4.8-10.7-10.7-10.7c-5.9,0-10.7,4.8-10.7,10.7C675.6,943.2,680.4,948,686.3,948
		L686.3,948z M560.9,948c5.9,0,10.7-4.8,10.7-10.7c0-5.9-4.8-10.7-10.7-10.7s-10.7,4.8-10.7,10.7C550.1,943.2,554.9,948,560.9,948
		L560.9,948z M435.4,948c5.9,0,10.7-4.8,10.7-10.7c0-5.9-4.8-10.7-10.7-10.7c-5.9,0-10.7,4.8-10.7,10.7
		C424.7,943.2,429.5,948,435.4,948L435.4,948z M309.9,948c5.9,0,10.7-4.8,10.7-10.7c0-5.9-4.8-10.7-10.7-10.7
		c-5.9,0-10.7,4.8-10.7,10.7C299.2,943.2,304,948,309.9,948L309.9,948z M184.5,948c5.9,0,10.7-4.8,10.7-10.7
		c0-5.9-4.8-10.7-10.7-10.7c-5.9,0-10.7,4.8-10.7,10.7C173.7,943.2,178.5,948,184.5,948L184.5,948z M59,948
		c5.9,0,10.7-4.8,10.7-10.7c0-5.9-4.8-10.7-10.7-10.7c-5.9,0-10.7,4.8-10.7,10.7C48.2,943.2,53.1,948,59,948L59,948z M1941,822.5
		c5.9,0,10.7-4.8,10.7-10.7c0-5.9-4.8-10.7-10.7-10.7c-5.9,0-10.7,4.8-10.7,10.7C1930.3,817.7,1935.1,822.5,1941,822.5L1941,822.5z
		 M1815.6,822.5c5.9,0,10.7-4.8,10.7-10.7c0-5.9-4.8-10.7-10.7-10.7c-5.9,0-10.7,4.8-10.7,10.7
		C1804.8,817.7,1809.6,822.5,1815.6,822.5L1815.6,822.5z M1690.1,822.5c5.9,0,10.7-4.8,10.7-10.7c0-5.9-4.8-10.7-10.7-10.7
		c-5.9,0-10.7,4.8-10.7,10.7C1679.3,817.7,1684.1,822.5,1690.1,822.5L1690.1,822.5z M1564.6,822.5c5.9,0,10.7-4.8,10.7-10.7
		c0-5.9-4.8-10.7-10.7-10.7c-5.9,0-10.7,4.8-10.7,10.7C1553.9,817.7,1558.7,822.5,1564.6,822.5L1564.6,822.5z M1439.1,822.5
		c5.9,0,10.7-4.8,10.7-10.7c0-5.9-4.8-10.7-10.7-10.7c-5.9,0-10.7,4.8-10.7,10.7C1428.4,817.7,1433.2,822.5,1439.1,822.5
		L1439.1,822.5z M1313.7,822.5c5.9,0,10.7-4.8,10.7-10.7c0-5.9-4.8-10.7-10.7-10.7c-5.9,0-10.7,4.8-10.7,10.7
		C1302.9,817.7,1307.7,822.5,1313.7,822.5L1313.7,822.5z M1188.2,822.5c5.9,0,10.7-4.8,10.7-10.7c0-5.9-4.8-10.7-10.7-10.7
		c-5.9,0-10.7,4.8-10.7,10.7C1177.5,817.7,1182.3,822.5,1188.2,822.5L1188.2,822.5z M1062.7,822.5c5.9,0,10.7-4.8,10.7-10.7
		c0-5.9-4.8-10.7-10.7-10.7c-5.9,0-10.7,4.8-10.7,10.7C1052,817.7,1056.8,822.5,1062.7,822.5L1062.7,822.5z M937.3,822.5
		c5.9,0,10.7-4.8,10.7-10.7c0-5.9-4.8-10.7-10.7-10.7c-5.9,0-10.7,4.8-10.7,10.7C926.5,817.7,931.3,822.5,937.3,822.5L937.3,822.5z
		 M811.8,822.5c5.9,0,10.7-4.8,10.7-10.7c0-5.9-4.8-10.7-10.7-10.7c-5.9,0-10.7,4.8-10.7,10.7C801.1,817.7,805.9,822.5,811.8,822.5
		L811.8,822.5z M686.3,822.5c5.9,0,10.7-4.8,10.7-10.7c0-5.9-4.8-10.7-10.7-10.7c-5.9,0-10.7,4.8-10.7,10.7
		C675.6,817.7,680.4,822.5,686.3,822.5L686.3,822.5z M560.9,822.5c5.9,0,10.7-4.8,10.7-10.7c0-5.9-4.8-10.7-10.7-10.7
		s-10.7,4.8-10.7,10.7C550.1,817.7,554.9,822.5,560.9,822.5L560.9,822.5z M435.4,822.5c5.9,0,10.7-4.8,10.7-10.7
		c0-5.9-4.8-10.7-10.7-10.7c-5.9,0-10.7,4.8-10.7,10.7C424.7,817.7,429.5,822.5,435.4,822.5L435.4,822.5z M309.9,822.5
		c5.9,0,10.7-4.8,10.7-10.7c0-5.9-4.8-10.7-10.7-10.7c-5.9,0-10.7,4.8-10.7,10.7C299.2,817.7,304,822.5,309.9,822.5L309.9,822.5z
		 M184.5,822.5c5.9,0,10.7-4.8,10.7-10.7c0-5.9-4.8-10.7-10.7-10.7c-5.9,0-10.7,4.8-10.7,10.7C173.7,817.7,178.5,822.5,184.5,822.5
		L184.5,822.5z M59,822.5c5.9,0,10.7-4.8,10.7-10.7c0-5.9-4.8-10.7-10.7-10.7c-5.9,0-10.7,4.8-10.7,10.7
		C48.2,817.7,53.1,822.5,59,822.5L59,822.5z M1941,697.1c5.9,0,10.7-4.8,10.7-10.7c0-5.9-4.8-10.7-10.7-10.7
		c-5.9,0-10.7,4.8-10.7,10.7C1930.3,692.3,1935.1,697.1,1941,697.1L1941,697.1z M1815.6,697.1c5.9,0,10.7-4.8,10.7-10.7
		c0-5.9-4.8-10.7-10.7-10.7c-5.9,0-10.7,4.8-10.7,10.7C1804.8,692.3,1809.6,697.1,1815.6,697.1L1815.6,697.1z M1690.1,697.1
		c5.9,0,10.7-4.8,10.7-10.7c0-5.9-4.8-10.7-10.7-10.7c-5.9,0-10.7,4.8-10.7,10.7C1679.3,692.3,1684.1,697.1,1690.1,697.1
		L1690.1,697.1z M1564.6,697.1c5.9,0,10.7-4.8,10.7-10.7c0-5.9-4.8-10.7-10.7-10.7c-5.9,0-10.7,4.8-10.7,10.7
		C1553.9,692.3,1558.7,697.1,1564.6,697.1L1564.6,697.1z M1439.1,697.1c5.9,0,10.7-4.8,10.7-10.7c0-5.9-4.8-10.7-10.7-10.7
		c-5.9,0-10.7,4.8-10.7,10.7C1428.4,692.3,1433.2,697.1,1439.1,697.1L1439.1,697.1z M1313.7,697.1c5.9,0,10.7-4.8,10.7-10.7
		c0-5.9-4.8-10.7-10.7-10.7c-5.9,0-10.7,4.8-10.7,10.7C1302.9,692.3,1307.7,697.1,1313.7,697.1L1313.7,697.1z M1188.2,697.1
		c5.9,0,10.7-4.8,10.7-10.7c0-5.9-4.8-10.7-10.7-10.7c-5.9,0-10.7,4.8-10.7,10.7C1177.5,692.3,1182.3,697.1,1188.2,697.1
		L1188.2,697.1z M1062.7,697.1c5.9,0,10.7-4.8,10.7-10.7c0-5.9-4.8-10.7-10.7-10.7c-5.9,0-10.7,4.8-10.7,10.7
		C1052,692.3,1056.8,697.1,1062.7,697.1L1062.7,697.1z M937.3,697.1c5.9,0,10.7-4.8,10.7-10.7c0-5.9-4.8-10.7-10.7-10.7
		c-5.9,0-10.7,4.8-10.7,10.7C926.5,692.3,931.3,697.1,937.3,697.1L937.3,697.1z M811.8,697.1c5.9,0,10.7-4.8,10.7-10.7
		c0-5.9-4.8-10.7-10.7-10.7c-5.9,0-10.7,4.8-10.7,10.7C801.1,692.3,805.9,697.1,811.8,697.1L811.8,697.1z M686.3,697.1
		c5.9,0,10.7-4.8,10.7-10.7c0-5.9-4.8-10.7-10.7-10.7c-5.9,0-10.7,4.8-10.7,10.7C675.6,692.3,680.4,697.1,686.3,697.1L686.3,697.1z
		 M560.9,697.1c5.9,0,10.7-4.8,10.7-10.7c0-5.9-4.8-10.7-10.7-10.7s-10.7,4.8-10.7,10.7C550.1,692.3,554.9,697.1,560.9,697.1
		L560.9,697.1z M435.4,697.1c5.9,0,10.7-4.8,10.7-10.7c0-5.9-4.8-10.7-10.7-10.7c-5.9,0-10.7,4.8-10.7,10.7
		C424.7,692.3,429.5,697.1,435.4,697.1L435.4,697.1z M309.9,697.1c5.9,0,10.7-4.8,10.7-10.7c0-5.9-4.8-10.7-10.7-10.7
		c-5.9,0-10.7,4.8-10.7,10.7C299.2,692.3,304,697.1,309.9,697.1L309.9,697.1z M184.5,697.1c5.9,0,10.7-4.8,10.7-10.7
		c0-5.9-4.8-10.7-10.7-10.7c-5.9,0-10.7,4.8-10.7,10.7C173.7,692.3,178.5,697.1,184.5,697.1L184.5,697.1z M59,697.1
		c5.9,0,10.7-4.8,10.7-10.7c0-5.9-4.8-10.7-10.7-10.7c-5.9,0-10.7,4.8-10.7,10.7C48.2,692.3,53.1,697.1,59,697.1L59,697.1z
		 M1941,571.6c5.9,0,10.7-4.8,10.7-10.7c0-5.9-4.8-10.7-10.7-10.7c-5.9,0-10.7,4.8-10.7,10.7C1930.3,566.8,1935.1,571.6,1941,571.6
		L1941,571.6z M1815.6,571.6c5.9,0,10.7-4.8,10.7-10.7c0-5.9-4.8-10.7-10.7-10.7c-5.9,0-10.7,4.8-10.7,10.7
		C1804.8,566.8,1809.6,571.6,1815.6,571.6L1815.6,571.6z M1690.1,571.6c5.9,0,10.7-4.8,10.7-10.7c0-5.9-4.8-10.7-10.7-10.7
		c-5.9,0-10.7,4.8-10.7,10.7C1679.3,566.8,1684.1,571.6,1690.1,571.6L1690.1,571.6z M1564.6,571.6c5.9,0,10.7-4.8,10.7-10.7
		c0-5.9-4.8-10.7-10.7-10.7c-5.9,0-10.7,4.8-10.7,10.7C1553.9,566.8,1558.7,571.6,1564.6,571.6L1564.6,571.6z M1439.1,571.6
		c5.9,0,10.7-4.8,10.7-10.7c0-5.9-4.8-10.7-10.7-10.7c-5.9,0-10.7,4.8-10.7,10.7C1428.4,566.8,1433.2,571.6,1439.1,571.6
		L1439.1,571.6z M1313.7,571.6c5.9,0,10.7-4.8,10.7-10.7c0-5.9-4.8-10.7-10.7-10.7c-5.9,0-10.7,4.8-10.7,10.7
		C1302.9,566.8,1307.7,571.6,1313.7,571.6L1313.7,571.6z M1188.2,571.6c5.9,0,10.7-4.8,10.7-10.7c0-5.9-4.8-10.7-10.7-10.7
		c-5.9,0-10.7,4.8-10.7,10.7C1177.5,566.8,1182.3,571.6,1188.2,571.6L1188.2,571.6z M1062.7,571.6c5.9,0,10.7-4.8,10.7-10.7
		c0-5.9-4.8-10.7-10.7-10.7c-5.9,0-10.7,4.8-10.7,10.7C1052,566.8,1056.8,571.6,1062.7,571.6L1062.7,571.6z M937.3,571.6
		c5.9,0,10.7-4.8,10.7-10.7c0-5.9-4.8-10.7-10.7-10.7c-5.9,0-10.7,4.8-10.7,10.7C926.5,566.8,931.3,571.6,937.3,571.6L937.3,571.6z
		 M811.8,571.6c5.9,0,10.7-4.8,10.7-10.7c0-5.9-4.8-10.7-10.7-10.7c-5.9,0-10.7,4.8-10.7,10.7C801.1,566.8,805.9,571.6,811.8,571.6
		L811.8,571.6z M686.3,571.6c5.9,0,10.7-4.8,10.7-10.7c0-5.9-4.8-10.7-10.7-10.7c-5.9,0-10.7,4.8-10.7,10.7
		C675.6,566.8,680.4,571.6,686.3,571.6L686.3,571.6z M560.9,571.6c5.9,0,10.7-4.8,10.7-10.7c0-5.9-4.8-10.7-10.7-10.7
		s-10.7,4.8-10.7,10.7C550.1,566.8,554.9,571.6,560.9,571.6L560.9,571.6z M435.4,571.6c5.9,0,10.7-4.8,10.7-10.7
		c0-5.9-4.8-10.7-10.7-10.7c-5.9,0-10.7,4.8-10.7,10.7C424.7,566.8,429.5,571.6,435.4,571.6L435.4,571.6z M309.9,571.6
		c5.9,0,10.7-4.8,10.7-10.7c0-5.9-4.8-10.7-10.7-10.7c-5.9,0-10.7,4.8-10.7,10.7C299.2,566.8,304,571.6,309.9,571.6L309.9,571.6z
		 M184.5,571.6c5.9,0,10.7-4.8,10.7-10.7c0-5.9-4.8-10.7-10.7-10.7c-5.9,0-10.7,4.8-10.7,10.7C173.7,566.8,178.5,571.6,184.5,571.6
		L184.5,571.6z M59,571.6c5.9,0,10.7-4.8,10.7-10.7c0-5.9-4.8-10.7-10.7-10.7c-5.9,0-10.7,4.8-10.7,10.7
		C48.2,566.8,53.1,571.6,59,571.6L59,571.6z M1941,446.1c5.9,0,10.7-4.8,10.7-10.7c0-5.9-4.8-10.7-10.7-10.7
		c-5.9,0-10.7,4.8-10.7,10.7C1930.3,441.3,1935.1,446.1,1941,446.1L1941,446.1z M1815.6,446.1c5.9,0,10.7-4.8,10.7-10.7
		c0-5.9-4.8-10.7-10.7-10.7c-5.9,0-10.7,4.8-10.7,10.7C1804.8,441.3,1809.6,446.1,1815.6,446.1L1815.6,446.1z M1690.1,446.1
		c5.9,0,10.7-4.8,10.7-10.7c0-5.9-4.8-10.7-10.7-10.7c-5.9,0-10.7,4.8-10.7,10.7C1679.3,441.3,1684.1,446.1,1690.1,446.1
		L1690.1,446.1z M1564.6,446.1c5.9,0,10.7-4.8,10.7-10.7c0-5.9-4.8-10.7-10.7-10.7c-5.9,0-10.7,4.8-10.7,10.7
		C1553.9,441.3,1558.7,446.1,1564.6,446.1L1564.6,446.1z M1439.1,446.1c5.9,0,10.7-4.8,10.7-10.7c0-5.9-4.8-10.7-10.7-10.7
		c-5.9,0-10.7,4.8-10.7,10.7C1428.4,441.3,1433.2,446.1,1439.1,446.1L1439.1,446.1z M1313.7,446.1c5.9,0,10.7-4.8,10.7-10.7
		c0-5.9-4.8-10.7-10.7-10.7c-5.9,0-10.7,4.8-10.7,10.7C1302.9,441.3,1307.7,446.1,1313.7,446.1L1313.7,446.1z M1188.2,446.1
		c5.9,0,10.7-4.8,10.7-10.7c0-5.9-4.8-10.7-10.7-10.7c-5.9,0-10.7,4.8-10.7,10.7C1177.5,441.3,1182.3,446.1,1188.2,446.1
		L1188.2,446.1z M1062.7,446.1c5.9,0,10.7-4.8,10.7-10.7c0-5.9-4.8-10.7-10.7-10.7c-5.9,0-10.7,4.8-10.7,10.7
		C1052,441.3,1056.8,446.1,1062.7,446.1L1062.7,446.1z M937.3,446.1c5.9,0,10.7-4.8,10.7-10.7c0-5.9-4.8-10.7-10.7-10.7
		c-5.9,0-10.7,4.8-10.7,10.7C926.5,441.3,931.3,446.1,937.3,446.1L937.3,446.1z M811.8,446.1c5.9,0,10.7-4.8,10.7-10.7
		c0-5.9-4.8-10.7-10.7-10.7c-5.9,0-10.7,4.8-10.7,10.7C801.1,441.3,805.9,446.1,811.8,446.1L811.8,446.1z M686.3,446.1
		c5.9,0,10.7-4.8,10.7-10.7c0-5.9-4.8-10.7-10.7-10.7c-5.9,0-10.7,4.8-10.7,10.7C675.6,441.3,680.4,446.1,686.3,446.1L686.3,446.1z
		 M560.9,446.1c5.9,0,10.7-4.8,10.7-10.7c0-5.9-4.8-10.7-10.7-10.7s-10.7,4.8-10.7,10.7C550.1,441.3,554.9,446.1,560.9,446.1
		L560.9,446.1z M435.4,446.1c5.9,0,10.7-4.8,10.7-10.7c0-5.9-4.8-10.7-10.7-10.7c-5.9,0-10.7,4.8-10.7,10.7
		C424.7,441.3,429.5,446.1,435.4,446.1L435.4,446.1z M309.9,446.1c5.9,0,10.7-4.8,10.7-10.7c0-5.9-4.8-10.7-10.7-10.7
		c-5.9,0-10.7,4.8-10.7,10.7C299.2,441.3,304,446.1,309.9,446.1L309.9,446.1z M184.5,446.1c5.9,0,10.7-4.8,10.7-10.7
		c0-5.9-4.8-10.7-10.7-10.7c-5.9,0-10.7,4.8-10.7,10.7C173.7,441.3,178.5,446.1,184.5,446.1L184.5,446.1z M59,446.1
		c5.9,0,10.7-4.8,10.7-10.7c0-5.9-4.8-10.7-10.7-10.7c-5.9,0-10.7,4.8-10.7,10.7C48.2,441.3,53.1,446.1,59,446.1L59,446.1z
		 M1941,320.7c5.9,0,10.7-4.8,10.7-10.7c0-5.9-4.8-10.7-10.7-10.7c-5.9,0-10.7,4.8-10.7,10.7C1930.3,315.9,1935.1,320.7,1941,320.7
		L1941,320.7z M1815.6,320.7c5.9,0,10.7-4.8,10.7-10.7c0-5.9-4.8-10.7-10.7-10.7c-5.9,0-10.7,4.8-10.7,10.7
		C1804.8,315.9,1809.6,320.7,1815.6,320.7L1815.6,320.7z M1690.1,320.7c5.9,0,10.7-4.8,10.7-10.7c0-5.9-4.8-10.7-10.7-10.7
		c-5.9,0-10.7,4.8-10.7,10.7C1679.3,315.9,1684.1,320.7,1690.1,320.7L1690.1,320.7z M1564.6,320.7c5.9,0,10.7-4.8,10.7-10.7
		c0-5.9-4.8-10.7-10.7-10.7c-5.9,0-10.7,4.8-10.7,10.7C1553.9,315.9,1558.7,320.7,1564.6,320.7L1564.6,320.7z M1439.1,320.7
		c5.9,0,10.7-4.8,10.7-10.7c0-5.9-4.8-10.7-10.7-10.7c-5.9,0-10.7,4.8-10.7,10.7C1428.4,315.9,1433.2,320.7,1439.1,320.7
		L1439.1,320.7z M1313.7,320.7c5.9,0,10.7-4.8,10.7-10.7c0-5.9-4.8-10.7-10.7-10.7c-5.9,0-10.7,4.8-10.7,10.7
		C1302.9,315.9,1307.7,320.7,1313.7,320.7L1313.7,320.7z M1188.2,320.7c5.9,0,10.7-4.8,10.7-10.7c0-5.9-4.8-10.7-10.7-10.7
		c-5.9,0-10.7,4.8-10.7,10.7C1177.5,315.9,1182.3,320.7,1188.2,320.7L1188.2,320.7z M1062.7,320.7c5.9,0,10.7-4.8,10.7-10.7
		c0-5.9-4.8-10.7-10.7-10.7c-5.9,0-10.7,4.8-10.7,10.7C1052,315.9,1056.8,320.7,1062.7,320.7L1062.7,320.7z M937.3,320.7
		c5.9,0,10.7-4.8,10.7-10.7c0-5.9-4.8-10.7-10.7-10.7c-5.9,0-10.7,4.8-10.7,10.7C926.5,315.9,931.3,320.7,937.3,320.7L937.3,320.7z
		 M811.8,320.7c5.9,0,10.7-4.8,10.7-10.7c0-5.9-4.8-10.7-10.7-10.7c-5.9,0-10.7,4.8-10.7,10.7C801.1,315.9,805.9,320.7,811.8,320.7
		L811.8,320.7z M686.3,320.7c5.9,0,10.7-4.8,10.7-10.7c0-5.9-4.8-10.7-10.7-10.7c-5.9,0-10.7,4.8-10.7,10.7
		C675.6,315.9,680.4,320.7,686.3,320.7L686.3,320.7z M560.9,320.7c5.9,0,10.7-4.8,10.7-10.7c0-5.9-4.8-10.7-10.7-10.7
		s-10.7,4.8-10.7,10.7C550.1,315.9,554.9,320.7,560.9,320.7L560.9,320.7z M435.4,320.7c5.9,0,10.7-4.8,10.7-10.7
		c0-5.9-4.8-10.7-10.7-10.7c-5.9,0-10.7,4.8-10.7,10.7C424.7,315.9,429.5,320.7,435.4,320.7L435.4,320.7z M309.9,320.7
		c5.9,0,10.7-4.8,10.7-10.7c0-5.9-4.8-10.7-10.7-10.7c-5.9,0-10.7,4.8-10.7,10.7C299.2,315.9,304,320.7,309.9,320.7L309.9,320.7z
		 M184.5,320.7c5.9,0,10.7-4.8,10.7-10.7c0-5.9-4.8-10.7-10.7-10.7c-5.9,0-10.7,4.8-10.7,10.7C173.7,315.9,178.5,320.7,184.5,320.7
		L184.5,320.7z M59,320.7c5.9,0,10.7-4.8,10.7-10.7c0-5.9-4.8-10.7-10.7-10.7c-5.9,0-10.7,4.8-10.7,10.7
		C48.2,315.9,53.1,320.7,59,320.7L59,320.7z M1941,195.2c5.9,0,10.7-4.8,10.7-10.7c0-5.9-4.8-10.7-10.7-10.7
		c-5.9,0-10.7,4.8-10.7,10.7C1930.3,190.4,1935.1,195.2,1941,195.2L1941,195.2z M1815.6,195.2c5.9,0,10.7-4.8,10.7-10.7
		c0-5.9-4.8-10.7-10.7-10.7c-5.9,0-10.7,4.8-10.7,10.7C1804.8,190.4,1809.6,195.2,1815.6,195.2L1815.6,195.2z M1690.1,195.2
		c5.9,0,10.7-4.8,10.7-10.7c0-5.9-4.8-10.7-10.7-10.7c-5.9,0-10.7,4.8-10.7,10.7C1679.3,190.4,1684.1,195.2,1690.1,195.2
		L1690.1,195.2z M1564.6,195.2c5.9,0,10.7-4.8,10.7-10.7c0-5.9-4.8-10.7-10.7-10.7c-5.9,0-10.7,4.8-10.7,10.7
		C1553.9,190.4,1558.7,195.2,1564.6,195.2L1564.6,195.2z M1439.1,195.2c5.9,0,10.7-4.8,10.7-10.7c0-5.9-4.8-10.7-10.7-10.7
		c-5.9,0-10.7,4.8-10.7,10.7C1428.4,190.4,1433.2,195.2,1439.1,195.2L1439.1,195.2z M1313.7,195.2c5.9,0,10.7-4.8,10.7-10.7
		c0-5.9-4.8-10.7-10.7-10.7c-5.9,0-10.7,4.8-10.7,10.7C1302.9,190.4,1307.7,195.2,1313.7,195.2L1313.7,195.2z M1188.2,195.2
		c5.9,0,10.7-4.8,10.7-10.7c0-5.9-4.8-10.7-10.7-10.7c-5.9,0-10.7,4.8-10.7,10.7C1177.5,190.4,1182.3,195.2,1188.2,195.2
		L1188.2,195.2z M1062.7,195.2c5.9,0,10.7-4.8,10.7-10.7c0-5.9-4.8-10.7-10.7-10.7c-5.9,0-10.7,4.8-10.7,10.7
		C1052,190.4,1056.8,195.2,1062.7,195.2L1062.7,195.2z M937.3,195.2c5.9,0,10.7-4.8,10.7-10.7c0-5.9-4.8-10.7-10.7-10.7
		c-5.9,0-10.7,4.8-10.7,10.7C926.5,190.4,931.3,195.2,937.3,195.2L937.3,195.2z M811.8,195.2c5.9,0,10.7-4.8,10.7-10.7
		c0-5.9-4.8-10.7-10.7-10.7c-5.9,0-10.7,4.8-10.7,10.7C801.1,190.4,805.9,195.2,811.8,195.2L811.8,195.2z M686.3,195.2
		c5.9,0,10.7-4.8,10.7-10.7c0-5.9-4.8-10.7-10.7-10.7c-5.9,0-10.7,4.8-10.7,10.7C675.6,190.4,680.4,195.2,686.3,195.2L686.3,195.2z
		 M560.9,195.2c5.9,0,10.7-4.8,10.7-10.7c0-5.9-4.8-10.7-10.7-10.7s-10.7,4.8-10.7,10.7C550.1,190.4,554.9,195.2,560.9,195.2
		L560.9,195.2z M435.4,195.2c5.9,0,10.7-4.8,10.7-10.7c0-5.9-4.8-10.7-10.7-10.7c-5.9,0-10.7,4.8-10.7,10.7
		C424.7,190.4,429.5,195.2,435.4,195.2L435.4,195.2z M309.9,195.2c5.9,0,10.7-4.8,10.7-10.7c0-5.9-4.8-10.7-10.7-10.7
		c-5.9,0-10.7,4.8-10.7,10.7C299.2,190.4,304,195.2,309.9,195.2L309.9,195.2z M184.5,195.2c5.9,0,10.7-4.8,10.7-10.7
		c0-5.9-4.8-10.7-10.7-10.7c-5.9,0-10.7,4.8-10.7,10.7C173.7,190.4,178.5,195.2,184.5,195.2L184.5,195.2z M59,195.2
		c5.9,0,10.7-4.8,10.7-10.7c0-5.9-4.8-10.7-10.7-10.7c-5.9,0-10.7,4.8-10.7,10.7C48.2,190.4,53.1,195.2,59,195.2L59,195.2z
		 M1941,69.7c5.9,0,10.7-4.8,10.7-10.7c0-5.9-4.8-10.7-10.7-10.7c-5.9,0-10.7,4.8-10.7,10.7C1930.3,64.9,1935.1,69.7,1941,69.7
		L1941,69.7z M1815.6,69.7c5.9,0,10.7-4.8,10.7-10.7c0-5.9-4.8-10.7-10.7-10.7c-5.9,0-10.7,4.8-10.7,10.7
		C1804.8,64.9,1809.6,69.7,1815.6,69.7L1815.6,69.7z M1690.1,69.7c5.9,0,10.7-4.8,10.7-10.7c0-5.9-4.8-10.7-10.7-10.7
		c-5.9,0-10.7,4.8-10.7,10.7C1679.3,64.9,1684.1,69.7,1690.1,69.7L1690.1,69.7z M1564.6,69.7c5.9,0,10.7-4.8,10.7-10.7
		c0-5.9-4.8-10.7-10.7-10.7c-5.9,0-10.7,4.8-10.7,10.7C1553.9,64.9,1558.7,69.7,1564.6,69.7L1564.6,69.7z M1439.1,69.7
		c5.9,0,10.7-4.8,10.7-10.7c0-5.9-4.8-10.7-10.7-10.7c-5.9,0-10.7,4.8-10.7,10.7C1428.4,64.9,1433.2,69.7,1439.1,69.7L1439.1,69.7z
		 M1313.7,69.7c5.9,0,10.7-4.8,10.7-10.7c0-5.9-4.8-10.7-10.7-10.7c-5.9,0-10.7,4.8-10.7,10.7C1302.9,64.9,1307.7,69.7,1313.7,69.7
		L1313.7,69.7z M1188.2,69.7c5.9,0,10.7-4.8,10.7-10.7c0-5.9-4.8-10.7-10.7-10.7c-5.9,0-10.7,4.8-10.7,10.7
		C1177.5,64.9,1182.3,69.7,1188.2,69.7L1188.2,69.7z M1062.7,69.7c5.9,0,10.7-4.8,10.7-10.7c0-5.9-4.8-10.7-10.7-10.7
		c-5.9,0-10.7,4.8-10.7,10.7C1052,64.9,1056.8,69.7,1062.7,69.7L1062.7,69.7z M937.3,69.7c5.9,0,10.7-4.8,10.7-10.7
		c0-5.9-4.8-10.7-10.7-10.7c-5.9,0-10.7,4.8-10.7,10.7C926.5,64.9,931.3,69.7,937.3,69.7L937.3,69.7z M811.8,69.7
		c5.9,0,10.7-4.8,10.7-10.7c0-5.9-4.8-10.7-10.7-10.7c-5.9,0-10.7,4.8-10.7,10.7C801.1,64.9,805.9,69.7,811.8,69.7L811.8,69.7z
		 M686.3,69.7c5.9,0,10.7-4.8,10.7-10.7c0-5.9-4.8-10.7-10.7-10.7c-5.9,0-10.7,4.8-10.7,10.7C675.6,64.9,680.4,69.7,686.3,69.7
		L686.3,69.7z M560.9,69.7c5.9,0,10.7-4.8,10.7-10.7c0-5.9-4.8-10.7-10.7-10.7s-10.7,4.8-10.7,10.7
		C550.1,64.9,554.9,69.7,560.9,69.7L560.9,69.7z M435.4,69.7c5.9,0,10.7-4.8,10.7-10.7c0-5.9-4.8-10.7-10.7-10.7
		c-5.9,0-10.7,4.8-10.7,10.7C424.7,64.9,429.5,69.7,435.4,69.7L435.4,69.7z M309.9,69.7c5.9,0,10.7-4.8,10.7-10.7
		c0-5.9-4.8-10.7-10.7-10.7c-5.9,0-10.7,4.8-10.7,10.7C299.2,64.9,304,69.7,309.9,69.7L309.9,69.7z M184.5,69.7
		c5.9,0,10.7-4.8,10.7-10.7c0-5.9-4.8-10.7-10.7-10.7c-5.9,0-10.7,4.8-10.7,10.7C173.7,64.9,178.5,69.7,184.5,69.7z"/>
	<polygon class="st2" points="1285.9,699.9 464.8,954.1 818.7,1431.5 	"/>
	<polygon class="st3" points="1285.9,699.9 818.7,1431.5 1086.1,1394.6 	"/>
	<path class="st3" d="M1228.8,0c10.8,40.3,16.6,82.7,16.6,126.5c0,269.6-218.5,488.1-488.1,488.1S269.2,396,269.2,126.5
		c0-43.7,5.8-86.1,16.6-126.5H1228.8z"/>
	<polygon class="st4" points="0,962.1 31.6,1114.4 749.5,553.3 444.5,406.4 0,192.3 	"/>
	<path class="st1" d="M0,814.7v-11.8L410.5,482l9.4,4.5L0,814.7L0,814.7z M0,772.4l386.4-301.9l-9.4-4.5L0,760.5V772.4L0,772.4z
		 M0,730.1l352.9-275.8l0,0l-9.3-4.5L0,718.3V730.1L0,730.1z M0,687.8l319.4-249.6l-9.4-4.5L0,676V687.8L0,687.8z M0,645.5
		L285.9,422l-9.4-4.5L0,633.7V645.5L0,645.5z M0,603.2l252.5-197.3l-9.4-4.5L0,591.4V603.2L0,603.2z M0,560.9l219-171.1l-9.4-4.5
		L0,549.1V560.9L0,560.9z M0,518.6l185.5-145l-9.4-4.5L0,506.8V518.6L0,518.6z M0,476.4v-11.8L142.7,353l9.4,4.5L0,476.4L0,476.4z
		 M0,434.1v-11.8l109.2-85.3l9.4,4.5L0,434.1L0,434.1z M0,391.8V380l75.7-59.2l9.4,4.5L0,391.8L0,391.8z M0,349.5l51.6-40.3
		l-9.4-4.5L0,337.7V349.5L0,349.5z M0,307.2v-11.8l8.8-6.9l9.4,4.5L0,307.2L0,307.2z M3.4,842.5l2.1,10.2l447.8-350l-9.4-4.5
		L3.4,842.5L3.4,842.5z M10.9,878.9l2.1,10.2l473.7-370.2l-9.4-4.5L10.9,878.9L10.9,878.9z M18.5,915.2l2.1,10.2l499.6-390.5
		l-9.4-4.5L18.5,915.2L18.5,915.2z M26.1,951.6l2.1,10.2L553.7,551l-9.4-4.5L26.1,951.6L26.1,951.6z M33.6,988l2.1,10.2l551.5-431
		l-9.4-4.5L33.6,988z"/>
	<path class="st3" d="M467.3,1206.9c28.4,95.5,10.7,193.7-40,270.9c80.1-81.5,114.7-203,79.8-320.3c-2.3-7.6-4.8-15.1-7.6-22.4
		L467.3,1206.9z"/>
	<polygon class="st2" points="0,1345.7 467.3,1206.9 499.6,1135 0,1283.4 	"/>
	<path class="st5" d="M0,1584.2c73.3,40.1,162,52.1,248.4,26.5c76.4-22.7,138.3-71.1,178.9-132.9c50.7-77.2,68.3-175.4,40-270.9
		L0,1345.7V1584.2z"/>
	<polygon class="st6" points="867.9,0 887,69.5 540.2,165 494.8,0 	"/>
	<polygon class="st2" points="494.8,0 540.2,165 364.7,86.6 340.9,0 	"/>
	<path class="st6" d="M1405.3,3.6c-144.3,116.2-289.4,175.4-324.2,132.2C1061.7,111.7,1081,60.6,1127,0h282.8
		C1408.3,1.2,1406.8,2.4,1405.3,3.6z"/>
	<path class="st7" d="M1794.4,219.5L1711.7,0h-301.9c-1.5,1.2-2.9,2.4-4.4,3.6c-128.5,103.4-257.6,161.7-308.9,142.8l436.8,283.5
		l450.9,292.7L1794.4,219.5z"/>
	<polygon class="st4" points="1962.8,782.9 2000,962.1 2000,192.3 1822.3,106.7 	"/>
	<path class="st1" d="M1884.2,228.5l-7.2,5.7l-2.1-10.2L1884.2,228.5L1884.2,228.5z M2000,814.7v-11.8l-4.2,3.3l2.1,10.2L2000,814.7
		L2000,814.7z M2000,772.4v-11.8l-11.7,9.2l2.1,10.2L2000,772.4L2000,772.4z M2000,730.1v-11.8l-19.3,15.1l2.1,10.2v0L2000,730.1
		L2000,730.1z M2000,687.8V676l-26.9,21l2.1,10.2L2000,687.8L2000,687.8z M2000,645.5v-11.8l-34.4,26.9l2.1,10.2L2000,645.5
		L2000,645.5z M2000,603.2l-39.9,31.1l-2.1-10.2l42-32.8V603.2L2000,603.2z M2000,560.9v-11.8l-49.5,38.7l2.1,10.2L2000,560.9
		L2000,560.9z M2000,518.6l-55,43l-2.1-10.2l57.1-44.6V518.6L2000,518.6z M2000,476.4v-11.8l-64.6,50.5l2.1,10.2L2000,476.4
		L2000,476.4z M2000,434.1l-70.1,54.8l-2.1-10.2l72.2-56.4V434.1L2000,434.1z M2000,391.8V380l-79.8,62.3l2.1,10.2L2000,391.8
		L2000,391.8z M2000,349.5l-85.2,66.6l-2.1-10.2l87.3-68.2V349.5L2000,349.5z M2000,307.2v-11.8l-94.9,74.2l2.1,10.2L2000,307.2
		L2000,307.2z M1984.7,276.9l-9.4-4.5l-77.7,60.8l2.1,10.2L1984.7,276.9L1984.7,276.9z M1951.2,260.8l-59.1,46.2l-2.1-10.2
		l51.8-40.5L1951.2,260.8L1951.2,260.8z M1917.7,244.7l-9.4-4.5l-25.9,20.3l2.1,10.2L1917.7,244.7z"/>
	<polygon class="st2" points="1844.6,1391.8 2000,1345.7 2000,1283.4 1877,1320 	"/>
	<path class="st5" d="M1844.6,1391.8c25.4,85.5,82.9,152.7,155.4,192.4v-238.5L1844.6,1391.8z"/>
	<path class="st3" d="M757.3,1638.3c225.8,0,415.8,153.4,471.5,361.7H285.8C341.5,1791.7,531.5,1638.3,757.3,1638.3z"/>
	<polygon class="st6" points="790.2,1717.6 867.9,2000 494.8,2000 443.3,1813 	"/>
	<polygon class="st2" points="443.3,1813 494.8,2000 340.9,2000 267.8,1734.7 	"/>
	<polygon class="st5" points="614.7,1639.2 790.2,1717.6 443.3,1813 267.8,1734.7 	"/>
	<path class="st6" d="M1127,2000c36.2-47.8,89-101.5,152.6-152.6c144.3-116.2,289.4-175.4,324.1-132.2
		c34.4,42.7-52.3,169.6-194,284.9H1127z"/>
	<path class="st7" d="M1711.7,2000l-100.9-267.7c7.4,53.5-75,165.2-201,267.7H1711.7z"/>
	<path class="st8" d="M896.5,1885.4l34.2,79.5l73.8-45.2l4.9-3l2.3,5.2l33.6,78.1h-10.8l-29.7-69l-73.8,45.2l-4.9,3l-2.3-5.2
		l-34.2-79.5l-73.8,45.2l-4.9,3l-2.3-5.2l-34.2-79.5l-73.8,45.2l-4.9,3l-2.3-5.3l-34.2-79.5l-73.8,45.2c-2.3,1.4-5.4,0.7-6.8-1.6
		c-1.4-2.3-0.7-5.4,1.6-6.8l78.6-48.2l4.9-3l2.3,5.2l34.2,79.5l73.8-45.2l4.9-3l2.3,5.3l34.2,79.5l73.8-45.2l4.9-3L896.5,1885.4
		L896.5,1885.4z M1048,2000l71.6-43.9l4.9-3l2.3,5.3l17.9,41.6h-10.8l-14-32.4L1067,2000H1048L1048,2000z M594.5,2000h13.1l-0.5-1.1
		l-2.3-5.2l-4.9,3L594.5,2000L594.5,2000z M766,2000h10.8l-24.9-57.9l-2.3-5.2l-4.9,3l-73.8,45.2l-34.2-79.5l-2.3-5.2l-4.9,3
		l-78.6,48.2c-2.3,1.4-3.1,4.5-1.6,6.8c1.4,2.3,4.5,3.1,6.8,1.6l73.8-45.2l34.2,79.5l2.3,5.2l4.9-3l73.8-45.2L766,2000L766,2000z
		 M821.3,2000h18.9l19.9-12.2l5.2,12.2h10.8l-9.2-21.3l-2.3-5.2l-4.9,3L821.3,2000z"/>
	<path class="st8" d="M1045.2,0l0.6,1.4L1048,0h18.9l-20.8,12.8l-4.9,3l-2.3-5.2L1034.5,0H1045.2L1045.2,0z M1144.6,0l18.6,43.1
		c1.1,2.5-0.1,5.4-2.6,6.5c-2.5,1.1-5.4-0.1-6.5-2.6l-20.2-47H1144.6L1144.6,0z M594.5,0l-73.2,44.8c-2.3,1.4-3.1,4.5-1.6,6.8
		c1.4,2.3,4.5,3.1,6.8,1.6l73.8-45.2l34.2,79.5l2.3,5.3l4.9-3l73.8-45.2l34.2,79.5l2.3,5.2l4.9-3l73.8-45.2l34.2,79.5l2.3,5.3l4.9-3
		l73.8-45.2l34.2,79.5l2.3,5.2l4.9-3l73.8-45.2l34.2,79.5c1.1,2.5,4,3.7,6.5,2.6c2.5-1.1,3.7-4,2.6-6.5l-36.5-84.7l-2.3-5.2l-4.9,3
		l-73.8,45.2l-34.2-79.5l-2.3-5.2l-4.9,3l-73.8,45.2L837.3,72l-2.3-5.2l-4.9,3l-73.8,45.2l-34.2-79.5l-2.3-5.2l-4.9,3l-73.8,45.2
		L607.6,0H594.5L594.5,0z M766,0h10.8l9.3,21.6L821.3,0h18.9l-53.9,33l-4.9,3l-2.3-5.3L766,0L766,0z M865.3,0l29,67.3l2.3,5.2l4.9-3
		l73.8-45.2l34.2,79.5l2.3,5.3l4.9-3l73.8-45.2l34.2,79.5c1.1,2.5,4,3.7,6.5,2.6c2.5-1.1,3.7-4,2.6-6.5l-36.5-84.7l-2.3-5.2l-4.9,3
		l-73.8,45.2L982,15.2l-2.3-5.2l-4.9,3l-73.8,45.2L876.1,0H865.3z"/>
	<polygon class="st7" points="1689.4,1036.1 2000,1210.9 2000,1021.6 1627.7,812 	"/>
	<polygon class="st3" points="1627.7,812 2000,1021.6 2000,708.5 	"/>
	<polygon class="st9" points="343.6,612.9 76,1064.3 137.7,1288.4 405.3,837 	"/>
	<polygon class="st7" points="0,1210.9 137.7,1288.4 76,1064.3 0,1021.6 	"/>
	<polygon class="st3" points="0,1021.6 76,1064.3 343.6,612.9 0,708.5 	"/>
	<path class="st10" d="M1546.4,1241.6c51.3,8.4,86.1,56.8,77.7,108.1c-8.4,51.3-56.8,86.1-108.1,77.7
		c-51.3-8.4-86.1-56.8-77.7-108.1C1446.7,1268.1,1495.1,1233.2,1546.4,1241.6z"/>
	<path class="st4" d="M1693.3,1392.4c-15.9,97.3-107.7,163.2-204.9,147.3c-97.3-15.9-163.2-107.7-147.3-204.9
		c15.9-97.3,107.7-163.2,204.9-147.3C1643.2,1203.3,1709.2,1295.1,1693.3,1392.4L1693.3,1392.4z M1827.3,1414.3
		c28-171.3-88.1-332.8-259.4-360.8c-171.3-28-332.8,88.1-360.8,259.4c-28,171.3,88.1,332.8,259.4,360.8
		C1637.7,1701.7,1799.3,1585.6,1827.3,1414.3z"/>
</g>
</svg>
