<svg xmlns="http://www.w3.org/2000/svg" width="1675.853" height="2610.181"><defs><clipPath clipPathUnits="userSpaceOnUse" id="a"><path d="M0 2500h2500V0H0z"/></clipPath><clipPath clipPathUnits="userSpaceOnUse" id="b"><path d="M0 2500h2500V0H0z"/></clipPath><clipPath clipPathUnits="userSpaceOnUse" id="c"><path d="M1017.13 879.867h585.91v-612.23h-585.91z"/></clipPath><clipPath clipPathUnits="userSpaceOnUse" id="d"><path d="M0 2500h2500V0H0z"/></clipPath><clipPath clipPathUnits="userSpaceOnUse" id="e"><path d="M758.775 1461.23h451.835v-393.75H758.775z"/></clipPath><clipPath clipPathUnits="userSpaceOnUse" id="f"><path d="M1041.6 1487.01h256.33v-144.53H1041.6z"/></clipPath><clipPath clipPathUnits="userSpaceOnUse" id="g"><path d="M704.371 2015.84H1842.2V793.36H704.371z"/></clipPath><clipPath clipPathUnits="userSpaceOnUse" id="h"><path d="M867.193 1014.54h305.817v-95.803H867.193z"/></clipPath><clipPath clipPathUnits="userSpaceOnUse" id="i"><path d="M867.193 1014.54h305.817v-95.798H867.193z"/></clipPath><clipPath clipPathUnits="userSpaceOnUse" id="j"><path d="M1660.59 1494.53h149.44v-269.22h-149.44z"/></clipPath><clipPath clipPathUnits="userSpaceOnUse" id="k"><path d="M875.597 1174.52h210.723v-45.41H875.597z"/></clipPath><clipPath clipPathUnits="userSpaceOnUse" id="l"><path d="M1195.35 1421.78h44.27v-18.24h-44.27z"/></clipPath><clipPath clipPathUnits="userSpaceOnUse" id="m"><path d="M1195.725 1418.885s-1.367-10.086 1.115-9.073 3.273-.312 6.883-.228c3.61.083 7.337-1.968 9.181-.121 1.845 1.847 5.041 5.55 4.998 3.582l-.207-9.507s7.299 3.777 11.065 3.531c3.767-.245 9.316-1.514 10.028 1.095.713 2.608.837 8.305.837 8.305l-7.837 1.632 1.819 1.655s-10.841-1.732-18.011.391c-7.169 2.124-20.606 2.635-19.871-1.262"/></clipPath><clipPath clipPathUnits="userSpaceOnUse" id="o"><path d="M795.837 1396h44.275v-18.24h-44.275z"/></clipPath><clipPath clipPathUnits="userSpaceOnUse" id="p"><path d="M796.212 1393.102s-1.367-10.085 1.115-9.072c2.482 1.012 3.274-.312 6.883-.229 3.61.084 7.338-1.968 9.182-.12 1.844 1.846 5.041 5.549 4.998 3.582l-.207-9.508s7.298 3.778 11.065 3.532c3.767-.246 9.315-1.515 10.028 1.094.712 2.609.836 8.305.836 8.305l-7.837 1.632 1.819 1.656s-10.84-1.733-18.01.391c-7.17 2.124-20.607 2.635-19.872-1.263"/></clipPath><clipPath clipPathUnits="userSpaceOnUse" id="r"><path d="M0 2500h2500V0H0z"/></clipPath><clipPath clipPathUnits="userSpaceOnUse" id="s"><path d="M655.803 2150.36h945.787v-453.18H655.803z"/></clipPath><clipPath clipPathUnits="userSpaceOnUse" id="t"><path d="M655.803 2150.36h891.347v-403.35H655.803z"/></clipPath><clipPath clipPathUnits="userSpaceOnUse" id="u"><path d="M1478.48 1835.53h283.48v-454.75h-283.48z"/></clipPath><clipPath clipPathUnits="userSpaceOnUse" id="v"><path d="M1478.48 1775.02h266.93v-335.33h-266.93z"/></clipPath><clipPath clipPathUnits="userSpaceOnUse" id="w"><path d="M855.841 738.293h374.769V512.262H855.841z"/></clipPath><clipPath clipPathUnits="userSpaceOnUse" id="x"><path d="M733.628 1272.94h835.602V886.166H733.628z"/></clipPath><clipPath clipPathUnits="userSpaceOnUse" id="y"><path d="M813.241 930.033h437.319V756.996H813.241z"/></clipPath><linearGradient x1="0" y1="0" x2="1" y2="0" gradientUnits="userSpaceOnUse" gradientTransform="scale(44.20931 -44.20931) rotate(1.245 1484.745 1228.608)" spreadMethod="pad" id="n"><stop offset="0" stop-color="#fff"/><stop offset="1" stop-color="#231f20"/></linearGradient><linearGradient x1="0" y1="0" x2="1" y2="0" gradientUnits="userSpaceOnUse" gradientTransform="scale(44.20931 -44.20931) rotate(1.245 1453.381 812.923)" spreadMethod="pad" id="q"><stop offset="0" stop-color="#fff"/><stop offset="1" stop-color="#231f20"/></linearGradient></defs><g clip-path="url(#a)" transform="matrix(1.33333 0 0 -1.33333 -834.411 2907.151)"><path d="M1141.844 2180.363c-34.662 0-64.905-12.4-84.918-20.607-4.184-1.715-7.796-3.197-10.838-4.322-20.267-7.495-40.187-14.224-61.042-14.224-3.761 0-7.503.228-11.124.677a99.256 99.256 0 01-12.156.733c-30.017.002-58.983-12.819-70.541-18.614-6.924-1.138-22.415-3.466-45.071-5.633-21.003-2.01-43.711-13.866-67.492-35.24-14.266-12.825-28.632-29.157-35-39.694-2.78-1.082-7.505-2.669-12.111-4.217-4.89-1.643-10.972-3.687-18.327-6.28-22.988-8.11-42.093-23.605-56.784-46.057-11.986-18.317-20.975-40.956-27.483-69.21-8.087-35.11.957-62.673 9.672-79.303.45-11.262 2.394-21.878 5.806-31.656 11.948-34.24 26.4-49.903 35.629-56.85 1.016-3.718 2.016-6.79 2.952-8.978l.138-.32c.718-1.68 1.46-3.416 2.206-5.186.054-.13.11-.26.166-.389 2.469-5.894 4.878-12.149 5.97-18.114.316-1.718.414-3.17.539-5.008.25-3.693.678-10.003 3.68-16.784-11.165-55.276-15.36-106.398-18.208-141.13-1.238-15.088-2.925-35.663-4.332-41.28-18.398-50.04-5.645-79.039 4.609-102.356 2.11-4.802 4.103-9.332 5.807-14.023 4.898-13.48 3.93-21.833 2.705-32.409-.548-4.729-1.114-9.619-1.232-15.07-.04-1.77-.33-7.597-.665-14.342l-.004-.06c-2.09-41.883-7.643-153.137-.748-224.737 1.256-13.043 3.65-33.708 8.039-60.126-3.742-16.85-2.398-36.242-.684-51.818.067-.602.125-1.135.173-1.59.02-.956-.195-3.38-.354-5.164-.497-5.592-1.114-12.55 0-20.268.907-6.28 2.693-10.914 4.103-13.955-.23-12.359-.122-25.086 2.302-35.76.419-1.849.472-2.906.518-3.838.032-.646.076-1.528.19-2.589.847-7.795 4.552-14.62 9.995-19.466a41.628 41.628 0 012.012-3.692c.108-.45.262-1.226.39-2.375 1.325-11.905 8.832-31.136 14.948-41.226l.063-.503c.3-2.423.715-5.74 1.61-10.148 1.454-7.156 3.205-11.555 5.335-15.418l.102-.542 2.053-11.196a30.542 30.542 0 018.503-16.157c1.269-2.993 2.94-6.014 5.218-8.846.973-8.992 3.442-26.089 9.043-39.466 4.353-10.399 5.313-13.729 6.816-21.45 1.639-8.418 4.582-14.15 6.529-17.943.375-.729.879-1.712 1.036-2.095.023-.124.075-.47.104-1.116l.08-1.819c.612-13.92 1.304-29.698 10.326-45.005.687-1.165.87-1.842 1.147-2.866 2.536-9.368 7.826-15.466 13.836-19.09a42.075 42.075 0 014.883-6.203 47.574 47.574 0 013.74-3.514c.095-.226.195-.47.3-.733 3.168-7.859 7.216-16.47 11.108-23.63 6.258-11.515 11.744-18.884 17.787-23.895l.326-.27c.309-.629.649-1.312 1.034-2.065 2.918-5.714 6.197-10.176 10.024-13.642a33.582 33.582 0 019.029-5.87 41.196 41.196 0 014.408-3.22c.248-.159.497-.314.747-.465a40.283 40.283 0 012.799-1.54c.223-.422.458-.872.7-1.333 4.03-7.696 10.778-20.579 27.348-31.869 3.504-2.388 5.607-4.05 7.462-5.518 5.029-3.976 12.557-9.928 25.949-10.257 2.435-2.383 4.593-4.229 6.506-5.565a29.982 29.982 0 0115.164-5.338c5.609-2.87 12.494-4.95 20.794-4.95 2.038 0 4.122.132 6.193.393l.239.03a31.425 31.425 0 0120.075-2.919l.363-3.139a30 30 0 0111.513-20.334l298.235-229.36a30.001 30.001 0 0142.582 6.178l415.459 573.337a29.996 29.996 0 015.522 20.925l-25.235 226.492c12.78 5.27 26.382 14.79 38.93 31.323 12.69 16.722 23.102 38.654 33.759 71.115 3.842 11.707 11.524 27.11 19.656 43.42 20.099 40.303 45.1 90.434 47.94 149.522 1.034 21.475-.806 43.268-5.468 64.773-4.04 18.627-10.204 37.123-18.325 54.974-18.34 40.312-40.757 64.94-49.543 73.66-5.394 5.351-11.12 9.905-17.144 13.64l.003.195.004.358.009 1.151v.129c.01 1.971-.003 4.222-.016 6.828-.012 2.287-.027 4.871-.028 7.758-.005 9.643.115 24.786 1.21 44.894 2.16 39.563 3.462 63.443 1.625 83.108-1.292 13.828-4.366 23.282-7.078 31.624-1.398 4.302-2.72 8.365-3.8 13.122a111.905 111.905 0 01-4.72 15.595c1.576 7.928.838 15.524-2.21 22.635-2.85 6.646-6.907 10.968-9.871 14.124-1.744 1.856-3.121 3.322-4.652 5.667-6.538 10.016-11.247 22.263-12.134 27.253-1.414 7.97-3.887 13.477-5.694 17.5-1.52 3.382-2.523 5.617-3.52 11.236-3.51 19.768-17.418 35.94-31.792 49.37.06 1.366.09 2.847.06 4.412-.276 13.927-7.432 23.581-16.547 28.475-2.028 6.201-4.335 10.897-7.965 15.152-3.202 7.342-6.703 11.868-10.131 15.383a53.015 53.015 0 01-1.175 2.724c-5.82 12.44-16.724 17.46-25.714 18.13-4.215 8.282-10.283 20.401-20.074 40.82-14.283 29.788-46.281 55.716-95.104 77.063l-.015.006-.014.007a417.715 417.715 0 01-16.442 6.762l-.217.085c-.938.362-1.884.723-2.831 1.081l-.148.057-.365.14c-.888.334-1.758.657-2.628.98l-.242.09-.54.2c-.8.294-1.61.59-2.422.883l-.29.105-.65.236c-.762.275-1.547.553-2.332.831l-.348.123-.635.225c-.774.272-1.532.535-2.29.797l-.332.115-.737.255c-.508.175-1.028.352-1.547.528l-.17.057-.255.086-.195.067-.343.115-.807.273c-.713.24-1.424.476-2.135.71l-.297.098-.871.288c-.698.23-1.391.453-2.084.677l-1.18.381c-.7.224-1.374.438-2.048.651l-1.25.393c-.637.2-1.292.403-1.946.605l-1.25.384c-.66.203-1.304.398-1.946.592l-1.282.385c-.618.185-1.242.371-1.865.554l-1.297.381c-.615.18-1.224.356-1.834.532l-1.31.376c-.596.171-1.196.341-1.792.51l-1.298.362-1.75.485-1.321.362c-.571.155-1.141.31-1.71.462l-1.078.29-.074.02-.188.05-.12.031-1.52.401-1.331.347-.19.05-1.418.365-1.15.292-.197.05-.148.038-1.39.35-1.171.29-.221.054-.234.058-1.21.297-.93.224-.354.086-.195.047-.35.084-.98.234-1.11.261-.265.062c-.037.01-.074.017-.112.026l-.09.021-.188.045-.353.083-.05.011-.24.056-.33.077-1.146.261-.31.07-.308.071-.925.21-1.105.245-.35.078-.415.092-.756.167-.463.1-.195.042-.621.133-.22.047-.352.076-.73.156-.891.186-.314.066-.824.171-.138.03-.333.068c-.858.176-1.678.342-2.485.501-51.524 10.21-133.895 13.857-153.134 14.275-2 .043-4.108.072-6.33.103-20.248.275-47.98.651-88.272 14.882-14.52 5.128-29.901 7.73-45.716 7.73m-472.351-322.492c3.635 27.624 17.132 55.615 34.16 72.2 0 0-42.123-24.79-34.16-72.2m472.35 292.491c11.544 0 23.544-1.714 35.727-6.016 49.476-17.475 82.96-16.235 103.94-16.69 20.983-.457 99.624-4.133 147.96-13.71.742-.148 1.496-.3 2.262-.458l.452-.094.777-.162c.366-.076.729-.15 1.1-.229.333-.07.675-.145 1.012-.217l.792-.17.587-.127 1.097-.242c.456-.1.909-.2 1.372-.304l1.144-.26 1.362-.31.567-.133.496-.116.21-.05 1.29-.302 1.208-.29c.188-.045.375-.089.562-.135l.865-.209c.45-.109.906-.222 1.36-.335.435-.107.87-.213 1.308-.323.48-.119.963-.243 1.447-.365l1.266-.32 1.507-.39 1.263-.329 1.409-.373.302-.08c.365-.097.73-.194 1.096-.293a1245.932 1245.932 0 002.84-.772 473.87 473.87 0 002.893-.806c.559-.157 1.12-.317 1.684-.477l1.238-.355a607.01 607.01 0 001.722-.5l1.232-.362a419.94 419.94 0 002.964-.885 606.49 606.49 0 003.01-.919c.616-.19 1.233-.382 1.852-.576.389-.12.78-.245 1.172-.369.634-.2 1.269-.402 1.908-.606l1.126-.363c.65-.21 1.3-.42 1.954-.635.369-.12.74-.245 1.11-.367.664-.22 1.329-.44 1.995-.664l1.072-.36c.192-.067.385-.13.578-.197a316.149 316.149 0 001.473-.503l1.006-.348a417.03 417.03 0 002.13-.74c.31-.11.622-.222.933-.33.734-.26 1.468-.52 2.202-.786l.867-.315c.76-.275 1.523-.55 2.284-.832l.717-.267c.813-.3 1.625-.602 2.439-.909l.495-.189c.885-.335 1.768-.672 2.653-1.014l.149-.058a386.445 386.445 0 0015.326-6.302c35.025-15.315 67.422-36.166 80.07-62.548 24.477-51.044 26.43-51.742 32.03-65.64 4.028-9.988 4.372-17.863 4.814-17.863.173 0 .36 1.206.79 3.965 1.524 9.807 5.366 5.46 6.507 12.651.755 4.761.35 9.117.89 9.116.277 0 .798-1.134 1.846-3.927 3.1-8.268 6.115-5.38 10.163-15.31 4.049-9.927 3.92-.74 8.46-18.223 4.103-15.796 6.39-16.558 6.792-16.558.043 0 .065.008.065.008s3.39 6.254 5.2 6.254c.629 0 1.067-.754 1.107-2.782.157-7.876-2.615-14.703 2.852-19.742 5.466-5.039 26.413-22.223 29.336-38.686 2.92-16.463 7.46-18.858 9.214-28.736 1.754-9.879 8.297-25.765 16.55-38.408 8.254-12.643 14.81-12.786 11.988-21.909-2.822-9.122 1.74-10.533 5.332-26.356 3.592-15.822 8.667-23.804 10.263-40.895 1.597-17.09.47-38.714-1.71-78.683a825.75 825.75 0 01-1.255-46.544c.003-6.139.06-10.935.045-14.433l-.001-.092-.008-1.083v-.039l-.01-.614c-.002-.138-.003-.286-.006-.419-.003-.17-.008-.324-.013-.486-.004-.145-.006-.299-.011-.437-.003-.129-.01-.243-.014-.366-.006-.157-.011-.32-.018-.466l-.006-.099a24.387 24.387 0 00-.083-1.176l-.006-.088a14.547 14.547 0 00-.066-.539c-.39-2.645-.986-9.14-1.481-14.917 9.999-2.347 19.275-7.707 27.72-16.087 25.776-25.574 68.367-90.298 64.502-170.669-2.538-52.784-25.977-99.786-44.811-137.552-8.64-17.323-16.8-33.684-21.324-47.472-9.572-29.157-18.562-48.382-29.152-62.336-12.813-16.883-27.93-25.39-45.054-25.39-.946 0-1.9.025-2.856.077l28.296-253.96-415.46-573.339-298.235 229.361-3.584 30.995c-.494.026-.988.051-1.475.067-.678.023-1.324.067-1.952.125-.194.02-.378.043-.568.064a31.516 31.516 0 00-1.834.244c-.421.066-.833.136-1.235.212-.137.026-.272.051-.407.078-3.545.697-6.487 1.636-9.905 1.636-2.421 0-5.08-.472-8.36-1.832-4.163-1.727-5.874-2.429-6.695-2.429-1.203 0-.498 1.507-2.793 3.507-1.421 1.237-2.682 1.671-4.15 1.671-2.523 0-5.66-1.286-11.273-1.993a19.522 19.522 0 00-2.44-.158c-7.358 0-11.681 4.544-15.735 9.081-.96 1.073-1.647 1.495-2.136 1.495-1.796 0-.907-5.693-.907-5.693s-2.908 2.031-10.264 10.685c-2.534 2.982-3.905 3.964-4.881 3.964-1.858 0-2.29-3.559-6.593-3.68-.273-.01-.533-.012-.782-.012-5.72 0-5.294 2.14-17.684 10.581-12.93 8.81-15.892 18.386-20.111 25.474-4.22 7.09-5.75 7.123-11.161 9.645-.343.16-.672.337-.987.528-.018.011-.033.024-.051.035a10.92 10.92 0 00-.857.582c-3.977 2.997-5.556 8.344-7.028 10.857-.233.398-.408.568-.538.568-.806 0 .186-6.682.186-6.682s-1.75.037-4.685 5.787c-2.936 5.75-2.7 6.618-8.928 11.783-6.23 5.164-15.238 23.291-20.218 35.645-4.98 12.353-5.92 9.312-10.196 13.78-4.276 4.465-6.652 15.888-7.86 20.724-.294 1.181-.5 1.683-.662 1.683-.503 0-.6-4.794-1.684-9.066-.396-1.56-.573-2.259-.738-2.259-.432 0-.774 4.824-4.745 11.562-5.484 9.303-5.693 19.803-6.283 32.936-.59 13.133-6.224 15.442-8.191 25.543-1.967 10.102-3.602 15.386-8.591 27.302-4.99 11.917-7.08 31.424-7.315 35.692-.235 4.27-3.421 8.603-5.673 10.62-2.253 2.017-3.692 11.232-4.255 15.508-.122.92-.361 1.28-.662 1.28-1.1 0-3.023-4.808-3.023-4.808l-2.053 11.197c-2.053 11.196-3.471 6.308-5.545 16.521-2.074 10.212-.706 12.807-5.146 19.792-4.44 6.984-10.327 22.856-11.06 29.432-.731 6.576-2.375 11.422-4.494 14.53-2.12 3.107-4.115 11.897-3.992 17.58.032 1.434-.067 2.007-.255 2.007-.556 0-1.891-5.03-2.928-7.624-.358-.893-.531-1.327-.625-1.327-.272 0 .11 3.593-1.371 10.117-1.995 8.79-1.701 22.342-1.511 31.084.19 8.743-3.316 8.382-4.457 16.28-1.141 7.895 1.245 17.027.522 24.041-.722 7.012-4.105 32.452 1.045 48.084.099.301.194.604.29.907-5.032 29.152-7.63 51.74-8.861 64.52-6.684 69.41-1.211 179.08.849 220.366.378 7.574.65 13.047.699 15.246.088 4.047.55 8.04 1.04 12.268 1.41 12.171 3.008 25.966-4.31 46.105-2.041 5.623-4.33 10.825-6.541 15.856-9.364 21.293-18.208 41.404-3.744 80.385 2.449 6.601 4.05 26.12 5.905 48.721 3.095 37.728 7.606 92.552 20.539 151-.16.097-.313.192-.477.293-7.12 4.42-4.411 8.296-6.464 19.493-1.631 8.897-4.827 17.205-7.99 24.73v-.008h-.001c-.817 1.942-1.632 3.846-2.417 5.68-3.825 8.94-19.487 83.19-5.66 115.69 0 0-40.567-55.536-5.14-95.666 0 0-14.273 7.307-27.036 43.883-3.22 9.225-4.493 19.411-4.19 29.89-7.548 11.772-17.361 34.14-10.38 64.454 10.624 46.127 29.977 81.35 65.013 93.708 35.036 12.36 39.612 11.603 45.756 22.622 6.143 11.018 46.525 58.03 80.05 61.237 33.526 3.208 51.97 6.743 51.97 6.743s30.992 17.37 60.783 17.368c2.84 0 5.675-.158 8.465-.505 5.015-.622 9.953-.905 14.818-.905 26.237 0 50.25 8.247 71.448 16.087 18.943 7.006 50.009 23.066 85.35 23.066" fill="#fff"/></g><path d="M1416.427 1340.706l51.387 461.194-542.316 748.402-381.537-293.424-88.955-769.156z" fill="#fff"/><path d="M1416.427 1340.706l51.387 461.194-542.316 748.402-381.537-293.424-88.955-769.156z" fill="none" stroke="#1e1a4e" stroke-width="27.99993" stroke-miterlimit="10"/><g clip-path="url(#b)" transform="matrix(1.33333 0 0 -1.33333 -834.411 2907.151)"><g clip-path="url(#c)" opacity=".2"><path d="M1603.043 879.866s-68.858-166.01-162.306-270.252c-93.447-104.242-266.075-147.852-266.075-147.852l91.149-113.5-13.895 81.646 61.846-108.929 105.654 182.904-43.872-159.5-55.612-76.746-286.153 220.068-16.651 121.801z" fill="#1e1a4e"/></g></g><g clip-path="url(#d)" transform="matrix(1.33333 0 0 -1.33333 -834.411 2907.151)"><path d="M1589.59 1905.138s78.885-173.586 77.175-252.27c-1.71-78.683-13.596-172.89-13.596-172.89s28.622 19.059 51.243 33.656c22.62 14.596 50.459 27.768 76.146 2.28 25.686-25.485 65-88.004 61.409-162.71-3.591-74.706-50.871-137.311-65.624-182.254-14.753-44.945-34.61-86.498-72.22-79.776-37.608 6.72-44.763 9.5-58.148 27.504-13.385 18.003-31.075 49.219-30.832 30.189.242-19.03-190.295-430.232-403.84-476.758-213.546-46.526-335.083 1.685-393.831 115.795-58.747 114.108-85.661 244.144-93.511 325.66-7.85 81.514 1.27 219.514 1.593 234.376.323 14.863 6.832 32.652-3.897 62.187-10.73 29.534-26.57 45.185-10.311 89.003s-11.361 403.032 252.854 486.508c264.215 83.476 536.728 5.395 625.39-80.5" fill="#fff"/><path d="M1589.59 1905.138s78.885-173.586 77.175-252.27c-1.71-78.683-13.596-172.89-13.596-172.89s28.622 19.059 51.243 33.656c22.62 14.596 50.459 27.768 76.146 2.28 25.686-25.485 65-88.004 61.409-162.71-3.591-74.706-50.871-137.311-65.624-182.254-14.753-44.945-34.61-86.498-72.22-79.776-37.608 6.72-44.763 9.5-58.148 27.504-13.385 18.003-31.075 49.219-30.832 30.189.242-19.03-190.295-430.232-403.84-476.758-213.546-46.526-335.083 1.685-393.831 115.795-58.747 114.108-85.661 244.144-93.511 325.66-7.85 81.514 1.27 219.514 1.593 234.376.323 14.863 6.832 32.652-3.897 62.187-10.73 29.534-26.57 45.185-10.311 89.003s-11.361 403.032 252.854 486.508c264.215 83.476 536.728 5.395 625.39-80.5z" fill="none" stroke="#1e1a4e" stroke-width="21" stroke-miterlimit="10"/><g clip-path="url(#e)" opacity=".15"><path d="M889.656 1461.233s21.04-20.905 31.53-36.21c10.493-15.305 12.175-28.461 9.232-43.158-2.944-14.696-16.463-63.274-18.95-72.076-2.487-8.802-9.26-31.287-17.451-47.181-8.192-15.894-10.421-49.302-4.388-62.881 6.032-13.58 16.124-17.078 26.437-25.502 10.314-8.425 36.014-18.163 46.159-4.117 10.145 14.045 29.839 26.737 50.93 25.294 21.093-1.441 46.439-12.376 55.179-2.618 8.74 9.758 8.533 30.427-.74 41.452-9.271 11.026-22.92 31.986-29.677 22.949-6.756-9.037-19.58-15.32-21.635-16.913-2.055-1.596 11.75 29.92 12.313 40.732.563 10.812.805 52.159 8.164 28.535 7.358-23.624 33.877-43.553 43.357-51.303 9.48-7.75 58.566-62.605 82.47-92.482 23.904-29.877 48.436-48.122 48.023-67.138-.413-19.014-3.458 6.895-23.702 26.23-20.244 19.334-67.954 72.85-67.954 72.85s3.467-36.704-17.78-48.432c-21.247-11.728-28.045-17.656-50.9-12.81-22.855 4.847-49.434 19.419-60.733 12.667-11.3-6.752-11.836-21.39-31.093-22.066-19.257-.675-24.553 7.202-30.298 4.43-5.746-2.772-8.55-.974-17.525-1.43-8.975-.453-13.574-.791-25.211 7.115-11.636 7.906-13.052 13.185-13.603 7.949-.551-5.236-22.773-31.65-30.717-55.093-7.944-23.443-7.982-25.192-7.878-20.383.105 4.808-2.286 20.595 12.113 49.26s18.814 35.6 14.88 50.867c-3.931 15.265-7.744 36.012 6.039 66.545 13.784 30.533 21.097 43.822 25.462 59.143 4.364 15.32 11.798 40.416 14.285 49.218 2.487 8.802 6.966 10.673-3.898 5.332-10.862-5.34-14.554-9.188-14.173-6.74.38 2.448 2.548 11.585-1.443 9.048-3.991-2.538-39.463-34.895-82.133-36.264-42.67-1.37 14.515 3.803 34.54 19.677 20.025 15.874 42.297 29.494 32.169 31.354-10.127 1.86-21.9 7.608-25.207 6.902-3.31-.706 8.986 1.323 13.37 1.883 4.387.56 9.28-.64 16.31.848 7.03 1.488 20.284 7.65 16.942 9.8-3.343 2.15-44.22 19.518-64.601 20.865-20.381 1.349-29.46-.2-29.46-.2s17.98 5.26 11.424 5.403c-6.557.143-10.386.336-20.495.39-10.11.056-30.564-9.11-30.564-9.11s23.425 15.006 43.88 20.466c20.454 5.459 41.043 7.855 29.145 13.36-11.898 5.507-28.105 10.736-28.105 10.736s37.196-3.86 54.679-5.846c17.483-1.985 43.17.116 31.282 18.653" fill="#1e1a4e"/></g><g clip-path="url(#f)" opacity=".15"><path d="M1041.6 1462.2s15.256-23.411 13.662-46.16c-1.595-22.748-4.056-45.398 3.397-34.536 7.452 10.862 29.147 28.102 26.93 16.67-2.217-11.432.243-34.117 11.96-38.308 11.717-4.19 33.169 1.904 49.405-5.665 16.235-7.57 19.4-12.886 15.965-4.94-3.436 7.948-5.34 10.94-4.362 10.592.976-.35 83.162-27.063 125.876-13.56 42.715 13.505-26.712-1.606-59.668 11.356-32.956 12.96-32.028 15.384-44.584 21.215-12.557 5.829-17.084 8.77-12.257 9.54 4.827.77 17.803 4.205 22.63 4.975 4.828.77 8.179 1.932 8.179 1.932s-24.457 3.67-34.511 3.888c-10.054.219-34.081 1.397-25.263 4.704 8.819 3.307 36.409 25.284 57.704 29.049 21.294 3.766 31.552 3.223 31.552 3.223s-30.125 2.086-36.901 2.233c-6.775.147-10.058 0-1.706 2.005 8.353 2.005 52.855 6.808 67.056 6.457l14.203-.35s-44.217 7.958-73.908 10.134c-29.692 2.175-53.815-1.018-42.525 5.297 11.289 6.314 25.102 13.922 30.537 16.61 5.435 2.69 15.348 8.45 15.348 8.45s-55.81-11.863-100.93-22.333c-45.121-10.472-57.186-14.752-57.788-2.478" fill="#1e1a4e"/></g><g clip-path="url(#g)" opacity=".15"><path d="M725.554 1347.94c-.323-14.862-9.444-152.862-1.594-234.376 7.442-77.267 32.031-198.121 84.604-307.691 10 28.184 13.252 55.46-1.537 79.682-40.654 66.585-52.833 219.834-52.944 302.364-.11 82.53-5.32 199.877-12.32 230.853-7 30.977-3.21 75.83 11.841 128.858 15.052 53.028 61.904 357.598 181.49 336.304 50.608-9.012 11.46 30.942-60.606 55.91-168-126.556-149.018-402.648-163.142-440.715-16.259-43.817-.418-59.468 10.311-89.002 10.73-29.535 4.22-47.324 3.897-62.187M1704.124 1091.174c37.608-6.722 57.466 34.83 72.219 79.775 14.753 44.944 62.033 107.549 65.624 182.255 3.592 74.706-35.723 137.225-61.409 162.71-25.687 25.488-53.525 12.316-76.146-2.281-22.621-14.596-51.243-33.654-51.243-33.654s11.887 94.206 13.596 172.889c1.71 78.683-77.175 252.27-77.175 252.27-50.463 48.888-160.496 95.227-294.645 110.706-13.31-17.307-25.626-37.755-36.759-61.676-3.368-7.234 225.224-79.907 187.684-177.37-37.54-97.464-30.526-136.975-.038-182.9 30.489-45.923 92.684-172.318 74.737-273.727-17.946-101.41-21.966-105.29-76.762-181.815-52.459-73.262 26.952-218.84-49.802-344.995 128.597 138.037 221.306 342.229 221.138 355.506-.244 19.03 17.447-12.186 30.832-30.19 13.384-18.002 20.54-20.782 58.149-27.503" fill="#1e1a4e"/></g><path d="M713.582 1429.534s-4.826 15.86 21.181 20.215 49.783 1.656 91.305-4.495c41.524-6.15 78.646-10.012 65.335 12.9-17.44 30.018-16.742 49.673-59.961 48.207-32.853-1.115-63.818-3.534-86.703-.085-22.885 3.449-31.534.11-31.534.11s-30.041-39.138.378-76.852M1387.965 1461.687s-40.05 28.641-116.105 30.512c-70.205 1.727-103.516-14.106-157.046-25.451-58.39-12.376-77.166-21.927-72.61 2.889 7.442 40.51 6.522 58.571 59.768 63.646 52.178 4.973 93.686 9.444 112.815 14.277 19.129 4.832 72.803 10.46 104.51-5.661 31.22-15.873 57.439-28.362 71.766-48.354 14.325-19.991 55.487-67.899-3.098-31.858M1177.288 1396.728s-8.947.85-25.624-1.849c-16.677-2.698-24.355-3.843-29.834-4.38-5.479-.538-13.532 1.167-4.647 7.535 8.885 6.367 19.84 14.001 28.536 18.404 8.695 4.403 29.393 21.01 67.646 20.397 38.254-.613 82.922-10.439 99.802-18.514 16.881-8.074 18.848-8.116 13.09-8.975-5.759-.86-10.474 1.046-10.182-.6.292-1.646 3.546-2.865.763-2.64-2.783.224-1.169-.96-9.184.035-8.013.994-10.266 3.011-8.834 1.012 1.433-2 5.361-2.413.45-1.978-4.91.434-7.18 1.632-7.705.167-.524-1.465-2.177-2.084-5.114-1.364-2.935.72-7.689.822-12.465-.058-4.775-.88-16.606-1.935-20.213-1.857-3.606.08 9.316 3.515 14.504 5.808 5.19 2.293 8.15 2.666 3.816 4.51-4.333 1.843-1.958.48-5.635 2.308-3.678 1.83-5.488 4.056-6.719 2.77-1.23-1.285 1.352-3.2-2.65-1.254-4.004 1.945-6.822 3.1-6.822 3.1s2.171-10.762-2.259-18.429c0 0-22.759-10.876-60.875-3.925 0 0-8.083 7.884-9.067 22.993 0 0-9.963-3.118-16.092-8.45-6.129-5.335-8.528-5.064-4.518-6.682 4.01-1.618 3.627-4.124 6.274-3.088 2.646 1.036 4.067 1.004 5.685-.015 1.618-1.019 17.252-6.06 7.873-4.98M864.015 1375.108s7.55.328 19.999-.435c12.447-.762 34.844 3.508 24.478 9.473-10.367 5.965-24.543 10.209-34.631 13.872-10.09 3.663-36.4 15.55-68.82 10.352-32.421-5.2-43.461-15.128-50.645-28.748-7.184-13.62-5.77-8.895 2.424-9.237 8.193-.342 19.044-6.646 28.737-5.872 9.692.773-2.588 1.696-8.386 6.578-5.798 4.882-5.352 2.74-3.784 6.97 1.567 4.23 3.025 10.922 12.126 14.66 0 0-.832-15.07 9.997-26.457 0 0 16.256-.626 25.925 1.569s17.167 5.094 30.224 7.215c0 0 4.466 12.978.482 22.185 0 0 7.856-.718 14.672-4.036 6.816-3.32 18.758-7.23 17.677-7.91-1.08-.678-3.233-5.387-5.601-4.926-2.368.46-3.314 2.204-5.821.044-2.507-2.16-18.63-4.515-9.053-5.297M965.479 1138.71s-11.396-11.232-34.573 8.952c-23.178 20.184-31.79 26.384-32.655 16.781-.864-9.602-.151-17.052 5.47-20.017 5.62-2.965 13.688-4.015 17.446-2.129 3.759 1.887 7.869-.171 11.527-2.874 3.659-2.704 17.664-12.302 26.72-8.125 9.056 4.177 12.304 12.744 6.065 7.412M977.25 1167.227s10.825 15.164 32.91 15.12c22.085-.041 44.093-18.67 38.805-20.522-5.287-1.853-15.878-6.215-24.848-3.888-8.97 2.327-20.401 4.543-28.006 1.757-7.604-2.787-27.571-8.443-18.86 7.533" fill="#1e1a4e"/><path d="M915.308 1131.765c-6.526-1.155-13.324-.29-19.767 1.767-6.412 2.175-12.492 5.872-17.316 10.923-1.17 1.287-2.285 2.632-3.408 3.967-.978 1.437-1.98 2.882-2.926 4.329l-2.462 4.326c-.824 1.439-1.496 2.978-2.25 4.464-2.871 6.027-5.194 12.412-6.561 19.062-1.393 6.646-1.701 13.498-1.242 20.22l.2 2.522c.058.842.129 1.68.283 2.506l.797 4.972c.304 1.646.736 3.257 1.1 4.887l.572 2.437.718 2.385c3.782 12.749 9.432 24.67 15.846 36.005l.063.113.066.1c1.926 2.959 3.807 6.229 5.57 9.444 1.783 3.235 3.437 6.548 5.03 9.886a225.283 225.283 0 018.538 20.496c1.248 3.484 2.424 6.995 3.474 10.54l1.623 5.408a368.289 368.289 0 001.718 5.42c2.34 7.19 4.804 14.277 7.186 21.367 2.38 7.09 4.61 14.203 6.55 21.376 1.935 7.165 3.634 14.392 4.607 21.695.28 1.823.428 3.652.624 5.48.107 1.828.283 3.66.284 5.487.077 1.833-.013 3.65-.03 5.478-.113 1.814-.193 3.64-.447 5.438-.755 7.247-2.907 14.274-6.713 20.849 5.512-5.248 9.03-12.663 10.434-20.261a60.19 60.19 0 001.1-11.53c.06-1.93-.057-3.845-.11-5.768-.14-1.911-.235-3.832-.463-5.73-.771-7.623-2.26-15.11-4.024-22.496-1.847-7.364-3.982-14.63-6.251-21.821-2.24-7.201-4.676-14.316-6.925-21.428l-1.641-5.331-1.572-5.396c-1.052-3.663-2.233-7.286-3.488-10.882a231.388 231.388 0 00-8.607-21.155 225.056 225.056 0 00-5.087-10.24c-1.8-3.394-3.606-6.675-5.726-10.045l.13.213c-6.082-11.13-11.317-22.716-14.622-34.722l-.635-2.246-.485-2.271c-.307-1.514-.687-3.02-.938-4.54l-.645-4.57a19.612 19.612 0 01-.235-2.285l-.16-2.29-.16-2.288.025-2.286c.045-1.521-.055-3.052.144-4.562.156-1.512.22-3.033.417-4.54l.742-4.5c1.245-5.955 3.208-11.78 5.767-17.406.679-1.392 1.265-2.822 2.017-4.187l2.18-4.133 2.357-3.744c.919-1.145 1.819-2.313 2.769-3.44 3.996-4.343 8.894-7.843 14.292-10.724 5.44-2.832 11.34-5.043 17.673-6.745M1045.544 1140.251c6.63-.941 13.216-.521 19.413.937 6.19 1.512 11.974 4.066 17.118 7.543.645.433 1.304.837 1.934 1.288l1.817 1.465 1.823 1.439c.603.486 1.14 1.064 1.711 1.589 2.287 2.109 4.46 4.327 6.368 6.732 3.815 4.796 6.773 10.132 8.504 15.851.893 2.85 1.435 5.805 1.694 8.796.294 2.991.25 6.027-.012 9.071-.584 6.092-2.194 12.179-4.479 18.108-1.124 2.975-2.483 5.882-3.887 8.789-1.477 2.871-2.997 5.75-4.689 8.551-3.287 5.672-7.067 11.107-10.882 16.634 5.303-4.13 10.096-8.883 14.548-14.01 2.224-2.565 4.266-5.3 6.224-8.113.935-1.437 1.91-2.854 2.758-4.356.434-.745.884-1.482 1.306-2.238l1.21-2.301c3.166-6.173 5.49-12.927 6.54-20.031.494-3.555.625-7.185.404-10.816-.26-3.626-.89-7.251-1.952-10.751a50.867 50.867 0 00-4.35-10.012c-1.825-3.137-3.918-6.098-6.296-8.774-1.212-1.315-2.425-2.624-3.726-3.829l-.963-.918-1.026-.845-2.056-1.679c-.695-.547-1.347-1.139-2.076-1.644l-2.214-1.478-2.222-1.45c-.768-.444-1.567-.841-2.347-1.26-6.256-3.327-13.198-5.344-20.148-5.79-6.936-.309-13.94.596-20.047 3.502M1341.202 1422.906c-4.764 1.204-9.342 2.64-13.887 4.174-2.285.733-4.529 1.562-6.793 2.338-2.273.749-4.52 1.57-6.813 2.26-9.12 2.892-18.333 5.482-27.656 7.557-2.319.575-4.666 1.009-7.007 1.472-2.346.442-4.672.983-7.032 1.33l-7.059 1.164c-2.36.324-4.73.59-7.094.888l-3.549.427-3.56.275c-2.374.17-4.746.398-7.122.52-4.764.1-9.486.352-14.305.245-9.6-.067-19.184-.4-28.712-1.102-9.524-.718-19.003-1.808-28.287-3.626-9.282-1.806-18.378-4.377-26.909-8.235-2.117-.994-4.256-1.954-6.287-3.115l-3.118-1.632a148.812 148.812 0 00-3.044-1.782c-2.102-1.1-4.019-2.477-6.102-3.681-1.052-.593-2.023-1.292-3.036-1.954-1.026-.647-2.054-1.304-3.14-1.916 5.458 8.219 13.573 14.507 22.455 18.857 8.866 4.47 18.412 7.39 28.028 9.292 9.633 1.922 19.365 2.84 29.062 3.414 9.702.563 19.396.782 29.068.726 4.82.093 9.726-.174 14.596-.294 2.434-.134 4.861-.373 7.291-.554l3.645-.294 3.625-.445c2.416-.312 4.836-.592 7.246-.931l7.2-1.21c2.408-.361 4.778-.91 7.16-1.407 2.377-.51 4.762-.987 7.114-1.608 9.466-2.221 18.772-5.065 27.896-8.378 4.555-1.673 9.102-3.377 13.52-5.392 4.385-2.081 8.694-4.388 12.606-7.383M871.474 978.72c2.857.767 5.664 1.196 8.455 1.526 2.791.323 5.56.498 8.312.578 5.508.192 10.942-.16 16.334-.541l7.96-.634.958-.08.855-.05a26.19 26.19 0 011.59-.05c1.055.004 2.231.064 3.434.187 4.881.465 10.328 1.529 15.76 2.658 5.447 1.192 11.071 2.269 16.845 2.82 5.768.574 11.695.623 17.586-.093l4.125-.535c1.316-.182 2.63-.334 3.942-.472 1.313-.161 2.626-.271 3.933-.401a106.39 106.39 0 013.918-.342c5.216-.398 10.392-.603 15.531-.44 5.144.137 10.248.708 15.405 1.515 2.554.415 5.263.858 7.662 1.385l7.886 1.8c10.717 2.378 21.621 4.523 32.615 6.07 5.501.768 11.03 1.415 16.59 1.816 5.554.443 11.153.533 16.743.206 11.15-.701 22.393-2.585 32.68-7.027-11.146-.321-21.807-1.028-32.443-2.275l-15.89-1.876a326.07 326.07 0 01-15.844-2.395c-10.545-1.875-20.977-4.316-31.46-7.04-2.639-.656-5.26-1.318-8.028-1.966-2.918-.682-5.586-1.152-8.406-1.655-5.604-.933-11.364-1.524-17.123-1.68-5.76-.192-11.498.109-17.133.738-1.41.156-2.817.328-4.212.534a88.928 88.928 0 00-4.176.66c-1.387.235-2.77.48-4.14.757l-3.95.76c-4.894.903-9.93 1.249-15.036 1.043-5.107-.216-10.26-.965-15.473-2.04-2.606-.558-5.212-1.262-7.88-1.973-2.678-.727-5.399-1.485-8.375-2.04-1.494-.256-3.03-.511-4.702-.587-.836-.031-1.719-.054-2.496.003l-1.186.066-1.079.089c-2.864.258-5.58.615-8.308 1.047-5.439.87-10.822 1.89-16.126 3.487a88.996 88.996 0 00-7.902 2.719c-2.612 1.055-5.208 2.217-7.75 3.728M742.037 1381.913c-.396 1.792-.207 3.653.17 5.438a19.458 19.458 0 002.003 5.1c.478.776.928 1.584 1.473 2.316l1.66 2.188c1.238 1.334 2.435 2.733 3.844 3.887 1.323 1.27 2.82 2.29 4.29 3.363.72.567 1.523.98 2.295 1.453l2.343 1.377c1.619.788 3.262 1.527 4.898 2.29l5.055 1.845c3.417 1.025 6.887 1.996 10.313 2.637 3.429.765 6.89 1.311 10.342 1.932 6.923 1.09 13.875 1.97 20.853 2.574 6.98.563 13.977.99 20.987 1.03 7.007.108 14.029-.105 21.026-.689a171.005 171.005 0 0020.874-2.969c1.72-.385 3.43-.815 5.144-1.22.856-.21 1.714-.4 2.558-.66.84-.278 1.68-.55 2.512-.855 3.342-1.124 6.543-2.773 9.48-4.84-1.834.04-3.584.232-5.298.498-1.701.3-3.442.446-5.123.768-3.357.656-6.733 1.242-10.096 1.838-3.403.424-6.772 1.001-10.194 1.275-1.708.144-3.401.4-5.114.51l-5.13.378c-13.692.831-27.48.767-41.2-.29-6.86-.522-13.695-1.314-20.497-2.31-6.771-1.072-13.602-2.33-20.056-4.073l-4.782-1.567-4.602-1.969-2.204-1.159c-.73-.395-1.501-.733-2.172-1.214-1.382-.903-2.814-1.758-4.058-2.84-1.343-.976-2.467-2.173-3.66-3.313l-1.591-1.879c-.534-.627-.943-1.337-1.446-1.99-.497-.659-.87-1.386-1.347-2.067-.44-.698-.831-1.426-1.276-2.143-.79-1.477-1.564-2.98-2.274-4.65" fill="#1f1a4d"/><g clip-path="url(#h)" opacity=".2"><path d="M894.354 993.639s48.397 24.92 77.318 17.454c32.567-8.41 30.94-5.1 50.094.88 19.154 5.979 63.963.14 80.94-3.51 16.977-3.647 70.307-9.838 70.307-9.838s-34.231-24.811-50.443-42.09c-17.796-18.963-32.265-32.066-95.796-33.672-57.64-1.458-86.322-10.148-106.737 3.197-22.505 14.71-22.028 36.012-39.568 43.937-17.54 7.925-22.077 17.536 13.885 23.642" fill="#1e1a4e"/></g><g clip-path="url(#i)" opacity=".3"><path d="M1173.012 998.625s-53.33 6.19-70.307 9.839c-16.977 3.649-61.786 9.488-80.94 3.509-19.154-5.981-17.526-9.289-50.094-.88-28.92 7.467-77.318-17.454-77.318-17.454-35.962-6.107-31.424-15.717-13.884-23.642 17.54-7.926 17.063-29.226 39.567-43.937 10.465-6.841 23.116-7.887 40.713-7.089-.094.025-28.278 7.611-43.797 24.321-15.544 16.737-8.388 13.958.331 15.245 8.721 1.286 41.563 8.28 55.98 5.016 14.415-3.266 35.37-4.964 55.047 2.446 19.678 7.41 55.181 8.552 68.533 9.137 13.351.584 26.18 7.302 21.666.841-4.51-6.457-21.058-45.43-71.854-52.117 46.966 3.683 60.15 15.875 75.914 32.676 16.212 17.277 50.443 42.089 50.443 42.089" fill="#1e1a4e"/></g><g clip-path="url(#j)" opacity=".3"><path d="M1767.258 1249.734s27.306 45.271 26.678 76.758c-.628 31.486-20.48 53.784-29.845 65.577-9.365 11.793-17.651 22.907-17.651 22.907s6.77-20.484 9.602-31.04c2.832-10.559 4.757-12.569-3.18-5.399-7.933 7.17-16.842 9.77-23.09 14.06-6.248 4.29-10.876 12.7-11.208 7.46-.333-5.242-15.711-18.574-5.562-34.539 10.15-15.965 19.126-40.592 19.126-40.592s-12.59 9.29-20.686 14.058c-8.097 4.768-13.556 10.134-5.965-2.823 7.59-12.957 17.333-32.52 11.425-47.808-5.91-15.288-7.248-16.57-.92-12.117 6.329 4.455 42.164 38.445 35.614 69.091-6.551 30.647-4.356 26.007 1.675 16.692 6.029-9.315 17.97-32.198 10.007-52.698-7.965-20.5-18.457-33.728-24.794-39.096-6.336-5.368-31.06-22.446-38.86-28.929-7.8-6.485-23.975-19.99-33.158-14.847-9.182 5.142-6.078 15.08-.996 24.85 5.08 9.77 16.105 29.31 12.727 43.498-3.377 14.188-7.375 34.37-7.375 34.37l8.824-19.45s-4.022 10.171-.841 20.93c3.18 10.756 16.259 45.478 19.637 64.623 3.378 19.144 18.49 67.942 25.023 78.114 6.534 10.173 19.024 31.856 40.525 14.836 21.5-17.02 45.056-54.669 45.89-76.459.837-21.789-2.093-42.929-3.135-46.743-1.043-3.813-4.3-12.688-3.775-15.484.525-2.795 7.72-69.606-35.712-99.8" fill="#1e1a4e"/></g><path d="M1743.42 1215.616c.167 1.196.537 2.352.894 3.503.375 1.145.766 2.29 1.196 3.418a85.478 85.478 0 002.876 6.653 101.18 101.18 0 007.239 12.667c2.748 4.057 5.812 7.961 9.327 11.56 1.929 1.947 3.135 3.17 4.554 4.921 1.375 1.687 2.666 3.521 3.947 5.365 5.059 7.466 9.387 15.594 13.083 23.892.92 2.08 1.788 4.177 2.65 6.277.804 2.12 1.63 4.23 2.334 6.377 1.472 4.27 2.808 8.581 3.78 12.948 1.019 4.35 1.89 8.734 2.307 13.128.482 4.385.68 8.784.479 13.134-.205 4.35-.815 8.643-1.758 12.862a69.05 69.05 0 01-4.345 12.201c-1.061 1.911-1.953 3.803-3.228 5.906-1.19 2.056-2.392 4.104-3.553 6.178a812.102 812.102 0 00-6.946 12.461c-4.533 8.373-8.978 16.803-13.02 25.5 6.429-7.117 12.455-14.5 18.395-21.94a812.54 812.54 0 008.76-11.26c1.456-1.88 2.873-3.785 4.3-5.683 1.414-1.805 2.893-4.025 4.309-6.155a68.657 68.657 0 006.455-14.056c1.57-4.93 2.506-10.026 3.04-15.13.5-5.114.375-10.223.005-15.276-.413-5.059-1.338-10.013-2.441-14.898-2.346-9.74-5.861-19.077-10.308-27.89-2.238-4.402-4.643-8.71-7.338-12.846a113.87 113.87 0 00-8.794-11.972 73.391 73.391 0 00-5.152-5.56c-.44-.455-.95-.89-1.426-1.333-.476-.442-.966-.88-1.51-1.309-1.13-.936-1.93-1.517-2.83-2.216-3.522-2.757-6.885-5.866-10.075-9.199-3.205-3.326-6.236-6.878-9.148-10.567-1.445-1.85-2.871-3.73-4.228-5.666-1.381-1.927-2.72-3.878-3.83-5.995" fill="#1f1a4d"/><g><path d="M1802.478 1351.688a119.778 119.778 0 012.626 11.032 139.985 139.985 0 011.76 11.122c.41 3.721.758 7.432.916 11.145a119.61 119.61 0 01-.066 11.094c-.708 14.684-4.232 29.096-11.478 41.289-7.624 12.604-15.91 25.28-25.455 35.937-2.42 2.622-4.903 5.126-7.5 7.327-2.593 2.196-5.313 4.093-8.026 5.39-2.717 1.343-5.34 1.932-7.715 1.794-.303.017-.594-.045-.886-.098-.292-.054-.587-.079-.879-.138a20.414 20.414 0 00-.865-.259l-.437-.117-.428-.192-.866-.361c-.287-.138-.567-.329-.854-.484-.58-.281-1.14-.713-1.705-1.122-2.287-1.674-4.392-4.014-6.388-6.757a76.059 76.059 0 01-5.535-8.872c-3.427-6.244-6.294-12.98-8.91-19.859-5.237-13.782-9.357-28.193-13.349-42.698-1.989-7.26-3.908-14.565-5.952-21.898-1.042-3.669-2.06-7.342-3.296-11.054a200.572 200.572 0 00-4.062-10.83c-2.918-7.076-6.003-13.994-8.96-20.923-1.48-3.465-2.9-6.947-4.09-10.501-1.228-3.545-2.223-7.171-2.6-10.957-.39 3.795.07 7.662.678 11.445.663 3.785 1.598 7.503 2.573 11.193 1.967 7.382 4.332 14.588 6.309 21.834 1.019 3.6 2.018 7.24 2.834 10.796.805 3.575 1.525 7.268 2.22 10.964 1.4 7.404 2.778 14.871 4.316 22.328 3.058 14.919 6.636 29.838 11.682 44.538 2.529 7.349 5.496 14.621 9.186 21.739a86.93 86.93 0 006.399 10.415c2.433 3.369 5.34 6.823 9.158 9.647.968.698 1.933 1.393 3.044 1.969.545.296 1.069.611 1.634.878l1.752.738.88.355.928.274 1.865.514c.633.131 1.279.216 1.92.315.643.099 1.285.193 1.932.192l1.935.045c.642-.008 1.269-.09 1.902-.14 1.286-.075 2.474-.376 3.692-.623 1.185-.293 2.326-.674 3.45-1.065 1.064-.458 2.198-.863 3.18-1.409 4.075-2.064 7.523-4.657 10.647-7.403 3.118-2.758 5.92-5.694 8.512-8.739 5.147-6.106 9.639-12.509 13.746-19.081 2.04-3.291 4.04-6.592 5.928-9.945l2.79-5.045c.905-1.71 1.817-3.318 2.713-5.178 1.878-3.572 3.287-7.357 4.6-11.134 1.217-3.816 2.239-7.677 2.924-11.588 1.408-7.813 1.782-15.717 1.314-23.492-.524-7.776-1.732-15.44-3.706-22.871-1.973-7.421-4.49-14.686-7.936-21.476" fill="#1f1a4d"/></g><g><path d="M1668.736 1341.005c3.5-11.911 6.593-23.963 10.21-35.613l.696-2.153.73-2.09c.26-.8.536-1.6.781-2.41.212-.816.456-1.63.64-2.457.76-3.304 1.084-6.707 1.077-10.096-.027-6.792-1.526-13.487-3.913-19.713-.62-1.547-1.26-3.09-1.975-4.588-.698-1.525-1.38-2.868-2.062-4.272-1.362-2.771-2.724-5.468-3.936-8.162-1.223-2.683-2.306-5.37-3.144-7.943-.84-2.546-1.32-5.128-1.175-6.796.064-.83.287-1.262.407-1.428.132-.162.252-.304.824-.566.55-.243 1.492-.486 2.46-.602a13.02 13.02 0 012.953.093c1.017.164 2.086.452 3.18.837 1.094.39 2.22.933 3.35 1.522 2.266 1.235 4.555 2.793 6.833 4.55 4.6 3.463 9.127 7.589 14.13 11.634 2.536 2.003 5.172 4.015 8.193 5.852l3.973 2.365 3.792 2.354c10.04 6.41 19.52 13.76 27.737 22.214 8.205 8.43 15.072 18.2 18.555 29.35a49.84 49.84 0 012.26 17.429c-.14 1.482-.17 2.999-.4 4.488-.268 1.48-.44 2.999-.789 4.479-.368 1.475-.672 2.987-1.102 4.465a237.173 237.173 0 00-1.415 4.424 200.99 200.99 0 002.364-4.038c.735-1.381 1.355-2.822 2.043-4.25.364-.708.57-1.47.85-2.211l.794-2.247c.516-1.507.832-3.072 1.258-4.625.36-1.563.564-3.162.824-4.762.152-1.605.247-3.226.343-4.854-.037-1.62-.02-3.262-.154-4.888l-.254-2.44-.129-1.225-.214-1.207c-1.105-6.466-3.34-12.727-6.32-18.542-2.964-5.837-6.697-11.211-10.808-16.201a123.633 123.633 0 00-13.44-13.865c-4.78-4.29-9.865-8.19-15.113-11.854a133.998 133.998 0 00-3.99-2.674l-3.929-2.476c-2.228-1.428-4.48-3.216-6.742-5.101-4.57-3.766-9.147-8.021-14.388-12.037-2.633-1.99-5.464-3.921-8.64-5.615-3.187-1.664-6.798-3.123-10.897-3.665a25.778 25.778 0 00-6.287 0c-2.088.312-4.178.812-6.422 1.893-2.212 1.053-4.573 2.959-6.032 5.453-1.494 2.478-1.987 5.15-2.057 7.394-.064 2.275.243 4.272.653 6.125a39.843 39.843 0 001.561 5.188c1.193 3.263 2.656 6.22 4.152 9.08 1.502 2.857 3.064 5.604 4.625 8.276.77 1.323 1.587 2.68 2.267 3.92.713 1.24 1.351 2.513 1.982 3.79 2.456 5.126 4.171 10.557 4.792 16.118.317 2.779.317 5.582.038 8.367-.066.698-.187 1.386-.275 2.085l-.397 2.07-.514 2.373-.435 2.34c-1.058 6.218-1.847 12.369-2.473 18.559-.313 3.093-.61 6.183-.88 9.277-.223 3.1-.484 6.193-.626 9.302" fill="#1f1a4d"/></g><g><path d="M1707.718 1431.782c1.08-.47 1.898-.897 2.807-1.36a79.47 79.47 0 002.598-1.415 90.422 90.422 0 005.008-3.036 90.42 90.42 0 009.315-6.935 67.47 67.47 0 008.032-8.25 45.308 45.308 0 005.85-9.652 43.824 43.824 0 01-7.902 7.53 63.027 63.027 0 01-9.233 5.447 82.92 82.92 0 01-9.902 3.882 80.714 80.714 0 01-5.072 1.451 70.39 70.39 0 01-2.537.598c-.818.172-1.733.362-2.406.448z" fill="#1f1a4d"/></g><g><g clip-path="url(#k)" opacity=".35"><path d="M875.598 1153.675s12.645-7.055 19.34-8.348c6.697-1.294.689 8.654 3.09 16.012 2.402 7.357 15.758-3.793 23.149-9.693 7.39-5.902 18.322-16.015 29.774-17.354 11.452-1.34 17.156 4.592 19.828 14.34 2.672 9.749 4.09 17.695 9.722 22.173 5.633 4.477 49.312 5.212 57.629.549 8.318-4.663 11.516-7.454 9.864-8.961-1.652-1.508-5.735-2.281-5.735-2.281s9.812-6.336 18.837-8.61c9.025-2.273 25.228-1.313 25.228-1.313s-17.858-13.244-28.9-11.721c-11.04 1.524-18.536 2.365-15.65 4.38 2.887 2.014 8.393 3.82 3.262 4.172-5.131.35-19.231 5.577-19.231 5.577s-16.604 5.71-27.478 3.435c-10.873-2.273-16.01-2.162-20.411-8.517-4.402-6.355-7.576-19.078-24.781-18.376-17.205.702-24.001 12.486-29.957 10.077-5.956-2.41-11.99-.802-8.601-3.336 3.389-2.533 7.438-4.922 7.438-4.922s-14.784.24-26.75 6.819c-11.963 6.576-19.667 15.898-19.667 15.898" fill="#1e1a4e"/></g></g><g><g clip-path="url(#l)"><g clip-path="url(#m)" opacity=".45"><path d="M1195.725 1418.885s-1.367-10.086 1.115-9.073 3.273-.312 6.883-.228c3.61.083 7.337-1.968 9.181-.121 1.845 1.847 5.041 5.55 4.998 3.582l-.207-9.507s7.299 3.777 11.065 3.531c3.767-.245 9.316-1.514 10.028 1.095.713 2.608.837 8.305.837 8.305l-7.837 1.632 1.819 1.655s-10.841-1.732-18.011.391c-7.169 2.124-20.606 2.635-19.871-1.262" fill="url(#n)"/></g></g></g><g><g clip-path="url(#o)"><g clip-path="url(#p)" opacity=".45"><path d="M796.212 1393.102s-1.367-10.085 1.115-9.072c2.482 1.012 3.274-.312 6.883-.229 3.61.084 7.338-1.968 9.182-.12 1.844 1.846 5.041 5.549 4.998 3.582l-.207-9.508s7.298 3.778 11.065 3.532c3.767-.246 9.315-1.515 10.028 1.094.712 2.609.836 8.305.836 8.305l-7.837 1.632 1.819 1.656s-10.84-1.733-18.01.391c-7.17 2.124-20.607 2.635-19.872-1.263" fill="url(#q)"/></g></g></g></g><g clip-path="url(#r)" transform="matrix(1.33333 0 0 -1.33333 -834.411 2907.151)"><path d="M1235.748 881.917c-6.279-2.159-11.068 3.849-10.698-9.279.371-13.128 8.047-22.152-.719-18.025-8.767 4.126-12.409 17.654-10.413 3.834 1.996-13.819 6.465-19.492-.505-23.277-6.97-3.784-7.976-4.746-10.449-12.893-2.473-8.146-5.98 11.61-8.253-2.445-2.274-14.055-7.776-10.654-7.968-19.507-.192-8.851 5.645-11.93-3.742-6.15-9.386 5.78-8.937 11.346-11.702 4.846-2.765-6.5 3.328-12.865-6.949-2.801-10.277 10.063-11.767 16.984-11.967 7.804-.199-9.179.7-13.135-6.742-8.381-6.71 4.287-12.075 8.754-20.315 7.071l.003.009s-4.665 1.127-10.129 3.308c-3.81 2.606-10.22 7.769-13.608 14.93-2.218 4.687-.538 5.826 8.178-.595 8.717-6.422 2.61-.713-2.779 7.933-5.389 8.644-7.785 3.995-13.459 14.615-5.65 10.576 10.952-2.975 11.084-3.083-.918.75-.035-.009.49 1.97.794 2.999 2.904 2.674 1.111 5.535-1.743 2.784-3.994 4.762-5.465 7.936a64.003 64.003 0 00-4.086 11.64 13.382 13.382 0 007.787-3.373c-1.788 4.599-1.814 8.044-2.618 12.913 7.534-5.938 19.607-2.972 29.04-4.719-1.392 3.518-8.18 7.356-9.845 16.65-.629 3.511-.79 11.041-.556 14.6a22.955 22.955 0 01-2.487 11.945c.106-.224 6.318-.82 7-.954-3.039 4.339-4.74 12.684-9.603 15.371-4.435 2.451-10.807-2.35-15.13-3.484-9.236-2.423-32.072-1.709-36.262-3.367-4.19-1.658-10.577-3.706-18.92-5.274-8.344-1.568-12.264-.826-18.43-2.879-6.168-2.053-28.904-1.778-34.553-.124-5.65 1.653-20.15-1.53-20.15-1.53l-4.809.104s-8.567-1.782-12.459.271c-3.89 2.052-11.17-.851-17.907 1.044-6.738 1.896-8.02 3.236-13.309 1.383-5.289-1.853-5.015 2.744-8.448 3.683-3.044.831-6.186-18.016-6.186-18.016-.082-.282 1.844-3.26 1.947-3.954.29-1.928-.523-4.944-1.667-6.494-.268-.363-.6-.768-.502-1.209.081-.365.43-.597.731-.818 1.672-1.225 2.656-3.214 3.08-5.243.422-2.03.343-4.126.263-6.198-.085-2.17-1.56-3.245-3.165-4.708 4.628 3.239 9.466 6.645 11.275 11.996.674-4.428.442-7.461 1.853-11.713.905 1.343 2.983 1.419 3.657 2.891 1.041-1.959-1.345-3.092-.72-5.22.335-1.141 1.136-2.078 1.695-3.128 1.501-2.824 1.45-6.369 2.294-9.418.831-2.999-.873-5.733-1.533-8.697-1.818-8.161 1.746-5.177 9.001-3.366 7.256 1.81.463-7.616-6.649-17.958-5.526-8.033 19.881 7.853 16.846-3.19-.896-3.262-8.858-11.629-16.229-19.305.077.379.035.591-.207.515a4.286 4.286 0 01-.55-.173c-5.38-1.553-8.37-3.716-14.13-6.886-8.41-4.628-11.917-4.988-8.249 2.804 3.668 7.792 6.71 6.851-.333 4.817-7.04-2.033-16.772-7.07-13.579-1.017 3.193 6.054.64 9.28.64 9.28 1.42 4.999-8.88-9.035-8.04 2.361.604 8.209 4.454 8.76-2.362 7.049-6.785-1.703-5.186-2.184-16.58-3.248-11.394-1.065-12.08-2.471-8.01 3.673 5.84 8.816 9.663 12.036 2.232 12.197-7.43.161-10.368 5.91-10.368 5.91s10.504 14.204 2.786 14.372c-7.718.167-7.49 10.658-7.49 10.658s1.625 14.398-2.328 13.609c-.946-.189-1.946-.575-2.916-.865v.001c-.469 6.081 2.522 12.899 6.035 23.647 3.513 10.747 16.55 21.944 19.977 28.758 3.428 6.813 6.2 13.641 13.841 18.067 7.64 4.426 5.68 4.797 7.49 12.629 1.81 7.833 2.694 3.222 6.614 2.481 3.92-.742 1.375 2.921 3.178 10.426 1.804 7.505 1.312-.028 3.607-.078s0 0 1.447 6.201c1.446 6.201 4.212-2.387 4.212-2.387s1.66.947 7.134 11.325c5.473 10.377 15.195 4.918 16.641 11.118 1.447 6.2 4.818-4.713 4.818-4.713s2.295-.034 6.643 3.808c4.347 3.842 0 0 1.59-2.33 1.59-2.331 0 0 4.738 6.785 4.74 6.785.621-1.655 3.137-6.629 2.515-4.975 0 0 5.73 7.092 5.73 7.091 16.242 7.847 19.977 13.67 0 0 .62-1.654 1.753-2.334 1.133-.681.677.969 2.555 4.373 1.878 3.402.787-1.494 3.343-4.665 2.555-3.172 2.234 4.707 5.163 11.204 2.93 6.496 4.704-2.399 8.371-7.235 3.667-4.836 11.435-9.596 15.088-15.088 3.653-5.491 3.122-7.283 8.26-4.771 5.14 2.513 6.81-3.592 6.81-3.592s.991.307 1.604 5.869c.613 5.563 3.856-3.691 6.906-6.71 3.051-3.018 2.68 2.566 3.457 8.125.777 5.559 5.842-7.889 6.003-.459.162 7.432 2.575-2.242 8.743-10.248 6.167-8.006 2.594-1.368 4.723 6.02 2.128 7.389 7.826-12.196 7.826-12.196s1.268-1.997 4.247 4.281c2.98 6.276 1.511-.908 6.576-9.327 5.065-8.419 13.78-9.921 18.512-13.523 4.733-3.601.504 3.051-.827 12.264-1.33 9.213 0 0 7.217-9.997 7.218-9.997 1.074-.898 1.46 6.747.384 7.644 9.668-7.863 9.668-7.863s11.328-1.996 14.53-5.564c3.203-3.568.257 1.743 1.335 11.123 1.08 9.379 1.297-.684 9.052-6.101 7.754-5.416 3.936-2.491 9.784-12.621 5.848-10.132 0 0 4.518 4.165 4.52 4.166 6.151-3.742 11.404-11.072 5.253-7.33 1.005.962 2.281 6.838 1.275 5.877 6.122-5.053 6.122-5.053s12.835 4.478 19.254-12.062c2.766-7.125 15.035-10.003 15.035-10.003s1.268-1.995 1.051 3.094c-.217 5.089 1.326.627 6.297-4.566 4.971-5.191 6.272-5.712 9.311-9.221 3.037-3.506 11.783-31.468 11.803-31.531.228-3.71-.23-6.191-1.81-6.735m-566.255 975.955c-7.964 47.411 34.16 72.2 34.16 72.2-17.029-16.585-30.526-44.576-34.16-72.2m1093.672-236.619c2.181 39.969 3.307 61.593 1.71 78.684-1.596 17.09-6.67 25.073-10.263 40.895-3.592 15.822-8.154 17.233-5.33 26.356 2.821 9.123-3.736 9.265-11.99 21.908-8.252 12.644-14.795 28.53-16.549 38.408-1.753 9.878-6.293 12.273-9.216 28.736-2.922 16.464-23.868 33.647-29.335 38.686-5.467 5.039-2.694 11.866-2.852 19.742-.156 7.875-6.307-3.471-6.307-3.471s-2.316-.934-6.857 16.549c-4.54 17.483-4.41 8.296-8.46 18.224-4.048 9.928-7.062 7.041-10.163 15.309-3.1 8.267-1.597 2.002-2.736-5.189-1.14-7.191-4.983-2.843-6.508-12.651-1.524-9.806 0 0-5.602 13.898s-7.554 14.597-32.03 65.641c-24.474 51.043-122.872 81.39-171.208 90.968-48.336 9.578-126.976 13.255-147.959 13.71-20.982.456-54.465-.784-103.942 16.691-49.476 17.475-95.945-7.756-121.074-17.05-25.13-9.294-54.209-19.158-86.267-15.181-32.058 3.976-69.247-16.864-69.247-16.864s-18.444-3.535-51.97-6.743c-33.526-3.207-73.908-50.218-80.05-61.237-6.145-11.019-10.72-10.263-45.757-22.622-35.037-12.358-54.389-47.581-65.012-93.708-6.982-30.315 2.831-52.682 10.38-64.455-.304-10.478.97-20.663 4.19-29.888 12.762-36.577 27.035-43.884 27.035-43.884-35.427 40.13 5.14 95.665 5.14 95.665-13.826-32.5 1.835-106.75 5.66-115.689 3.825-8.939 8.356-19.206 10.408-30.402 2.053-11.197-.655-15.074 6.465-19.493 7.12-4.419 9.977-5.78 9.977-5.78s10.35 50.603 22.316 78.335c11.966 27.731 40.392 67.344 45.752 72.476 5.36 5.131 23.196.808 44.083-4.02 20.887-4.827 23.042-11.325 33.797-14.51 10.755-3.186 7.804-3.122 8.296 4.412.492 7.533 9.835-.214 21.553-4.404 11.716-4.191 35.122 1.204 43.56-2.915 8.44-4.119 8.91 2.43 10.712 9.935 1.803 7.505 4.67 3.507 14.055-2.273 9.386-5.78 3.592-.734 5.017 4.483 1.426 5.217 9.907 3.065 20.07 2.844 10.163-.221 9.857.77 19.906 10.392 10.05 9.621 13.35 10.534 18.71 14.681 5.361 4.148 1.217-3.306.1-9.514-1.12-6.208 0 0 9.306 5.702 9.308 5.701 21.55 5.545 34.388 12.7 12.84 7.156 24.138 3.849 47.79 5.522 23.652 1.673 45.7 9.941 81.04 26.229 35.34 16.288 60.761 18.797 69.95 19.035 9.19.238-4.97-7.327 6.443-5.388s30.931-5.483 46.072-13.109c15.141-7.626 29.275-1.211 38.027-.963 8.752.247 0 0-.082-3.79-.082-3.789 3.446-2.406 27.536-.743 24.09 1.663 64.24-22.388 72.84-29.135 8.6-6.747 9.474-6.766 15.071-10.823 5.597-4.058 1.672-3.535-5.379-6.006-7.05-2.471 3.393-4.885 16.47-27.036 13.075-22.151 9.084-64.923 4.532-73.133-4.55-8.21-2.375-8.695-2.593-18.749-.219-10.054-.798-16.602-8.819-23.424-8.02-6.824-5.843-7.308-6.157-21.734-.313-14.425-7.184-28.708-12.619-37.336-5.436-8.629 20.96-31.725 52.603-84.893 20.142-33.841 31.048-101.226 36.318-145.749.004-.044 6.675-79.547 2.671-112.907-4.005-33.369-10.106-72.597-18.387-91.441-8.28-18.844-11.019-24.033-13.954-38.401-2.937-14.368-5.303-2.509-7.626-18.858-2.323-16.35-5.488-11.033-10.798-13.87-5.31-2.836-9.87-1.425-12.679-9.893-2.807-8.467-8.217-.805-8.745-9.977-.527-9.173 11.161-14.675-.527-9.173-11.689 5.502-10.24 11.703-14.019 3.913-3.777-7.79-6.079-8.069-6.079-8.069s-8.11 4.113-13.513-2.986c-5.402-7.099-16.873-.289-19.662-11.053-2.788-10.763-6.679 6.377-7.877-3.436-1.197-9.815 2.652-13.834-5.745-7.748-8.395 6.087-5.338 10.94-10.775 2.202-5.439-8.737-10.314-6.664-19.493-6.464-9.18.199-12.415 2.237-14.56-5.916-2.146-8.153-2.759 8.916-6.337-4.782-3.577-13.698-8.082-9.665-8.082-9.665s-4.93 14.54-5.545 1.432c-.612-13.106-5.53-13-5.53-13l-12.123.592s-8.845.521-11.36-9.593c-2.516-10.114-5.78-9.386-5.78-9.386s-7.484 17.875-8.696 7.405c-1.21-10.47-3.22-27.482-7.027-21.496-3.806 5.987-7.113 4.747-6.243-15.608.87-20.355-2.665-32.086-8.11-41.152-1.309-2.18-2.243-4.518-3.166-6.645-4.874-9.724-11.653-11.183-19.817 15.673-8.163 26.854-24.917 60.893-39.409 78.264-14.492 17.37-44.986 22.844-52.817 24.764-7.83 1.919-16.078 4.722-32.186 8.134-16.107 3.411-55.872 20.019-67.924 23.888-12.052 3.87-40.467 16.951-53.257 24.61-12.79 7.658-18.997 1.233-23.666-2.274-4.668-3.507-4.708-5.364-10.833-5.45-6.124-.086-7.778-5.735-11.703-5.213-3.924.524-4.689-4.489-7.407-8.804-2.718-4.314-9.602.865-14.34 4.247-4.737 3.383-7.43.163-11.094 2.647-3.663 2.485-3.909.144-8.3.399-4.78.279-7.593 2.789-11.513 3.531-3.92.741-21.092-14.63-26.637-18.227-5.545-3.598-13.16-11.96-18.117-18.631-4.955-6.671-36.95-35.058-57.29-50.361-20.342-15.302-23.57-58.2-28.145-72.532-2.475-7.751-7.593-9.11-13.268-8.383-1.649 3.239-2.497 5.253-3.738 10.72-1.796 7.911-1.974 14.803-4.989 11.917-3.015-2.887.506 8.188-4.126 6.321-4.633-1.867-4.69-4.49-5.866 1.767-1.176 6.258-2.709 11.211-6.978 10.976-4.269-.235-6.342-5.11-5.858 2.096.484 7.205-2.822 5.965-7.926 12.635-5.103 6.671-7.04 8.026-9.515 14.967-2.473 6.943-8.68 20.528-11.218 37.607l-2.536 17.079s-.64-17.746-5.79-33.378c-5.15-15.632-1.768-41.071-1.045-48.084.722-7.013-1.663-16.146-.523-24.042 1.141-7.898 4.647-7.536 4.457-16.278-.19-8.744-.484-22.294 1.511-31.084 1.997-8.79.61-12.259 1.997-8.79 1.387 3.468 3.306 11.298 3.183 5.616-.124-5.683 1.872-14.473 3.991-17.58 2.12-3.108 3.764-7.954 4.495-14.53.732-6.576 6.62-22.448 11.06-29.432 4.44-6.985 3.071-9.579 5.146-19.792 2.073-10.213 3.492-5.324 5.544-16.521l2.053-11.196s3.122 7.804 3.685 3.527c.563-4.276 2.003-13.491 4.255-15.508 2.252-2.017 5.438-6.35 5.673-10.62.235-4.268 2.326-23.775 7.315-35.692 4.99-11.916 6.624-17.199 8.591-27.301 1.968-10.101 7.603-12.411 8.192-25.544.59-13.132.798-23.632 6.282-32.936 5.483-9.303 4.048-14.957 5.483-9.303 1.435 5.653 1.14 12.22 2.347 7.383 1.207-4.836 3.583-16.259 7.86-20.725 4.275-4.467 5.216-1.426 10.196-13.779 4.98-12.354 13.988-30.48 20.217-35.645 6.23-5.165 5.992-6.034 8.93-11.783 2.935-5.75 4.684-5.788 4.684-5.788s-1.336 8.995.351 6.115c1.687-2.879 3.511-9.478 8.923-12.002 5.412-2.522 6.942-2.555 11.161-9.644 4.22-7.09 7.182-16.666 20.111-25.475 12.93-8.809 11.902-10.755 18.466-10.569 6.564.186 4.12 8.371 11.474-.283 7.356-8.655 10.264-10.686 10.264-10.686s-1.44 9.216 3.044 4.198c4.483-5.017 9.294-10.042 18.173-8.922 8.881 1.119 11.561 3.684 15.424.32 3.863-3.363-.772-5.333 9.49-1.076 10.26 4.256 14.426-.201 24.26-.528 9.832-.327 20.93-2.864 32.197 2.467 11.268 5.332 14.71 12.801 15.166 3.607.457-9.194 4.504-4.034 8.175-1.161 3.67 2.872 40.125 5.032 52.72 10.99 12.592 5.959 14.71 12.801 15.18 4.262.47-8.538 6.093-6.364 9.443-3.157 3.35 3.207 11.061 10.911 21.225 10.691 10.163-.221 10.804-.891 23.426 6.379 12.622 7.27 14.703 12.472 18.174 6.166 3.471-6.308 3.1-8.268 9.166-.856 6.065 7.412 22.186 9.686 22.186 9.686s29.136 12.487 40.482 21.424c11.346 8.938 10.691 8.953 22.928 13.607 12.236 4.653 15.893 6.87 21.923 12.643 6.03 5.773 2.701 3.549 17.282 10.449 14.582 6.899 20.291 13.007 27.262 16.792 6.97 3.784 28.387 8.239 41.856 24.346 13.471 16.108 14.087 20.686 18.07 19.616 3.982-1.071 4.894-4.371 9.32 3.078 4.426 7.447 9.707 8.972 18.046 15.351 8.338 6.379 19.243 10.078 37.46 23.24 18.216 13.162 19.974 13.561 25.866 23.054 5.892 9.493-4.362.532 13.503 17.637 17.865 17.105 19.642 18.379 29.762 41.338 10.121 22.959 12.82 26.399 15.213 35.969 2.395 9.569.913 21.846 3.801 13.912 2.89-7.936 2.928-6.187 3.09 1.244.16 7.431 6.425 8.935 10.295 20.987 3.87 12.052 7.142 11.653 9.407 25.38 2.267 13.727 3.001 17.318 6.978 19.2 3.976 1.882 4.32 2.53 4.903 14.326.584 11.795-.485 7.882 6.008 19.877 6.492 11.995 7.455 10.991 8.424 25.402.97 14.411 17.793 54.061 17.441 78.123-.35 24.06 3.325 32.29 6.272 47.095 2.945 14.806 1.434 25.772 1.168 33.65s5.31-1.865-.96 16.202-4.115 11.897-3.887 22.389c.227 10.491 1.93 8.267-.01 19.68-1.938 11.412-11.765 82.474-15.319 100.045-3.555 17.571-2.844 10.019-5.499 28.714s-2.513 25.253-5.373 34.499c-2.86 9.246-2 39.943-1.718 47.32 6.433 14.423 16.661 33.265 33.564 59.791 46.184 72.469 95.946 60.247 95.946 60.247s1.581 20.29 2.351 25.522c.77 5.231-.727 26.912 1.452 66.88" fill="#1e1a4e"/><g clip-path="url(#s)" opacity=".15"><path d="M669.493 1857.872c-7.963 47.411 34.16 72.2 34.16 72.2-17.028-16.585-30.525-44.576-34.16-72.2m922.44 155.111c-16.929 31.951-50.317 58.223-71.327 72.541-32.742 14.317-67.782 23.794-91.136 28.422-48.336 9.578-126.977 13.255-147.959 13.71-20.983.456-54.466-.784-103.942 16.691-49.477 17.475-95.945-7.756-121.075-17.05-25.13-9.294-54.209-19.158-86.266-15.18-32.058 3.975-69.247-16.865-69.247-16.865s-18.445-3.535-51.97-6.743c-33.527-3.207-73.908-50.219-80.052-61.237-6.143-11.019-10.718-10.263-45.756-22.622-35.036-12.359-54.388-47.58-65.012-93.708-6.982-30.315 2.832-52.682 10.38-64.455-.304-10.478.97-20.663 4.19-29.888 12.762-36.577 27.035-43.884 27.035-43.884-35.427 40.13 5.14 95.665 5.14 95.665-13.826-32.5 1.835-106.75 5.661-115.689 3.825-8.939 8.355-19.206 10.408-30.402 2.052-11.197-.656-15.074 6.465-19.493 5.737-3.56 8.703-5.134 9.64-5.612.257.608.506 1.206.748 1.794a710.03 710.03 0 003.544 15.721c1.116 27.842-11.897 80.355-1.676 104.381 11.983 28.166 43.133 52.855 43.133 52.855l-21.115-5.664 13.028 15.898c13.028 15.898 50.214 10.345 50.214 10.345s-14.369 8.994-44.864 14.467c-30.495 5.474-37.099-36.805-37.05-34.619.046 2.186 4.104 48.018 31.206 47.43 27.102-.59 86.78-31.626 116.742-41.46 29.962-9.835 0 0-11.603 9.436s-26.357 24.844-38.473 40.852c-12.116 16.007 6.543-.798 46.241-15.437s57.502-70.786 47.91-29.249c-9.595 41.537-66.313 88.033-45.53 78.397 20.782-9.635 44.644-28.52 47.838-32.527 3.193-4.005 0 0-10.036 21.21-10.035 21.21-53.254 54.95-53.254 54.95s16.278-5.602 31.822-14.822c15.544-9.219 32.95-23.322 49.1-65 16.15-41.68-4.93-75.99 9.73-55.368 14.662 20.622 2.22 102.121 2.22 102.121s4.646-7.536 12.04-29.564c7.393-22.027 8.173-46.534 10.311-48.768 2.138-2.233 3.83 15.224 7.155 27.397 3.326 12.173 1.093-10.082 5.313-37.289 4.22-27.206-.257-11.802 6.7 6.415 6.955 18.217 10.148 24.27 14.538 45.167 4.39 20.896-12.098 67.175-12.098 67.175s18.217-27.074 27.56-60.077c9.34-33.003-7.014-61.074 3.42-43.808 10.434 17.267 13.361 51.316 13.361 51.316s4.19-28.518 6.528-41.689c2.338-13.17 2.271 3.887 11.08 26.874 8.81 22.988.788 56.4-.712 67.878-1.5 11.48 2.973-4.076 17.561-37.193 14.586-33.117 2.51-65.655 2.51-65.655s.797-3.516 12.105 13.732c11.308 17.248 16.682 12.976 29.011 67.156 12.33 54.181-42.905 78.341 5.131 54.993 48.037-23.348-3.106-112.765 10.236-102.559 13.342 10.206 22.265 28.381 27.653 34.824 5.388 6.443-.64-29.507-.784-36.063-.142-6.557 10.805 14.197 29.078 40.04 18.274 25.843 1.667 76.716 1.667 76.716s4.462-6 21.938-47.053c17.476-41.05-13.384-72.525 6.914-44.102 20.298 28.423 15.978 71.157 15.978 71.157l13.47-44.245c13.472-44.245-18.9-54.694 9.737-34.98 28.636 19.714 1.695 78.028 1.695 78.028s17.062-29.89 21.481-37.859c4.42-7.968-1.9 24.918-4.19 48.636-2.29 23.716 3.192-4.006 17.924-20.414 14.731-16.408 9.615-10.36 26.663-40.908 17.05-30.546-8.95-49.66 15.053-31.815 24.003 17.847 1.567 72.126 1.653 76.06.085 3.934 21.581-33.269 25.373-39.91 3.791-6.643-4.484 35.176-4.484 35.176s3.286.273 10.855-13.667c7.57-13.94 10.805-15.979 27.355-39.299 16.548-23.32-3.692-49.12 16.492-25.942 20.183 23.178-19.758 87.021-19.758 87.021s6.472-4.076 23.243-17.188c16.772-13.11 22.98-29.308 22.98-29.308l.56 25.8c.256 11.802 8.938-11.346 26.5-48.464 17.561-37.118-15.566-52.142 14.51-26.556 30.076 25.587-20.912 94.263 9.392 69.99 30.305-24.276 33.143-74.849 33.143-74.849l9.147 29.321c9.15 29.321-22.833 65.44-22.833 65.44l16.806-11.517c16.806-11.517 22.294-30.66 22.294-30.66s-1.525 20.37-2.038 26.94c-.514 6.571 0 0 15.152-27.226 15.153-27.225 4.22-47.323 4.22-47.323s34.195 34.025 8.358 82.786" fill="#fff"/></g><g clip-path="url(#t)" opacity=".15"><path d="M669.493 1857.872c-7.963 47.411 34.16 72.2 34.16 72.2-17.028-16.585-30.525-44.576-34.16-72.2m877.403 180.706c-.749 4.22-16.02 35.072-58.953 59.537-21.932 7.45-42.827 12.73-58.473 15.831-48.336 9.578-126.977 13.255-147.959 13.71-20.983.456-54.466-.784-103.942 16.691-49.477 17.475-95.945-7.756-121.075-17.05-25.13-9.294-54.209-19.158-86.266-15.18-32.058 3.975-69.247-16.865-69.247-16.865s-18.445-3.535-51.97-6.743c-33.527-3.207-73.908-50.219-80.052-61.237-6.143-11.019-10.718-10.263-45.756-22.622-35.036-12.359-54.388-47.58-65.012-93.708-6.982-30.315 2.832-52.682 10.38-64.455-.304-10.478.97-20.663 4.19-29.888 12.762-36.577 27.035-43.884 27.035-43.884-35.427 40.13 5.14 95.665 5.14 95.665-13.826-32.5 1.835-106.75 5.661-115.689.785-1.834 1.6-3.737 2.417-5.68v.001s-5.326 79.324-.164 109.388l5.162 30.064s-1.615-34.077 1.93-52.085c3.544-18.008-3.498 60.428 21.59 87.872 25.086 27.445 68.04 11.642 68.04 11.642s-24.088 13.644-47.88 18.097c-23.792 4.453-31.195 5.925-31.195 5.925s48.77 10.368 79.635 1.797c30.864-8.57 39.388-18.815 30.864-8.57-8.524 10.243-28.26 27.728-28.26 27.728s42.98-14.49 48.634-15.926c5.654-1.435 22.266-21.913 5.654-1.435-16.61 20.48-20.374 28.432-46.735 43-26.36 14.567-42.468 17.98-19.795 14.862 22.674-3.117 47.078-7.145 43.666-3.135-3.412 4.01-20.263 13.434-20.263 13.434s89.443.37 110.155-12.545c20.711-12.914 30.725-35.107 21.075-11.282-9.65 23.826-8.895 28.402-22.295 45.75-13.399 17.346-28.686 23.254-13.399 17.346 15.288-5.908 46.726-23.319 57.965-34.388 11.24-11.068 19.921-34.248 12.936-8.496-6.985 25.751-18.274 34.525-7.583 28.388 10.69-6.136 22.101-24.424 18.452-11.225-3.649 13.2-11.746 33.055-11.746 33.055s24.361-11.025 44.523-34.095c20.163-23.07 21.111-24.73 21.111-24.73s5.61 31.694-3.1 53.531-30.648 38.714-5.838 18.167c24.81-20.547 40.076-27.439 50.888-43.09l10.812-15.65s-3.414 24.017-19.678 45.363c-15.677 20.574-18.364 21.843-18.538 21.908.452-.16 56.064-19.854 77.5-40.574 21.524-20.803 28.566-43.916 28.566-43.916s-.834 37.082-11.782 61.592c-10.947 24.51-27.432 35.692-10.947 24.51 16.485-11.182 25.73-23.519 24.211-17.91-1.518 5.61-12.936 23.57-12.936 23.57s61.008-30.19 71.328-53.375c10.321-23.184 10.57-26.798 10.321-23.184-.25 3.613-.677 29.207-8.19 45.77-7.512 16.563-25.82 34.345-11.624 23.541 14.197-10.805 30.946-24.945 37.59-36.24 6.641-11.297 13.241-24.56 5.166-3.722-8.076 20.84-9.594 26.45-9.594 26.45s41.601-17.633 50.461-32.586c8.858-14.952 15.28-21.324 15.28-21.324s-4.81 20.113-14.917 38.045c-10.106 17.931-19.058 28.622-6.793 19.5 12.266-9.123 26.577-14.682 43.661-28.5 17.084-13.82 39.05-29.386 40.654-31.06 1.603-1.676-7.755 20.504-21.88 34.587-14.127 14.083-16.386 15.772-16.386 15.772s81.3-32.27 95.14-44.379c13.84-12.109 21.096-25.387 13.591-8.496-7.504 16.891-16.699 31.523-16.699 31.523s31.103-17.732 35.522-25.7c4.42-7.968 9.971-24.16 4.42-7.968-5.553 16.193-7.279 27.382-22.665 43.79-15.388 16.405-19.58 19.776-19.58 19.776s55.314-20.554 68.806-33.639c13.492-13.085 13.55-10.462 13.55-10.462l-13.215 25.871s15.651-4.276 27.176-17.318c11.524-13.043 12.401-17.982 11.524-13.043" fill="#fff"/></g><g clip-path="url(#u)" opacity=".25"><path d="M1759.362 1528.85s1.581 20.292 2.352 25.523c.383 2.609.203 9.313.197 20.336-7.096 6.719-20.33 19.243-28.35 32.538-8.02 13.293-.057-2.624 2.651-18.864 2.71-16.24-.085-3.934-12.373 14.264-12.288 18.198-23.586 61.739-28.566 74.093-4.98 12.353-.475-21.857-.76-34.971-.285-13.113-4.619 8.848-10.872 22.978s-.265-12.24 1.57-28.461c1.833-16.221-10.597 15.537-25.698 45.167-15.099 29.629-21.305 45.945-26.636 62.243-5.33 16.297.96-16.202-.742-34.096-1.7-17.894-1.263 2.214-7.478 18.093s-.066-3.06-.655-30.162-1.274 1.777-14.759 25.249c-13.485 23.47-18.663 26.646-24.828 39.025-6.165 12.379-2.369-2.573-.962-18.348 1.406-15.774-.096-4.371-13.18 17.343-13.087 21.714-12.555 26.075-25.422 37.726-12.867 11.65-24.184 34.2-25.005 36.71-.82 2.512 1.058-11.7 2.588-21.791 1.531-10.092-9.417 9.388-19.359 18.585.584-.93 1.173-1.886 1.77-2.896 13.076-22.151 9.084-64.923 4.533-73.134-4.552-8.21-2.375-8.695-2.594-18.75-.219-10.053-.798-16.6-8.818-23.423-8.02-6.823-5.844-7.308-6.158-21.733-.313-14.426-7.183-28.708-12.619-37.337-5.435-8.63 20.96-31.725 52.604-84.892 20.141-33.842 31.048-101.226 36.317-145.75.001-.015.841-10.024 1.745-24.417 2.785 1.499 4.68 3.176 5.254 5.048 3.752 12.192 4.073 6.32 6.696-8.825 2.623-15.145 7.487 12.41 7.487 12.41s2 1.488 6.533-16.322c4.533-17.811.085-11.155 5.851-2.424 5.766 8.73 6.35 5.438 11.097 12.55 4.746 7.114 1.94-1.353 4.96-13.226 3.023-11.874 0 0 7.942 9.815 7.941 9.814 0 0 2.913-8.412.344-.993.643-1.721.927-2.23-.046 8.944.206 17.325.337 20.73 6.433 14.424 16.661 33.267 33.565 59.792 46.183 72.469 95.945 60.247 95.945 60.247" fill="#fff"/></g><g clip-path="url(#v)" opacity=".25"><path d="M1744.376 1529.295c1.271 7.927 1.448 13.557.064 15.078-6.407 7.04-11.079 13.458-18.605 29.365-7.526 15.908-2.927-13.93-2.927-13.93s-2.603.93-18.89 29.711c-16.288 28.781-2.386-2.572-1.141-25.778s.275-7.44-16.44 8.23c-16.716 15.67-16.545 23.538-23.596 41.184-7.052 17.647-4.029-24.403-4.029-24.403s-3.811 5.768-13.301 31.93-16.359 32.128-19.268 37.002c-2.909 4.874-.976-2.603-.397-16.173.58-13.57-10.757 8.106-19.157 24.033-8.402 15.926-.96-3.916-3.307-31.416-2.347-27.502-.532-4.362-8.806 18.996-8.273 23.358-23.524 42.933-27.718 51.195-4.193 8.263-1.555-11.199-2.391-29.549-.836-18.35-8.316 19.861-12.164 43.998-3.849 24.137-10.72 29.972-19.558 45.908-8.837 15.936-3.686 11.451-4.807.104-1.122-11.346-1.531-10.025-4.438-23.082-2.908-13.057 0 0-8.116 8.923-8.115 8.923 0 0-4.221-13.12s-5.505-11.907-5.505-11.907l-.006-.003c-1.076-4.268-3.231-7.975-7.686-11.765-8.021-6.823-5.844-7.308-6.157-21.733-.314-14.425-7.184-28.708-12.62-37.337-5.435-8.628 20.959-31.725 52.604-84.892 6.097-10.243 11.342-23.569 15.846-38.394 1.966-.697 3.643-1.6 5.536-4.055 7.181-9.317 21.481-37.859 30.049-66.253 8.567-28.394.142 6.557-.756 25.6-.899 19.044.484 22.294.484 22.294s3.151-5.972 11.846-28.466c8.695-22.493.071 3.28-3.37 27.626-3.442 24.347 4.624-.1 16.498-27.255 11.874-27.154 4.12-21.737 8.496-31.672 4.376-9.936 0 0 5.571 20.214 5.571 20.215-.611-3.266 7.551-20.11 8.162-16.845 2.387-10.937 2.871 11.356.484 22.294-2.054 26.285-1.654 44.644.398 18.36 2.494-5.958 9.992-23.177 7.498-17.219 0 0 3.021 18.302 3.023 18.303 1.241-3.306 11.917-25.187 2.884-5.91 4.282-9.335 4.724-11.47.978 1.554 1.977 3.133 3.002 4.743 30.582 47.987 62.728 58.836 80.959 60.691" fill="#fff"/><path d="M1653.066 1451.956c0-.004-.002-.007-.003-.011a752.31 752.31 0 004.19 6.85c-1.457-1.066-3.08-2.821-4.187-6.84" fill="#fff"/></g><g><g clip-path="url(#w)" opacity=".25"><path d="M1227.163 683.007c-6.678-5.431-11.318-7.626-11.318-7.626l.45 20.654s-10.068-14.98-14.889-20.997c-4.822-6.015-4.99-3.171-4.99-3.171s2.801 23.227-1.04 42.662c-3.842 19.436-3.294-7.8-13.092-28.907-9.799-21.107-20.783-35.63-23.234-42.792-.77-2.251-.86-4.483-.783-5.945-.322 1.632-1.019 4.56-2.425 9.296-5.196 17.496-.37 28.216-5.196 17.496-4.824-10.72-7.589-32.307-9.642-21.11-2.053 11.197-4.69 25.686-4.718 24.375-.029-1.312-4.02-34.026-14.938-53.468-10.919-19.444-8.367-37.866-10.79-13.542-2.424 24.325-.08 41.658-2.716 25.97-2.637-15.686-1.319-30.474-12.786-44.985-11.467-14.512-12.75-28.26-13.498-17.42-.749 10.84 1.988 16.03-.749 10.84-2.737-5.187-10.419-26.67-19.42-33.361-9.002-6.693-5.21 1.754-5.21 1.754s8.345 21.794 1.204 10.14c-7.14-11.652-24.916-29.634-39.798-35.215-2.778-1.042-4.827-2.225-6.249-3.478 2.201-.481 4.587-.931 7.463-1.026 9.833-.328 20.93-2.865 32.198 2.466 11.268 5.332 14.71 12.8 15.166 3.607.457-9.194 4.505-4.033 8.175-1.161 1.971 1.542 13.393 2.88 25.498 4.709-1.767 1.423-2.4 2.416-1.387 2.966 4.647 2.524 7.227.499 16.136 18.018 8.91 17.519 16.663 12.103 26.313 18.453 9.65 6.35 13.741 13.477 11.645 7.618l-4.19-11.716s18.452 3.863 25.037 20.12c6.585 16.256.043 17.055 12.102 28.6 12.06 11.547 11.36 9.594 16.855 20.955 5.495 11.36 2.423 20.94 5.495 11.36 3.071-9.578-1.618-14.07 3.071-9.578 4.69 4.49 13.777 30.205 16.015 42.62 2.237 12.416 6.913 16.25.235 10.819M926.672 530.127c6.564.186 4.118 8.371 11.474-.283-3.328 12.898-10.234 27.152-12.871 41.641-2.638 14.49-4.05 25.016-4.77 22.08-.718-2.936-1.624-14.397-1.624-14.397s-10.277 25.151-13.784 44.908c-3.507 19.756.876 40.325-5.666 26.035-6.543-14.29-7.726-23.448-7.57-16.235.158 7.212-2.93 31.224-4.17 49.618-1.24 18.396 4.477 39.919-1.033 27.904-5.51-12.017-10.027-23.727-9.991-22.088.035 1.639-4.578 10.756-2.991 25.893 1.586 15.138 2.196 27.261.262 21.727-1.933-5.534-17.954-33.395-11.547-55.51 6.407-22.115 6-25.714 6-25.714l-12.55 11.097s1.376-12.166 5.602-28.987c4.227-16.819 11.839-28.793 7.328-25.086-4.512 3.706-9.601 11.032-9.637 9.393-.035-1.64 3.778-22.387 8.546-29.378 3.256-4.773 5.41-10.897 7.359-15.785a10.526 10.526 0 011.895-1.145c5.412-2.522 6.942-2.555 11.16-9.644 4.22-7.09 7.183-16.666 20.112-25.475 12.928-8.809 11.902-10.755 18.466-10.569" fill="#fff"/></g></g><g><g clip-path="url(#x)" opacity=".2"><path d="M1566.392 1240.018c.138 6.337-.377 20.242-.946 32.925-3.503-21.434-7.846-41.331-13.051-53.176-8.281-18.844-11.02-24.032-13.954-38.4-2.937-14.37-5.303-2.51-7.626-18.86-2.323-16.348-5.488-11.032-10.798-13.87-5.31-2.835-9.871-1.424-12.68-9.891-2.806-8.467-8.216-.805-8.744-9.978-.527-9.173 11.16-14.675-.527-9.173-11.69 5.502-10.241 11.703-14.02 3.913-3.776-7.79-6.078-8.068-6.078-8.068s-8.111 4.112-13.514-2.986c-5.401-7.1-16.873-.29-19.661-11.053-2.788-10.764-6.68 6.377-7.877-3.437s2.652-13.834-5.745-7.748c-8.395 6.087-5.338 10.94-10.775 2.202-5.44-8.737-10.314-6.664-19.493-6.463-9.18.199-12.415 2.237-14.561-5.916-2.145-8.154-2.758 8.916-6.336-4.783-3.577-13.698-8.082-9.665-8.082-9.665s-4.931 14.54-5.545 1.433c-.612-13.107-5.53-13-5.53-13l-12.123.592s-8.845.52-11.36-9.593c-2.516-10.114-5.781-9.387-5.781-9.387s-7.483 17.875-8.695 7.405c-1.211-10.47-3.221-27.482-7.027-21.496-3.806 5.988-7.113 4.747-6.243-15.608.87-20.355-2.665-32.086-8.11-41.151-1.31-2.181-2.243-4.52-3.166-6.646h-.001c-4.873-9.724-11.652-11.183-19.816 15.673-8.163 26.854-24.917 60.893-39.41 78.265-14.491 17.37-44.985 22.843-52.816 24.763-7.83 1.919-16.078 4.723-32.186 8.134-16.107 3.41-55.872 20.02-67.924 23.889-8.976 2.883-27.025 10.873-40.94 17.928v-.001c13.792-9.391 17.105-17.956 39.057-34.176 21.95-16.222 13.199-16.47 16.069-5.16 2.869 11.308 9.103-3.697 19.262-9.166 10.159-5.468 7.612-1.915 14.958-6.01 7.345-4.096 24.584-15.841 24.584-15.841l-.22 10.063c-.218 10.064 0 0 3.43-3.135 3.432-3.136 9.884-8.087 16.955-4.743 7.069 3.346 10.814-5.482 21.048-10.953 10.235-5.47 1.416-1.78.257 5.243-1.16 7.023 6.462-4.514 17.684-11.318 11.224-6.804 14.559-14.31 21.8-23.215 7.24-8.904 0 0 .58 6.548.579 6.547 2.547-3.555 13.067-22.59 10.519-19.032 6.785-9.767 15.043-32.251 8.258-22.483 2.49-46.412 3.507-59.991 1.017-13.58 7.327 15.148 7.327 15.148l11.07-33.915s5.027 9.949 7.535 24.702c2.507 14.754 7.556-14.534 12.545-26.45 4.989-11.917 3.26 9.113 11.279 36.053 8.02 26.94 13.39 32.509 13.55 39.94.162 7.43 7.119-14.586 7.119-14.586s1.73-.912 6.053 16.925c4.323 17.836 6.523 43.59 6.716 52.443.192 8.85 10.12-17.276 16.1-28.845 5.982-11.568 4.846 11.66 6.043 21.476 1.198 9.813 10.15-15.965 10.15-15.965s1.895-3.321 7.974 19.835c6.079 23.156 14.29 38.722 14.29 38.722l10.163-15.31.32 14.754c.25 11.474 11.497-14.354 11.497-14.354l12.466-30.12 2.936 14.369c2.936 14.369 6.749 23.798 6.093 33.87-.655 10.074 11.438-15.992 11.438-15.992s.356-4.818.108 3.934c-.247 8.752 6.177 22.607 5.474 30.494-.704 7.888 6.718-12.828 17.732-27.5 11.014-14.671.988 3.478.247 9.616-.741 6.139 12.952-27.833 12.952-27.833s1.693-2.661 2.1 16.136c.409 18.796 6.548 39.655 6.633 43.589.086 3.934 7.184-11.526 14.863-20.441 7.678-8.913 3.668 7.793 3.943 20.47.276 12.677 2.053-6.168 9.959-24.708s0 0 1.283 18.778 10.025 38.706 8.124 51.867c-1.901 13.16 7.916-18.103 7.916-18.103s1.178 13.969 1.596 33.202c.418 19.235 3.773 32.719 3.773 32.719s2.062-5.73 5.88-11.061c3.822-5.332.125 5.682-2.136 22.35-2.262 16.668.664 30.599.949 43.713M866.917 1050.76c2.323 6.292 2.774-3.12 2.774-3.12s2.913 3.216 6.353 10.576 2.951-5.094 2.951-5.094 1.572 1.935 7.526 14.269c5.953 12.335 15.936 18.896 18.25 24.75 2.313 5.854 2.95-5.093 2.95-5.093l4.139 9.313c3.618 8.143 10.625 18.384 12.329 20.83-6.235-4.585-13.494-10.751-16.748-12.862-5.545-3.597-13.161-11.96-18.117-18.63-4.956-6.671-36.951-35.06-57.292-50.362s-23.569-58.2-28.144-72.532c-2.474-7.751-7.593-9.11-13.267-8.383-1.649 3.239-2.497 5.253-3.738 10.72-1.796 7.91-1.974 14.804-4.989 11.917-3.015-2.887.506 8.188-4.127 6.32-4.633-1.866-4.689-4.49-5.866 1.769-1.175 6.258-2.708 11.21-6.977 10.975-4.269-.235-6.343-5.11-5.859 2.096.485 7.205-2.822 5.965-7.925 12.636-5.103 6.67-7.042 8.025-9.515 14.967-1.604 4.5-4.774 11.806-7.499 21.034-.33-1.128-.502-1.995-.498-2.553.069-7.825 2.525-13.582 3.151-25.16.625-11.575 11.225-26.807 15.758-39.588 4.533-12.781.817-2.642 4.4 1.217 3.583 3.858 3.269-10.568 9.437-28.632 6.167-18.065 0 0 2.869 11.308 2.87 11.308 0 0 4.591-10.16 4.589-10.157 14.339-24.363 14.339-24.363l1.055 8.286c1.055 8.286 2.1-3.981 7.147-13.275 5.045-9.294 2.451-7.925 4.436 2.903 1.984 10.828 6.482 16.54 7.071 23.525.589 6.984 0 0 3.925-.523 3.924-.523 1.073 9.16 4.416 22.12 3.343 12.959 7.138 26.61 7.3 34.04.161 7.433 2.556-3.116 5.939-8.437 3.383-5.322 0 0 4.267 15.214 4.266 15.214 30.864 31.692 33.188 37.983M1013.987 1134.66c13.221-2.21 23.778-4.516 28.957-6.687-3.84 1.985-7.283 3.867-10.01 5.5-8.979 5.375-14.712 3.81-18.947 1.187" fill="#fff"/></g></g><g><g clip-path="url(#y)" opacity=".15"><path d="M963.18 806.495c-.434 10.177-.006 14.76 2.802 23.227s7.533 14.596 2.259 13.4c-5.274-1.198-13.328-9.552-11.817-.4 1.51 9.151 4.953 16.62 1.639 15.052-3.314-1.568-15.615-9.173-12.864-3.329 2.75 5.845 10.398 25.687 5.715 21.525-4.682-4.162-7.141-11.654-7.027-6.408.114 5.246.293 13.442-2.352 12.515-2.644-.926-7.013-5.75-6.215.791.799 6.543 2.146 8.153-1.468 7.904-3.613-.249-17.025 1.406-14.02 3.94 3.009 2.532 3.949 15.632 7.912 16.857 2.723.843 5.897 1.056 10.409 2.217-.465.088-.928.191-1.39.32-6.736 1.896-8.02 3.236-13.307 1.383-5.29-1.853-5.015 2.744-8.448 3.683-3.044.831-6.186-18.016-6.186-18.016-.082-.282 1.843-3.26 1.947-3.954.288-1.928-.523-4.944-1.667-6.494-.268-.363-.6-.768-.503-1.209.082-.365.43-.597.732-.818 1.672-1.225 2.656-3.214 3.079-5.244.423-2.029.344-4.126.264-6.197-.085-2.17-1.561-3.245-3.165-4.708 4.628 3.24 9.466 6.645 11.275 11.996.674-4.429.44-7.46 1.853-11.713.905 1.343 2.982 1.42 3.657 2.891 1.04-1.959-1.345-3.092-.72-5.22.335-1.14 1.136-2.078 1.694-3.128 1.502-2.824 1.45-6.369 2.295-9.418.83-2.999-.873-5.733-1.533-8.697-1.818-8.16 1.746-5.177 9-3.366 7.256 1.81.464-7.616-6.648-17.958-5.526-8.033 19.88 7.853 16.846-3.19-.897-3.262-8.858-11.63-16.23-19.305.078.38.036.591-.206.515a4.286 4.286 0 01-.55-.173c-5.381-1.553-8.372-3.716-14.13-6.886-8.41-4.628-11.917-4.989-8.25 2.803 3.669 7.792 6.71 6.852-.332 4.818-7.041-2.033-16.772-7.07-13.58-1.017 3.194 6.054.64 9.28.64 9.28 1.42 5-8.88-9.036-8.04 2.361.605 8.21 4.455 8.76-2.361 7.05-6.785-1.704-5.186-2.185-16.58-3.249-11.394-1.065-12.08-2.47-8.011 3.673 5.84 8.816 9.664 12.036 2.233 12.197-7.431.161-10.368 5.91-10.368 5.91s10.504 14.204 2.786 14.372c-7.718.167-7.49 10.658-7.49 10.658s1.625 14.398-2.328 13.61c-.946-.19-1.946-.577-2.916-.867v.002c-.47 6.08 2.52 12.9 6.035 23.647 0 0-.655.064-6.072-7.715-5.417-7.78-7.006-5.449-9.415-10.646-2.41-5.195.356-13.783-2.373-3.555-2.73 10.226-2.146 22.022-4.562 16.5-2.416-5.525 2.024-12.509-2.416-5.525-4.44 6.985-6.308 11.618-5.374 9.301.934-2.316-.477-21.966-3.25-28.794-2.772-6.828 2.17-13.167 1.863-23.656-.31-10.489-3.36-15.016 2.029-8.572 5.388 6.443 9.572 17.832 8.382 8.345-1.19-9.486-2.898-12.584-1.235-11.545 1.662 1.041 13.62 7.997 11.548 3.122-2.074-4.875-1.39-18.666-4.476-24.83-3.086-6.167-13.342-10.208-3.086-6.167s14.026 11.504 13.193 3.322c-.834-8.182-7.427-9.679-.834-8.182 6.592 1.497 15.757 15.73 13.833 2.651-1.924-13.078 1.844-8.896-.143-15.74-1.987-6.845-4.24-11.388.394-6.24 4.63 5.147 7.197 2.467 12.193 5.966 4.996 3.5 6.457 10.356 5.58.207l-.876-10.15s11.895 19.094 9.629 5.368c-2.266-13.727-11.296-21.73-1.974-15.373 9.322 6.357 20.398 2.837 27.375 6.95 6.977 4.111 13.099 14.146 12.886 4.31-.214-9.835-4.034-19.59-.214-9.835 3.82 9.757 10.44 12.566 16.093 16.051 5.652 3.486 12.558 4.32 14.682 11.488 2.124 7.17 6.677 20.52 9.464 12.915 2.787-7.604 3.222-17.782 2.787-7.604M1242.981 887.69c-2.464 7.353-9.25 17.121-11.796 20.676-.1.138-.24.271-.397.4 3.315-9.07 6.758-20.075 6.77-20.114.228-3.71-.229-6.192-1.809-6.735-6.279-2.16-11.069 3.848-10.698-9.28.371-13.128 8.047-22.15-.719-18.024-8.767 4.126-12.409 17.653-10.413 3.834 1.996-13.82 6.464-19.492-.506-23.278-6.97-3.784-7.975-4.746-10.448-12.892-2.473-8.147-5.98 11.61-8.254-2.445-2.273-14.055-7.775-10.655-7.967-19.507-.193-8.852 5.645-11.93-3.742-6.15-9.386 5.78-8.938 11.346-11.703 4.846-2.765-6.5 3.329-12.865-6.948-2.802-10.278 10.064-11.767 16.985-11.967 7.805-.199-9.18.699-13.136-6.742-8.382-6.71 4.287-12.075 8.755-20.315 7.071l.003.01s-4.665 1.126-10.129 3.308c-3.812 2.605-10.22 7.768-13.608 14.93-2.218 4.687-.539 5.826 8.178-.595 8.716-6.422 2.608-.713-2.78 7.932s-7.785 3.995-13.458 14.616c-5.651 10.576 10.951-2.975 11.084-3.083-.919.75-.035-.009.489 1.97.795 2.998 2.904 2.673 1.112 5.534-1.744 2.785-3.994 4.762-5.466 7.937a63.973 63.973 0 00-4.085 11.64 13.395 13.395 0 007.787-3.373c-1.788 4.598-1.815 8.044-2.619 12.913 7.535-5.939 19.608-2.972 29.041-4.719-1.392 3.518-8.181 7.355-9.846 16.65-.629 3.51-.789 11.04-.555 14.6a22.945 22.945 0 01-2.488 11.944c.106-.223 6.318-.819 7.001-.954-3.04 4.34-4.741 12.685-9.604 15.371-4.435 2.451-10.807-2.349-15.129-3.483-3.642-.956-9.399-1.423-15.293-1.74 5.681-.826 15.767-2.523 17.695-8.48 2.459-7.598 7.932-12.308 2.708-11.212-5.224 1.098-10.377 5.474-8.495 1.497 1.882-3.976 8.176-16.199 4.262-15.155-3.913 1.044-4.248.723-12.743 2.22-11.119 1.958-9.875 23.096-8.496 1.496.734-11.496 7.469-18.53-.691-16.713l-8.16 1.817s-2.267 1.362 1.154-7.24c3.421-8.603 1.077-10.849 4.184-18.788s9.572-12.344 2.402-10.22c-7.17 2.123-14.265 7.68-12.079 2.636 2.187-5.045 4.353-10.996 6.791-19.577 2.437-8.58 7.597-12.629 2.402-10.22-5.196 2.408-2.922 1.375-8.46 3.135-5.538 1.761-8.988 9.052-5.538 1.761 3.45-7.29 7.84-16.57 9.615-25.465 1.775-8.895-1.696-17.676 1.775-8.895 3.47 8.781 3.998 17.953 8.431 10.641 4.433-7.313 21.669-17.855 24.28-24.144 2.611-6.289 2.853-10.23 3.067-.394.213 9.835-7.926 27.723 2.288 14.71 10.213-13.014 21.766-24.745 20.875-20.462-.891 4.284-5.495 18.816-1.34 13.806s14.933 2.955 26.898-9.988l11.964-12.942s-10.539 18.16.285 13.114c10.823-5.046 19.406-19.665 18.407-11.77-.998 7.892 5.815 19.552 5.92 24.361.104 4.81-4.087 13.21 2.328 6.51 6.415-6.7 11.337-21.676 9.816-11.147-1.52 10.53-1.302 20.583-1.302 20.583s17.353-26.617 14.055-17.36c-3.298 9.254-3.06 20.182-.646 30.626 2.413 10.443-8.627 24.241 2.105 15.698 10.733-8.542 12.795-9.899 12.795-9.899l-3.032 17.122s15.357-17.827 11.651-7.25c-3.706 10.576-5.284 18.482-3.82 25.448 1.463 6.966-7.422 20.716 2.062 14.387 9.483-6.328 11.488-14.682 9.483-6.328-2.005 8.352-4.413 18.295-6.877 25.65" fill="#fff"/></g></g></g></svg>