<?xml version="1.0" encoding="UTF-8"?><svg id="Layer_1" xmlns="http://www.w3.org/2000/svg" viewBox="0 0 6000 4000"><rect width="6000" height="4000" style="fill:#01d6c8;"/><polygon points="977.2 916.97 1015.86 861.24 986.14 840.63 947.48 896.35 891.76 857.69 871.14 887.41 926.86 926.07 888.2 981.79 917.92 1002.41 956.58 946.68 1012.3 985.34 1032.92 955.63 977.2 916.97" style="fill:#231f20;"/><polygon points="1674.34 301.52 1713 245.8 1683.28 225.18 1644.62 280.9 1588.9 242.24 1568.28 271.96 1624 310.62 1585.34 366.34 1615.06 386.96 1653.72 331.24 1709.44 369.9 1730.06 340.18 1674.34 301.52" style="fill:#231f20;"/><polygon points="899.19 1455.38 496.76 1584.13 811.81 1875.55 899.19 1455.38" style="fill:#f9de3d;"/><polygon points="1667.32 1925.43 1649.26 1888.83 1631.2 1925.43 1590.81 1931.29 1620.03 1959.78 1613.13 2000 1649.26 1981.01 1685.38 2000 1678.48 1959.78 1707.7 1931.29 1667.32 1925.43" style="fill:#231f20;"/><polygon points="409.1 700.61 402.2 740.83 438.32 721.84 474.44 740.83 467.54 700.61 496.76 672.12 456.38 666.25 438.32 629.66 420.26 666.25 379.87 672.12 409.1 700.61" style="fill:#231f20;"/><path d="M443.31,56.07c4.06-1.09,7.26-4.29,8.35-8.35,1.09-4.06-.08-8.43-3.05-11.41-2.97-2.97-7.34-4.14-11.41-3.05-4.06,1.09-7.26,4.29-8.35,8.35-1.09,4.06.09,8.43,3.06,11.4,2.97,2.97,7.34,4.14,11.4,3.06Z"/><path d="M395.99,8.75c-1.09,4.06.08,8.43,3.06,11.4,2.97,2.97,7.34,4.14,11.4,3.05,4.06-1.09,7.26-4.28,8.35-8.35,1.09-4.06-.08-8.43-3.06-11.41C413.51,1.22,410.49,0,407.41,0c-1.03,0-2.06.13-3.08.4-4.06,1.09-7.26,4.29-8.34,8.35Z"/><path d="M408.46,90.91c4.06-1.09,7.26-4.29,8.35-8.35,1.09-4.06-.08-8.43-3.05-11.41-2.97-2.97-7.34-4.14-11.41-3.05-4.06,1.09-7.26,4.29-8.35,8.35-1.09,4.06.08,8.43,3.06,11.4,2.97,2.97,7.34,4.14,11.4,3.06Z"/><path d="M375.6,58.05c4.06-1.09,7.26-4.28,8.35-8.35,1.09-4.06-.08-8.43-3.06-11.41-2.97-2.97-7.34-4.14-11.41-3.05-4.06,1.09-7.26,4.29-8.34,8.35-1.09,4.06.08,8.43,3.06,11.4,2.97,2.97,7.34,4.14,11.4,3.06Z"/><path d="M476.22,88.98c4.06-1.09,7.26-4.29,8.35-8.35,1.09-4.06-.08-8.43-3.05-11.41-2.97-2.97-7.34-4.14-11.41-3.05-4.06,1.09-7.26,4.29-8.35,8.35-1.09,4.06.08,8.43,3.06,11.4,2.97,2.97,7.34,4.14,11.4,3.06Z"/><path d="M441.37,123.83c4.06-1.09,7.26-4.29,8.35-8.35,1.09-4.06-.08-8.43-3.05-11.41-2.97-2.97-7.34-4.14-11.41-3.05-4.06,1.09-7.26,4.29-8.35,8.35-1.09,4.06.08,8.43,3.06,11.4,2.97,2.97,7.34,4.14,11.4,3.06Z"/><path d="M371.24,128.13c4.06-1.09,7.26-4.29,8.35-8.35,1.09-4.06-.08-8.43-3.05-11.41-2.97-2.97-7.34-4.14-11.41-3.05-4.06,1.09-7.26,4.29-8.35,8.35-1.09,4.06.08,8.43,3.06,11.4,2.97,2.97,7.34,4.14,11.4,3.06Z"/><path d="M338.38,95.27c4.06-1.09,7.26-4.28,8.35-8.35,1.09-4.06-.08-8.43-3.06-11.41-2.97-2.97-7.34-4.14-11.41-3.05-4.06,1.09-7.26,4.29-8.34,8.35-1.09,4.06.08,8.43,3.06,11.4,2.97,2.97,7.34,4.14,11.4,3.06Z"/><path d="M404.15,161.05c4.06-1.09,7.26-4.29,8.35-8.35,1.09-4.06-.08-8.43-3.05-11.41-2.97-2.97-7.34-4.14-11.41-3.05-4.06,1.09-7.26,4.29-8.35,8.35-1.09,4.06.08,8.43,3.06,11.4,2.97,2.97,7.34,4.14,11.4,3.06Z"/><path d="M287.55,1801.8c-4.06,1.09-7.26,4.29-8.35,8.35-1.09,4.06.08,8.43,3.06,11.4,2.97,2.97,7.34,4.14,11.4,3.06,4.06-1.09,7.26-4.29,8.35-8.35,1.09-4.06-.08-8.43-3.05-11.41-2.97-2.97-7.34-4.14-11.41-3.05Z"/><path d="M254.69,1768.94c-4.06,1.09-7.26,4.29-8.34,8.35-1.09,4.06.08,8.43,3.06,11.4,2.97,2.97,7.34,4.14,11.4,3.05,4.06-1.09,7.26-4.28,8.35-8.35,1.09-4.06-.08-8.43-3.06-11.41-2.97-2.97-7.34-4.14-11.41-3.05Z"/><path d="M252.7,1836.64c-4.06,1.09-7.26,4.29-8.35,8.35-1.09,4.06.08,8.43,3.06,11.4,2.97,2.97,7.34,4.14,11.4,3.06,4.06-1.09,7.26-4.29,8.35-8.35,1.09-4.06-.08-8.43-3.05-11.41-2.97-2.97-7.34-4.14-11.41-3.05Z"/><path d="M219.84,1803.78c-4.06,1.09-7.26,4.29-8.34,8.35-1.09,4.06.08,8.43,3.06,11.4,2.97,2.97,7.34,4.14,11.4,3.06,4.06-1.09,7.26-4.28,8.35-8.35,1.09-4.06-.08-8.43-3.06-11.41-2.97-2.97-7.34-4.14-11.41-3.05Z"/><path d="M320.46,1834.71c-4.06,1.09-7.26,4.29-8.35,8.35-1.09,4.06.08,8.43,3.06,11.4,2.97,2.97,7.34,4.14,11.4,3.06,4.06-1.09,7.26-4.29,8.35-8.35,1.09-4.06-.08-8.43-3.05-11.41-2.97-2.97-7.34-4.14-11.41-3.05Z"/><path d="M285.62,1869.56c-4.06,1.09-7.26,4.29-8.35,8.35-1.09,4.06.08,8.43,3.06,11.4,2.97,2.97,7.34,4.14,11.4,3.06,4.06-1.09,7.26-4.29,8.35-8.35,1.09-4.06-.08-8.43-3.05-11.41-2.97-2.97-7.34-4.14-11.41-3.05Z"/><path d="M215.48,1873.86c-4.06,1.09-7.26,4.29-8.35,8.35-1.09,4.06.08,8.43,3.06,11.4,2.97,2.97,7.34,4.14,11.4,3.06,4.06-1.09,7.26-4.29,8.35-8.35,1.09-4.06-.08-8.43-3.05-11.41-2.97-2.97-7.34-4.14-11.41-3.05Z"/><path d="M182.62,1841c-4.06,1.09-7.26,4.29-8.34,8.35-1.09,4.06.08,8.43,3.06,11.4,2.97,2.97,7.34,4.14,11.4,3.05,4.06-1.09,7.26-4.28,8.35-8.35,1.09-4.06-.08-8.43-3.06-11.41-2.97-2.97-7.34-4.14-11.41-3.05Z"/><path d="M262.86,1921.24c1.09-4.06-.08-8.43-3.05-11.41-2.97-2.97-7.34-4.14-11.41-3.05-4.06,1.09-7.26,4.29-8.35,8.35-1.09,4.06.08,8.43,3.06,11.4,2.23,2.23,5.24,3.44,8.33,3.46,1.03,0,2.06-.13,3.08-.4,4.06-1.09,7.26-4.29,8.35-8.35Z"/><rect x="745" y="302.5" width="321.63" height="27.78" transform="translate(315.03 1072.42) rotate(-71.25)" style="fill:#231f20;"/><rect x="800.53" y="321.35" width="321.63" height="27.78" transform="translate(334.86 1137.79) rotate(-71.25)" style="fill:#231f20;"/><rect x="856.06" y="340.2" width="321.63" height="27.78" transform="translate(354.69 1203.17) rotate(-71.25)" style="fill:#231f20;"/><rect x="911.59" y="359.05" width="321.63" height="27.78" transform="translate(374.52 1268.54) rotate(-71.25)" style="fill:#231f20;"/><rect x="967.12" y="377.9" width="321.63" height="27.78" transform="translate(394.34 1333.91) rotate(-71.25)" style="fill:#231f20;"/><rect x="1022.65" y="396.76" width="321.63" height="27.78" transform="translate(414.17 1399.29) rotate(-71.25)" style="fill:#231f20;"/><path d="M1678.35,621.63c-1.84-1.69-4.31-2.5-6.8-2.23l-247.23,26.5-7.47.69c-3.45.32-6.38,2.65-7.46,5.95l-318.57,969.96c-.99,3.01-.26,6.31,1.89,8.63l181.63,195.47c1.02,1.09,2.28,1.89,3.65,2.34,1.38.45,2.87.56,4.34.28l262.14-49.71c3.11-.59,5.65-2.82,6.64-5.83l318.56-969.91c1.07-3.26.12-6.84-2.42-9.15l-188.91-173ZM1667.87,641.99l165.3,151.33-225.82,33.01-162.23-160.42,222.74-23.92ZM1276.87,1796.75l-162.51-174.89,310.39-945.04,166.05,164.21-313.94,955.72ZM1532.53,1759.2l-234.56,44.48,313.86-955.7,231.07-33.77-310.37,944.98Z" style="fill:#231f20;"/><polygon points="1297.97 1803.68 1532.53 1759.2 1842.9 814.22 1611.83 847.98 1297.97 1803.68" style="fill:#f40f78;"/><polygon points="1424.76 676.82 1114.37 1621.86 1276.87 1796.75 1590.81 841.03 1424.76 676.82" style="fill:#ff78b9;"/><polygon points="1833.17 793.32 1667.87 641.99 1445.12 665.91 1607.35 826.32 1833.17 793.32" style="fill:#fff;"/><path d="M1894.17,397.82c-54.5,73.31-39.2,177.28,34.09,231.79h0c21.51,16,46.02,26.32,71.74,30.55v-23.67c-20.73-4-40.49-12.48-57.93-25.45-63.05-46.89-76.21-136.35-29.33-199.4,22.06-29.66,53.55-48.12,87.26-54.65v-23.54c-40.84,6.78-79.24,28.61-105.83,64.37Z" style="fill:#231f20;"/><polygon points="419.79 1312.88 507.13 1345.93 538.75 1258.08 626.06 1291.15 657.66 1203.3 733.98 1232.2 742.16 1210.59 643.87 1173.36 612.26 1261.21 524.96 1228.14 493.34 1316 406 1282.95 374.38 1370.81 287.01 1337.78 251.37 1436.7 273.12 1444.53 300.79 1367.7 388.17 1400.74 419.79 1312.88"/><path d="M51.22,660.56c43.78-6.44,82.43-29.54,108.83-65.05,54.5-73.31,39.2-177.28-34.1-231.79-37.52-27.9-83.08-37.38-125.95-30.27v23.54c37.96-7.35,78.73.48,112.13,25.31,63.06,46.89,76.22,136.34,29.34,199.4-22.71,30.55-55.96,50.43-93.62,55.97-16.16,2.37-32.27,1.82-47.85-1.18v23.68c8.8,1.45,17.74,2.2,26.76,2.2,8.11,0,16.29-.6,24.46-1.8Z" style="fill:#231f20;"/><polygon points="4977.2 916.97 5015.86 861.24 4986.14 840.63 4947.48 896.35 4891.76 857.69 4871.14 887.41 4926.86 926.07 4888.2 981.79 4917.92 1002.41 4956.58 946.68 5012.3 985.34 5032.92 955.63 4977.2 916.97" style="fill:#231f20;"/><polygon points="5674.34 301.52 5713 245.8 5683.28 225.18 5644.62 280.9 5588.9 242.24 5568.28 271.96 5624 310.62 5585.34 366.34 5615.06 386.96 5653.72 331.24 5709.44 369.9 5730.06 340.18 5674.34 301.52" style="fill:#231f20;"/><polygon points="4899.19 1455.38 4496.76 1584.13 4811.81 1875.55 4899.19 1455.38" style="fill:#f9de3d;"/><polygon points="5667.32 1925.43 5649.26 1888.83 5631.2 1925.43 5590.81 1931.29 5620.03 1959.78 5613.13 2000 5649.26 1981.01 5685.38 2000 5678.48 1959.78 5707.7 1931.29 5667.32 1925.43" style="fill:#231f20;"/><polygon points="4409.1 700.61 4402.2 740.83 4438.32 721.84 4474.44 740.83 4467.54 700.61 4496.76 672.12 4456.38 666.25 4438.32 629.66 4420.26 666.25 4379.87 672.12 4409.1 700.61" style="fill:#231f20;"/><path d="M4443.31,56.07c4.06-1.09,7.26-4.29,8.35-8.35,1.09-4.06-.08-8.43-3.05-11.41-2.97-2.97-7.34-4.14-11.41-3.05-4.06,1.09-7.26,4.29-8.35,8.35-1.09,4.06.09,8.43,3.06,11.4,2.97,2.97,7.34,4.14,11.4,3.06Z"/><path d="M4395.99,8.75c-1.09,4.06.08,8.43,3.06,11.4,2.97,2.97,7.34,4.14,11.4,3.05,4.06-1.09,7.26-4.28,8.35-8.35,1.09-4.06-.08-8.43-3.06-11.41-2.23-2.23-5.25-3.45-8.33-3.45-1.03,0-2.06.13-3.08.4-4.06,1.09-7.26,4.29-8.34,8.35Z"/><path d="M4408.46,90.91c4.06-1.09,7.26-4.29,8.35-8.35,1.09-4.06-.08-8.43-3.05-11.41-2.97-2.97-7.34-4.14-11.41-3.05-4.06,1.09-7.26,4.29-8.35,8.35-1.09,4.06.08,8.43,3.06,11.4,2.97,2.97,7.34,4.14,11.4,3.06Z"/><path d="M4375.6,58.05c4.06-1.09,7.26-4.28,8.35-8.35,1.09-4.06-.08-8.43-3.06-11.41-2.97-2.97-7.34-4.14-11.41-3.05-4.06,1.09-7.26,4.29-8.34,8.35-1.09,4.06.08,8.43,3.06,11.4,2.97,2.97,7.34,4.14,11.4,3.06Z"/><path d="M4476.22,88.98c4.06-1.09,7.26-4.29,8.35-8.35,1.09-4.06-.08-8.43-3.05-11.41-2.97-2.97-7.34-4.14-11.41-3.05-4.06,1.09-7.26,4.29-8.35,8.35-1.09,4.06.08,8.43,3.06,11.4,2.97,2.97,7.34,4.14,11.4,3.06Z"/><path d="M4441.37,123.83c4.06-1.09,7.26-4.29,8.35-8.35,1.09-4.06-.08-8.43-3.05-11.41-2.97-2.97-7.34-4.14-11.41-3.05-4.06,1.09-7.26,4.29-8.35,8.35-1.09,4.06.08,8.43,3.06,11.4,2.97,2.97,7.34,4.14,11.4,3.06Z"/><path d="M4371.24,128.13c4.06-1.09,7.26-4.29,8.35-8.35,1.09-4.06-.08-8.43-3.05-11.41-2.97-2.97-7.34-4.14-11.41-3.05-4.06,1.09-7.26,4.29-8.35,8.35-1.09,4.06.08,8.43,3.06,11.4,2.97,2.97,7.34,4.14,11.4,3.06Z"/><path d="M4338.38,95.27c4.06-1.09,7.26-4.28,8.35-8.35,1.09-4.06-.08-8.43-3.06-11.41-2.97-2.97-7.34-4.14-11.41-3.05-4.06,1.09-7.26,4.29-8.34,8.35-1.09,4.06.08,8.43,3.06,11.4,2.97,2.97,7.34,4.14,11.4,3.06Z"/><path d="M4404.15,161.05c4.06-1.09,7.26-4.29,8.35-8.35,1.09-4.06-.08-8.43-3.05-11.41s-7.34-4.14-11.41-3.05c-4.06,1.09-7.26,4.29-8.35,8.35-1.09,4.06.08,8.43,3.06,11.4,2.97,2.97,7.34,4.14,11.4,3.06Z"/><path d="M4287.55,1801.8c-4.06,1.09-7.26,4.29-8.35,8.35-1.09,4.06.08,8.43,3.06,11.4,2.97,2.97,7.34,4.14,11.4,3.06,4.06-1.09,7.26-4.29,8.35-8.35,1.09-4.06-.08-8.43-3.05-11.41-2.97-2.97-7.34-4.14-11.41-3.05Z"/><path d="M4254.69,1768.94c-4.06,1.09-7.26,4.29-8.34,8.35-1.09,4.06.08,8.43,3.06,11.4,2.97,2.97,7.34,4.14,11.4,3.05,4.06-1.09,7.26-4.28,8.35-8.35,1.09-4.06-.08-8.43-3.06-11.41s-7.34-4.14-11.41-3.05Z"/><path d="M4252.7,1836.64c-4.06,1.09-7.26,4.29-8.35,8.35-1.09,4.06.08,8.43,3.06,11.4,2.97,2.97,7.34,4.14,11.4,3.06,4.06-1.09,7.26-4.29,8.35-8.35,1.09-4.06-.08-8.43-3.05-11.41-2.97-2.97-7.34-4.14-11.41-3.05Z"/><path d="M4219.84,1803.78c-4.06,1.09-7.26,4.29-8.34,8.35-1.09,4.06.08,8.43,3.06,11.4,2.97,2.97,7.34,4.14,11.4,3.06,4.06-1.09,7.26-4.28,8.35-8.35,1.09-4.06-.08-8.43-3.06-11.41s-7.34-4.14-11.41-3.05Z"/><path d="M4320.46,1834.71c-4.06,1.09-7.26,4.29-8.35,8.35-1.09,4.06.08,8.43,3.06,11.4,2.97,2.97,7.34,4.14,11.4,3.06,4.06-1.09,7.26-4.29,8.35-8.35,1.09-4.06-.08-8.43-3.05-11.41-2.97-2.97-7.34-4.14-11.41-3.05Z"/><path d="M4285.62,1869.56c-4.06,1.09-7.26,4.29-8.35,8.35-1.09,4.06.08,8.43,3.06,11.4,2.97,2.97,7.34,4.14,11.4,3.06,4.06-1.09,7.26-4.29,8.35-8.35,1.09-4.06-.08-8.43-3.05-11.41-2.97-2.97-7.34-4.14-11.41-3.05Z"/><path d="M4215.48,1873.86c-4.06,1.09-7.26,4.29-8.35,8.35-1.09,4.06.08,8.43,3.06,11.4,2.97,2.97,7.34,4.14,11.4,3.06,4.06-1.09,7.26-4.29,8.35-8.35,1.09-4.06-.08-8.43-3.05-11.41-2.97-2.97-7.34-4.14-11.41-3.05Z"/><path d="M4182.62,1841c-4.06,1.09-7.26,4.29-8.34,8.35-1.09,4.06.08,8.43,3.06,11.4,2.97,2.97,7.34,4.14,11.4,3.05,4.06-1.09,7.26-4.28,8.35-8.35,1.09-4.06-.08-8.43-3.06-11.41s-7.34-4.14-11.41-3.05Z"/><path d="M4262.86,1921.24c1.09-4.06-.08-8.43-3.05-11.41s-7.34-4.14-11.41-3.05c-4.06,1.09-7.26,4.29-8.35,8.35-1.09,4.06.08,8.43,3.06,11.4,2.23,2.23,5.24,3.44,8.33,3.46,1.03,0,2.06-.13,3.08-.4,4.06-1.09,7.26-4.29,8.35-8.35Z"/><rect x="4745" y="302.5" width="321.63" height="27.78" transform="translate(3029.16 4860.1) rotate(-71.25)" style="fill:#231f20;"/><rect x="4800.53" y="321.35" width="321.63" height="27.78" transform="translate(3048.99 4925.47) rotate(-71.25)" style="fill:#231f20;"/><rect x="4856.06" y="340.2" width="321.63" height="27.78" transform="translate(3068.82 4990.85) rotate(-71.25)" style="fill:#231f20;"/><rect x="4911.59" y="359.05" width="321.63" height="27.78" transform="translate(3088.64 5056.22) rotate(-71.25)" style="fill:#231f20;"/><rect x="4967.12" y="377.9" width="321.63" height="27.78" transform="translate(3108.47 5121.59) rotate(-71.25)" style="fill:#231f20;"/><rect x="5022.65" y="396.76" width="321.63" height="27.78" transform="translate(3128.3 5186.97) rotate(-71.25)" style="fill:#231f20;"/><path d="M5678.35,621.63c-1.84-1.69-4.31-2.5-6.8-2.23l-247.23,26.5-7.47.69c-3.45.32-6.38,2.65-7.46,5.95l-318.57,969.96c-.99,3.01-.26,6.31,1.89,8.63l181.63,195.47c1.01,1.09,2.28,1.89,3.65,2.34,1.38.45,2.87.56,4.34.28l262.14-49.71c3.11-.59,5.65-2.82,6.64-5.83l318.56-969.91c1.07-3.26.12-6.84-2.42-9.15l-188.91-173ZM5667.87,641.99l165.3,151.33-225.82,33.01-162.23-160.42,222.75-23.92ZM5276.87,1796.75l-162.51-174.89,310.39-945.04,166.05,164.21-313.94,955.72ZM5532.53,1759.2l-234.56,44.48,313.86-955.7,231.07-33.77-310.37,944.98Z" style="fill:#231f20;"/><polygon points="5297.97 1803.68 5532.53 1759.2 5842.9 814.22 5611.83 847.98 5297.97 1803.68" style="fill:#f40f78;"/><polygon points="5424.76 676.82 5114.37 1621.86 5276.87 1796.75 5590.81 841.03 5424.76 676.82" style="fill:#ff78b9;"/><polygon points="5833.17 793.32 5667.87 641.99 5445.12 665.91 5607.35 826.32 5833.17 793.32" style="fill:#fff;"/><path d="M5894.17,397.82c-54.5,73.31-39.2,177.28,34.09,231.79h0c21.51,16,46.02,26.32,71.74,30.55v-23.67c-20.73-4-40.49-12.48-57.93-25.45-63.05-46.89-76.21-136.35-29.33-199.4,22.06-29.66,53.55-48.12,87.26-54.65v-23.54c-40.84,6.78-79.24,28.61-105.83,64.37Z" style="fill:#231f20;"/><polygon points="4419.79 1312.88 4507.13 1345.93 4538.75 1258.08 4626.06 1291.15 4657.66 1203.3 4733.98 1232.2 4742.16 1210.59 4643.87 1173.36 4612.26 1261.21 4524.96 1228.14 4493.34 1316 4406 1282.95 4374.38 1370.81 4287.01 1337.78 4251.37 1436.7 4273.12 1444.53 4300.79 1367.7 4388.17 1400.74 4419.79 1312.88"/><path d="M4051.22,660.56c43.78-6.44,82.43-29.54,108.83-65.05,54.5-73.31,39.2-177.28-34.1-231.79-37.52-27.9-83.08-37.38-125.95-30.27v23.54c37.96-7.35,78.73.48,112.13,25.31,63.06,46.89,76.22,136.34,29.34,199.4-22.71,30.55-55.96,50.43-93.62,55.97-16.16,2.37-32.27,1.82-47.85-1.18v23.68c8.8,1.45,17.74,2.2,26.76,2.2,8.11,0,16.29-.6,24.46-1.8Z" style="fill:#231f20;"/><polygon points="2977.2 916.97 3015.86 861.24 2986.14 840.63 2947.48 896.35 2891.76 857.69 2871.14 887.41 2926.86 926.07 2888.2 981.79 2917.92 1002.41 2956.58 946.68 3012.3 985.34 3032.92 955.63 2977.2 916.97" style="fill:#231f20;"/><polygon points="3674.34 301.52 3713 245.8 3683.28 225.18 3644.62 280.9 3588.9 242.24 3568.28 271.96 3624 310.62 3585.34 366.34 3615.06 386.96 3653.72 331.24 3709.44 369.9 3730.06 340.18 3674.34 301.52" style="fill:#231f20;"/><polygon points="2899.19 1455.38 2496.76 1584.13 2811.81 1875.55 2899.19 1455.38" style="fill:#f9de3d;"/><polygon points="3667.32 1925.43 3649.26 1888.83 3631.2 1925.43 3590.81 1931.29 3620.03 1959.78 3613.13 2000 3649.26 1981.01 3685.38 2000 3678.48 1959.78 3707.7 1931.29 3667.32 1925.43" style="fill:#231f20;"/><polygon points="2409.1 700.61 2402.2 740.83 2438.32 721.84 2474.44 740.83 2467.54 700.61 2496.76 672.12 2456.38 666.25 2438.32 629.66 2420.26 666.25 2379.87 672.12 2409.1 700.61" style="fill:#231f20;"/><path d="M2443.31,56.07c4.06-1.09,7.26-4.29,8.35-8.35,1.09-4.06-.08-8.43-3.05-11.41-2.97-2.97-7.34-4.14-11.41-3.05-4.06,1.09-7.26,4.29-8.35,8.35-1.09,4.06.09,8.43,3.06,11.4,2.97,2.97,7.34,4.14,11.4,3.06Z"/><path d="M2395.99,8.75c-1.09,4.06.08,8.43,3.06,11.4,2.97,2.97,7.34,4.14,11.4,3.05,4.06-1.09,7.26-4.28,8.35-8.35,1.09-4.06-.08-8.43-3.06-11.41-2.23-2.23-5.25-3.45-8.33-3.45-1.03,0-2.06.13-3.08.4-4.06,1.09-7.26,4.29-8.34,8.35Z"/><path d="M2408.46,90.91c4.06-1.09,7.26-4.29,8.35-8.35,1.09-4.06-.08-8.43-3.05-11.41-2.97-2.97-7.34-4.14-11.41-3.05-4.06,1.09-7.26,4.29-8.35,8.35-1.09,4.06.08,8.43,3.06,11.4,2.97,2.97,7.34,4.14,11.4,3.06Z"/><path d="M2375.6,58.05c4.06-1.09,7.26-4.28,8.35-8.35,1.09-4.06-.08-8.43-3.06-11.41-2.97-2.97-7.34-4.14-11.41-3.05-4.06,1.09-7.26,4.29-8.34,8.35-1.09,4.06.08,8.43,3.06,11.4,2.97,2.97,7.34,4.14,11.4,3.06Z"/><path d="M2476.22,88.98c4.06-1.09,7.26-4.29,8.35-8.35,1.09-4.06-.08-8.43-3.05-11.41-2.97-2.97-7.34-4.14-11.41-3.05-4.06,1.09-7.26,4.29-8.35,8.35-1.09,4.06.08,8.43,3.06,11.4,2.97,2.97,7.34,4.14,11.4,3.06Z"/><path d="M2441.37,123.83c4.06-1.09,7.26-4.29,8.35-8.35,1.09-4.06-.08-8.43-3.05-11.41-2.97-2.97-7.34-4.14-11.41-3.05-4.06,1.09-7.26,4.29-8.35,8.35-1.09,4.06.08,8.43,3.06,11.4,2.97,2.97,7.34,4.14,11.4,3.06Z"/><path d="M2371.24,128.13c4.06-1.09,7.26-4.29,8.35-8.35,1.09-4.06-.08-8.43-3.05-11.41-2.97-2.97-7.34-4.14-11.41-3.05-4.06,1.09-7.26,4.29-8.35,8.35-1.09,4.06.08,8.43,3.06,11.4,2.97,2.97,7.34,4.14,11.4,3.06Z"/><path d="M2338.38,95.27c4.06-1.09,7.26-4.28,8.35-8.35,1.09-4.06-.08-8.43-3.06-11.41-2.97-2.97-7.34-4.14-11.41-3.05-4.06,1.09-7.26,4.29-8.34,8.35-1.09,4.06.08,8.43,3.06,11.4,2.97,2.97,7.34,4.14,11.4,3.06Z"/><path d="M2404.15,161.05c4.06-1.09,7.26-4.29,8.35-8.35,1.09-4.06-.08-8.43-3.05-11.41s-7.34-4.14-11.41-3.05c-4.06,1.09-7.26,4.29-8.35,8.35-1.09,4.06.08,8.43,3.06,11.4,2.97,2.97,7.34,4.14,11.4,3.06Z"/><path d="M2287.55,1801.8c-4.06,1.09-7.26,4.29-8.35,8.35-1.09,4.06.08,8.43,3.06,11.4,2.97,2.97,7.34,4.14,11.4,3.06,4.06-1.09,7.26-4.29,8.35-8.35,1.09-4.06-.08-8.43-3.05-11.41-2.97-2.97-7.34-4.14-11.41-3.05Z"/><path d="M2254.69,1768.94c-4.06,1.09-7.26,4.29-8.34,8.35-1.09,4.06.08,8.43,3.06,11.4,2.97,2.97,7.34,4.14,11.4,3.05,4.06-1.09,7.26-4.28,8.35-8.35,1.09-4.06-.08-8.43-3.06-11.41s-7.34-4.14-11.41-3.05Z"/><path d="M2252.7,1836.64c-4.06,1.09-7.26,4.29-8.35,8.35-1.09,4.06.08,8.43,3.06,11.4,2.97,2.97,7.34,4.14,11.4,3.06,4.06-1.09,7.26-4.29,8.35-8.35,1.09-4.06-.08-8.43-3.05-11.41-2.97-2.97-7.34-4.14-11.41-3.05Z"/><path d="M2219.84,1803.78c-4.06,1.09-7.26,4.29-8.34,8.35-1.09,4.06.08,8.43,3.06,11.4,2.97,2.97,7.34,4.14,11.4,3.06,4.06-1.09,7.26-4.28,8.35-8.35,1.09-4.06-.08-8.43-3.06-11.41s-7.34-4.14-11.41-3.05Z"/><path d="M2320.46,1834.71c-4.06,1.09-7.26,4.29-8.35,8.35-1.09,4.06.08,8.43,3.06,11.4,2.97,2.97,7.34,4.14,11.4,3.06,4.06-1.09,7.26-4.29,8.35-8.35,1.09-4.06-.08-8.43-3.05-11.41s-7.34-4.14-11.41-3.05Z"/><path d="M2285.62,1869.56c-4.06,1.09-7.26,4.29-8.35,8.35-1.09,4.06.08,8.43,3.06,11.4,2.97,2.97,7.34,4.14,11.4,3.06,4.06-1.09,7.26-4.29,8.35-8.35,1.09-4.06-.08-8.43-3.05-11.41-2.97-2.97-7.34-4.14-11.41-3.05Z"/><path d="M2215.48,1873.86c-4.06,1.09-7.26,4.29-8.35,8.35-1.09,4.06.08,8.43,3.06,11.4,2.97,2.97,7.34,4.14,11.4,3.06,4.06-1.09,7.26-4.29,8.35-8.35,1.09-4.06-.08-8.43-3.05-11.41-2.97-2.97-7.34-4.14-11.41-3.05Z"/><path d="M2182.62,1841c-4.06,1.09-7.26,4.29-8.34,8.35-1.09,4.06.08,8.43,3.06,11.4,2.97,2.97,7.34,4.14,11.4,3.05,4.06-1.09,7.26-4.28,8.35-8.35,1.09-4.06-.08-8.43-3.06-11.41s-7.34-4.14-11.41-3.05Z"/><path d="M2262.86,1921.24c1.09-4.06-.08-8.43-3.05-11.41s-7.34-4.14-11.41-3.05c-4.06,1.09-7.26,4.29-8.35,8.35-1.09,4.06.08,8.43,3.06,11.4,2.23,2.23,5.24,3.44,8.33,3.46,1.03,0,2.06-.13,3.08-.4,4.06-1.09,7.26-4.29,8.35-8.35Z"/><rect x="2745" y="302.5" width="321.63" height="27.78" transform="translate(1672.1 2966.26) rotate(-71.25)" style="fill:#231f20;"/><rect x="2800.53" y="321.35" width="321.63" height="27.78" transform="translate(1691.92 3031.63) rotate(-71.25)" style="fill:#231f20;"/><rect x="2856.06" y="340.2" width="321.63" height="27.78" transform="translate(1711.75 3097.01) rotate(-71.25)" style="fill:#231f20;"/><rect x="2911.59" y="359.05" width="321.63" height="27.78" transform="translate(1731.58 3162.38) rotate(-71.25)" style="fill:#231f20;"/><rect x="2967.12" y="377.9" width="321.63" height="27.78" transform="translate(1751.41 3227.75) rotate(-71.25)" style="fill:#231f20;"/><rect x="3022.65" y="396.76" width="321.63" height="27.78" transform="translate(1771.24 3293.13) rotate(-71.25)" style="fill:#231f20;"/><path d="M3678.35,621.63c-1.84-1.69-4.31-2.5-6.8-2.23l-247.23,26.5-7.47.69c-3.45.32-6.38,2.65-7.46,5.95l-318.57,969.96c-.99,3.01-.26,6.31,1.89,8.63l181.63,195.47c1.02,1.09,2.28,1.89,3.65,2.34,1.38.45,2.87.56,4.34.28l262.14-49.71c3.11-.59,5.65-2.82,6.64-5.83l318.56-969.91c1.07-3.26.12-6.84-2.42-9.15l-188.91-173ZM3667.87,641.99l165.3,151.33-225.82,33.01-162.23-160.42,222.75-23.92ZM3276.87,1796.75l-162.51-174.89,310.39-945.04,166.05,164.21-313.94,955.72ZM3532.53,1759.2l-234.56,44.48,313.86-955.7,231.07-33.77-310.37,944.98Z" style="fill:#231f20;"/><polygon points="3297.97 1803.68 3532.53 1759.2 3842.9 814.22 3611.83 847.98 3297.97 1803.68" style="fill:#f40f78;"/><polygon points="3424.76 676.82 3114.37 1621.86 3276.87 1796.75 3590.81 841.03 3424.76 676.82" style="fill:#ff78b9;"/><polygon points="3833.17 793.32 3667.87 641.99 3445.12 665.91 3607.35 826.32 3833.17 793.32" style="fill:#fff;"/><path d="M3894.17,397.82c-54.5,73.31-39.2,177.28,34.09,231.79h0c21.51,16,46.02,26.32,71.74,30.55v-23.67c-20.73-4-40.49-12.48-57.93-25.45-63.05-46.89-76.21-136.35-29.33-199.4,22.06-29.66,53.55-48.12,87.26-54.65v-23.54c-40.84,6.78-79.24,28.61-105.83,64.37Z" style="fill:#231f20;"/><polygon points="2419.79 1312.88 2507.13 1345.93 2538.75 1258.08 2626.06 1291.15 2657.66 1203.3 2733.98 1232.2 2742.16 1210.59 2643.87 1173.36 2612.26 1261.21 2524.96 1228.14 2493.34 1316 2406 1282.95 2374.38 1370.81 2287.01 1337.78 2251.37 1436.7 2273.12 1444.53 2300.79 1367.7 2388.17 1400.74 2419.79 1312.88"/><path d="M2051.22,660.56c43.78-6.44,82.43-29.54,108.83-65.05,54.5-73.31,39.2-177.28-34.1-231.79-37.52-27.9-83.08-37.38-125.95-30.27v23.54c37.96-7.35,78.73.48,112.13,25.31,63.06,46.89,76.22,136.34,29.34,199.4-22.71,30.55-55.96,50.43-93.62,55.97-16.16,2.37-32.27,1.82-47.85-1.18v23.68c8.8,1.45,17.74,2.2,26.76,2.2,8.11,0,16.29-.6,24.46-1.8Z" style="fill:#231f20;"/><polygon points="2977.2 2916.97 3015.86 2861.24 2986.14 2840.63 2947.48 2896.35 2891.76 2857.69 2871.14 2887.41 2926.86 2926.07 2888.2 2981.79 2917.92 3002.41 2956.58 2946.68 3012.3 2985.34 3032.92 2955.63 2977.2 2916.97" style="fill:#231f20;"/><polygon points="3674.34 2301.52 3713 2245.8 3683.28 2225.18 3644.62 2280.9 3588.9 2242.24 3568.28 2271.96 3624 2310.62 3585.34 2366.34 3615.06 2386.96 3653.72 2331.24 3709.44 2369.9 3730.06 2340.18 3674.34 2301.52" style="fill:#231f20;"/><polygon points="2899.19 3455.38 2496.76 3584.13 2811.81 3875.55 2899.19 3455.38" style="fill:#f9de3d;"/><polygon points="3667.32 3925.43 3649.26 3888.83 3631.2 3925.43 3590.81 3931.29 3620.03 3959.78 3613.13 4000 3649.26 3981.01 3685.38 4000 3678.48 3959.78 3707.7 3931.29 3667.32 3925.43" style="fill:#231f20;"/><polygon points="2409.1 2700.61 2402.2 2740.83 2438.32 2721.84 2474.44 2740.83 2467.54 2700.61 2496.76 2672.12 2456.38 2666.25 2438.32 2629.66 2420.26 2666.25 2379.87 2672.12 2409.1 2700.61" style="fill:#231f20;"/><path d="M2443.31,2056.07c4.06-1.09,7.26-4.29,8.35-8.35,1.09-4.06-.08-8.43-3.05-11.41-2.97-2.97-7.34-4.14-11.41-3.05-4.06,1.09-7.26,4.29-8.35,8.35-1.09,4.06.09,8.43,3.06,11.4,2.97,2.97,7.34,4.14,11.4,3.06Z"/><path d="M2395.99,2008.75c-1.09,4.06.08,8.43,3.06,11.4,2.97,2.97,7.34,4.14,11.4,3.05,4.06-1.09,7.26-4.28,8.35-8.35,1.09-4.06-.08-8.43-3.06-11.41-2.23-2.23-5.25-3.45-8.33-3.45-1.03,0-2.06.13-3.08.4-4.06,1.09-7.26,4.29-8.34,8.35Z"/><path d="M2408.46,2090.91c4.06-1.09,7.26-4.29,8.35-8.35,1.09-4.06-.08-8.43-3.05-11.41-2.97-2.97-7.34-4.14-11.41-3.05-4.06,1.09-7.26,4.29-8.35,8.35-1.09,4.06.08,8.43,3.06,11.4,2.97,2.97,7.34,4.14,11.4,3.06Z"/><path d="M2375.6,2058.05c4.06-1.09,7.26-4.28,8.35-8.35,1.09-4.06-.08-8.43-3.06-11.41-2.97-2.97-7.34-4.14-11.41-3.05-4.06,1.09-7.26,4.29-8.34,8.35-1.09,4.06.08,8.43,3.06,11.4,2.97,2.97,7.34,4.14,11.4,3.06Z"/><path d="M2476.22,2088.98c4.06-1.09,7.26-4.29,8.35-8.35,1.09-4.06-.08-8.43-3.05-11.41-2.97-2.97-7.34-4.14-11.41-3.05-4.06,1.09-7.26,4.29-8.35,8.35-1.09,4.06.08,8.43,3.06,11.4,2.97,2.97,7.34,4.14,11.4,3.06Z"/><path d="M2441.37,2123.83c4.06-1.09,7.26-4.29,8.35-8.35,1.09-4.06-.08-8.43-3.05-11.41-2.97-2.97-7.34-4.14-11.41-3.05-4.06,1.09-7.26,4.29-8.35,8.35-1.09,4.06.08,8.43,3.06,11.4,2.97,2.97,7.34,4.14,11.4,3.06Z"/><path d="M2371.24,2128.13c4.06-1.09,7.26-4.29,8.35-8.35,1.09-4.06-.08-8.43-3.05-11.41-2.97-2.97-7.34-4.14-11.41-3.05-4.06,1.09-7.26,4.29-8.35,8.35-1.09,4.06.08,8.43,3.06,11.4,2.97,2.97,7.34,4.14,11.4,3.06Z"/><path d="M2338.38,2095.27c4.06-1.09,7.26-4.28,8.35-8.35,1.09-4.06-.08-8.43-3.06-11.41-2.97-2.97-7.34-4.14-11.41-3.05-4.06,1.09-7.26,4.29-8.34,8.35-1.09,4.06.08,8.43,3.06,11.4,2.97,2.97,7.34,4.14,11.4,3.06Z"/><path d="M2404.15,2161.05c4.06-1.09,7.26-4.29,8.35-8.35,1.09-4.06-.08-8.43-3.05-11.41s-7.34-4.14-11.41-3.05c-4.06,1.09-7.26,4.29-8.35,8.35-1.09,4.06.08,8.43,3.06,11.4,2.97,2.97,7.34,4.14,11.4,3.06Z"/><path d="M2287.55,3801.8c-4.06,1.09-7.26,4.29-8.35,8.35-1.09,4.06.08,8.43,3.06,11.4,2.97,2.97,7.34,4.14,11.4,3.06,4.06-1.09,7.26-4.29,8.35-8.35,1.09-4.06-.08-8.43-3.05-11.41-2.97-2.97-7.34-4.14-11.41-3.05Z"/><path d="M2254.69,3768.94c-4.06,1.09-7.26,4.29-8.34,8.35-1.09,4.06.08,8.43,3.06,11.4,2.97,2.97,7.34,4.14,11.4,3.05,4.06-1.09,7.26-4.28,8.35-8.35,1.09-4.06-.08-8.43-3.06-11.41s-7.34-4.14-11.41-3.05Z"/><path d="M2252.7,3836.64c-4.06,1.09-7.26,4.29-8.35,8.35-1.09,4.06.08,8.43,3.06,11.4,2.97,2.97,7.34,4.14,11.4,3.06,4.06-1.09,7.26-4.29,8.35-8.35,1.09-4.06-.08-8.43-3.05-11.41-2.97-2.97-7.34-4.14-11.41-3.05Z"/><path d="M2219.84,3803.78c-4.06,1.09-7.26,4.29-8.34,8.35-1.09,4.06.08,8.43,3.06,11.4,2.97,2.97,7.34,4.14,11.4,3.06,4.06-1.09,7.26-4.28,8.35-8.35,1.09-4.06-.08-8.43-3.06-11.41s-7.34-4.14-11.41-3.05Z"/><path d="M2320.46,3834.71c-4.06,1.09-7.26,4.29-8.35,8.35-1.09,4.06.08,8.43,3.06,11.4,2.97,2.97,7.34,4.14,11.4,3.06,4.06-1.09,7.26-4.29,8.35-8.35,1.09-4.06-.08-8.43-3.05-11.41s-7.34-4.14-11.41-3.05Z"/><path d="M2285.62,3869.56c-4.06,1.09-7.26,4.29-8.35,8.35-1.09,4.06.08,8.43,3.06,11.4,2.97,2.97,7.34,4.14,11.4,3.06,4.06-1.09,7.26-4.29,8.35-8.35,1.09-4.06-.08-8.43-3.05-11.41-2.97-2.97-7.34-4.14-11.41-3.05Z"/><path d="M2215.48,3873.86c-4.06,1.09-7.26,4.29-8.35,8.35-1.09,4.06.08,8.43,3.06,11.4,2.97,2.97,7.34,4.14,11.4,3.06,4.06-1.09,7.26-4.29,8.35-8.35,1.09-4.06-.08-8.43-3.05-11.41-2.97-2.97-7.34-4.14-11.41-3.05Z"/><path d="M2182.62,3841c-4.06,1.09-7.26,4.29-8.34,8.35-1.09,4.06.08,8.43,3.06,11.4,2.97,2.97,7.34,4.14,11.4,3.05,4.06-1.09,7.26-4.28,8.35-8.35,1.09-4.06-.08-8.43-3.06-11.41s-7.34-4.14-11.41-3.05Z"/><path d="M2262.86,3921.24c1.09-4.06-.08-8.43-3.05-11.41s-7.34-4.14-11.41-3.05c-4.06,1.09-7.26,4.29-8.35,8.35-1.09,4.06.08,8.43,3.06,11.4,2.23,2.23,5.24,3.44,8.33,3.46,1.03,0,2.06-.13,3.08-.4,4.06-1.09,7.26-4.29,8.35-8.35Z"/><rect x="2745" y="2302.5" width="321.63" height="27.78" transform="translate(-221.74 4323.32) rotate(-71.25)" style="fill:#231f20;"/><rect x="2800.53" y="2321.35" width="321.63" height="27.78" transform="translate(-201.92 4388.7) rotate(-71.25)" style="fill:#231f20;"/><rect x="2856.06" y="2340.2" width="321.63" height="27.78" transform="translate(-182.09 4454.07) rotate(-71.25)" style="fill:#231f20;"/><rect x="2911.59" y="2359.05" width="321.63" height="27.78" transform="translate(-162.26 4519.44) rotate(-71.25)" style="fill:#231f20;"/><rect x="2967.12" y="2377.9" width="321.63" height="27.78" transform="translate(-142.43 4584.82) rotate(-71.25)" style="fill:#231f20;"/><rect x="3022.65" y="2396.76" width="321.63" height="27.78" transform="translate(-122.6 4650.19) rotate(-71.25)" style="fill:#231f20;"/><path d="M3678.35,2621.63c-1.84-1.69-4.31-2.5-6.8-2.23l-247.23,26.5-7.47.69c-3.45.32-6.38,2.66-7.46,5.95l-318.57,969.96c-.99,3.01-.26,6.31,1.89,8.63l181.63,195.47c1.02,1.09,2.28,1.89,3.65,2.34,1.38.45,2.87.56,4.34.28l262.14-49.71c3.11-.59,5.65-2.82,6.64-5.83l318.56-969.91c1.07-3.26.12-6.84-2.42-9.15l-188.91-173ZM3667.87,2641.99l165.3,151.33-225.82,33.01-162.23-160.42,222.75-23.92ZM3276.87,3796.75l-162.51-174.89,310.39-945.04,166.05,164.21-313.94,955.72ZM3532.53,3759.2l-234.56,44.48,313.86-955.7,231.07-33.77-310.37,944.98Z" style="fill:#231f20;"/><polygon points="3297.97 3803.68 3532.53 3759.2 3842.9 2814.22 3611.83 2847.98 3297.97 3803.68" style="fill:#f40f78;"/><polygon points="3424.76 2676.82 3114.37 3621.86 3276.87 3796.75 3590.81 2841.03 3424.76 2676.82" style="fill:#ff78b9;"/><polygon points="3833.17 2793.32 3667.87 2641.99 3445.12 2665.91 3607.35 2826.32 3833.17 2793.32" style="fill:#fff;"/><path d="M3894.17,2397.82c-54.5,73.31-39.2,177.28,34.09,231.79h0c21.51,16,46.02,26.32,71.74,30.55v-23.67c-20.73-4-40.49-12.48-57.93-25.45-63.05-46.89-76.21-136.35-29.33-199.4,22.06-29.66,53.55-48.12,87.26-54.65v-23.54c-40.84,6.78-79.24,28.61-105.83,64.37Z" style="fill:#231f20;"/><polygon points="2419.79 3312.88 2507.13 3345.93 2538.75 3258.08 2626.06 3291.15 2657.66 3203.3 2733.98 3232.2 2742.16 3210.59 2643.87 3173.36 2612.26 3261.21 2524.96 3228.14 2493.34 3316 2406 3282.95 2374.38 3370.81 2287.01 3337.78 2251.37 3436.7 2273.12 3444.53 2300.79 3367.7 2388.17 3400.74 2419.79 3312.88"/><path d="M2051.22,2660.56c43.78-6.44,82.43-29.54,108.83-65.05,54.5-73.31,39.2-177.28-34.1-231.79-37.52-27.9-83.08-37.38-125.95-30.27v23.54c37.96-7.35,78.73.48,112.13,25.31,63.06,46.89,76.22,136.34,29.34,199.4-22.71,30.55-55.96,50.43-93.62,55.97-16.16,2.37-32.27,1.82-47.85-1.18v23.68c8.8,1.45,17.74,2.2,26.76,2.2,8.11,0,16.29-.6,24.46-1.8Z" style="fill:#231f20;"/><polygon points="977.2 2916.97 1015.86 2861.24 986.14 2840.63 947.48 2896.35 891.76 2857.69 871.14 2887.41 926.86 2926.07 888.2 2981.79 917.92 3002.41 956.58 2946.68 1012.3 2985.34 1032.92 2955.63 977.2 2916.97" style="fill:#231f20;"/><polygon points="1674.34 2301.52 1713 2245.8 1683.28 2225.18 1644.62 2280.9 1588.9 2242.24 1568.28 2271.96 1624 2310.62 1585.34 2366.34 1615.06 2386.96 1653.72 2331.24 1709.44 2369.9 1730.06 2340.18 1674.34 2301.52" style="fill:#231f20;"/><polygon points="899.19 3455.38 496.76 3584.13 811.81 3875.55 899.19 3455.38" style="fill:#f9de3d;"/><polygon points="1667.32 3925.43 1649.26 3888.83 1631.2 3925.43 1590.81 3931.29 1620.03 3959.78 1613.13 4000 1649.26 3981.01 1685.38 4000 1678.48 3959.78 1707.7 3931.29 1667.32 3925.43" style="fill:#231f20;"/><polygon points="409.1 2700.61 402.2 2740.83 438.32 2721.84 474.44 2740.83 467.54 2700.61 496.76 2672.12 456.38 2666.25 438.32 2629.66 420.26 2666.25 379.87 2672.12 409.1 2700.61" style="fill:#231f20;"/><path d="M443.31,2056.07c4.06-1.09,7.26-4.29,8.35-8.35,1.09-4.06-.08-8.43-3.05-11.41-2.97-2.97-7.34-4.14-11.41-3.05-4.06,1.09-7.26,4.29-8.35,8.35-1.09,4.06.09,8.43,3.06,11.4,2.97,2.97,7.34,4.14,11.4,3.06Z"/><path d="M395.99,2008.75c-1.09,4.06.08,8.43,3.06,11.4,2.97,2.97,7.34,4.14,11.4,3.05,4.06-1.09,7.26-4.28,8.35-8.35,1.09-4.06-.08-8.43-3.06-11.41-2.23-2.23-5.25-3.45-8.33-3.45-1.03,0-2.06.13-3.08.4-4.06,1.09-7.26,4.29-8.34,8.35Z"/><path d="M408.46,2090.91c4.06-1.09,7.26-4.29,8.35-8.35,1.09-4.06-.08-8.43-3.05-11.41-2.97-2.97-7.34-4.14-11.41-3.05-4.06,1.09-7.26,4.29-8.35,8.35-1.09,4.06.08,8.43,3.06,11.4,2.97,2.97,7.34,4.14,11.4,3.06Z"/><path d="M375.6,2058.05c4.06-1.09,7.26-4.28,8.35-8.35,1.09-4.06-.08-8.43-3.06-11.41-2.97-2.97-7.34-4.14-11.41-3.05-4.06,1.09-7.26,4.29-8.34,8.35-1.09,4.06.08,8.43,3.06,11.4,2.97,2.97,7.34,4.14,11.4,3.06Z"/><path d="M476.22,2088.98c4.06-1.09,7.26-4.29,8.35-8.35,1.09-4.06-.08-8.43-3.05-11.41-2.97-2.97-7.34-4.14-11.41-3.05-4.06,1.09-7.26,4.29-8.35,8.35-1.09,4.06.08,8.43,3.06,11.4,2.97,2.97,7.34,4.14,11.4,3.06Z"/><path d="M441.37,2123.83c4.06-1.09,7.26-4.29,8.35-8.35,1.09-4.06-.08-8.43-3.05-11.41-2.97-2.97-7.34-4.14-11.41-3.05-4.06,1.09-7.26,4.29-8.35,8.35-1.09,4.06.08,8.43,3.06,11.4,2.97,2.97,7.34,4.14,11.4,3.06Z"/><path d="M371.24,2128.13c4.06-1.09,7.26-4.29,8.35-8.35,1.09-4.06-.08-8.43-3.05-11.41-2.97-2.97-7.34-4.14-11.41-3.05-4.06,1.09-7.26,4.29-8.35,8.35-1.09,4.06.08,8.43,3.06,11.4,2.97,2.97,7.34,4.14,11.4,3.06Z"/><path d="M338.38,2095.27c4.06-1.09,7.26-4.28,8.35-8.35,1.09-4.06-.08-8.43-3.06-11.41-2.97-2.97-7.34-4.14-11.41-3.05-4.06,1.09-7.26,4.29-8.34,8.35-1.09,4.06.08,8.43,3.06,11.4,2.97,2.97,7.34,4.14,11.4,3.06Z"/><path d="M404.15,2161.05c4.06-1.09,7.26-4.29,8.35-8.35,1.09-4.06-.08-8.43-3.05-11.41-2.97-2.97-7.34-4.14-11.41-3.05-4.06,1.09-7.26,4.29-8.35,8.35-1.09,4.06.08,8.43,3.06,11.4,2.97,2.97,7.34,4.14,11.4,3.06Z"/><path d="M287.55,3801.8c-4.06,1.09-7.26,4.29-8.35,8.35-1.09,4.06.08,8.43,3.06,11.4,2.97,2.97,7.34,4.14,11.4,3.06,4.06-1.09,7.26-4.29,8.35-8.35,1.09-4.06-.08-8.43-3.05-11.41-2.97-2.97-7.34-4.14-11.41-3.05Z"/><path d="M254.69,3768.94c-4.06,1.09-7.26,4.29-8.34,8.35-1.09,4.06.08,8.43,3.06,11.4,2.97,2.97,7.34,4.14,11.4,3.05,4.06-1.09,7.26-4.28,8.35-8.35,1.09-4.06-.08-8.43-3.06-11.41-2.97-2.97-7.34-4.14-11.41-3.05Z"/><path d="M252.7,3836.64c-4.06,1.09-7.26,4.29-8.35,8.35-1.09,4.06.08,8.43,3.06,11.4,2.97,2.97,7.34,4.14,11.4,3.06,4.06-1.09,7.26-4.29,8.35-8.35,1.09-4.06-.08-8.43-3.05-11.41-2.97-2.97-7.34-4.14-11.41-3.05Z"/><path d="M219.84,3803.78c-4.06,1.09-7.26,4.29-8.34,8.35-1.09,4.06.08,8.43,3.06,11.4,2.97,2.97,7.34,4.14,11.4,3.06,4.06-1.09,7.26-4.28,8.35-8.35,1.09-4.06-.08-8.43-3.06-11.41-2.97-2.97-7.34-4.14-11.41-3.05Z"/><path d="M320.46,3834.71c-4.06,1.09-7.26,4.29-8.35,8.35-1.09,4.06.08,8.43,3.06,11.4,2.97,2.97,7.34,4.14,11.4,3.06,4.06-1.09,7.26-4.29,8.35-8.35,1.09-4.06-.08-8.43-3.05-11.41-2.97-2.97-7.34-4.14-11.41-3.05Z"/><path d="M285.62,3869.56c-4.06,1.09-7.26,4.29-8.35,8.35-1.09,4.06.08,8.43,3.06,11.4,2.97,2.97,7.34,4.14,11.4,3.06,4.06-1.09,7.26-4.29,8.35-8.35,1.09-4.06-.08-8.43-3.05-11.41-2.97-2.97-7.34-4.14-11.41-3.05Z"/><path d="M215.48,3873.86c-4.06,1.09-7.26,4.29-8.35,8.35-1.09,4.06.08,8.43,3.06,11.4,2.97,2.97,7.34,4.14,11.4,3.06,4.06-1.09,7.26-4.29,8.35-8.35,1.09-4.06-.08-8.43-3.05-11.41-2.97-2.97-7.34-4.14-11.41-3.05Z"/><path d="M182.62,3841c-4.06,1.09-7.26,4.29-8.34,8.35-1.09,4.06.08,8.43,3.06,11.4,2.97,2.97,7.34,4.14,11.4,3.05,4.06-1.09,7.26-4.28,8.35-8.35,1.09-4.06-.08-8.43-3.06-11.41-2.97-2.97-7.34-4.14-11.41-3.05Z"/><path d="M262.86,3921.24c1.09-4.06-.08-8.43-3.05-11.41-2.97-2.97-7.34-4.14-11.41-3.05-4.06,1.09-7.26,4.29-8.35,8.35-1.09,4.06.08,8.43,3.06,11.4,2.23,2.23,5.24,3.44,8.33,3.46,1.03,0,2.06-.13,3.08-.4,4.06-1.09,7.26-4.29,8.35-8.35Z"/><rect x="745" y="2302.5" width="321.63" height="27.78" transform="translate(-1578.81 2429.48) rotate(-71.25)" style="fill:#231f20;"/><rect x="800.53" y="2321.35" width="321.63" height="27.78" transform="translate(-1558.98 2494.86) rotate(-71.25)" style="fill:#231f20;"/><rect x="856.06" y="2340.2" width="321.63" height="27.78" transform="translate(-1539.15 2560.23) rotate(-71.25)" style="fill:#231f20;"/><rect x="911.59" y="2359.05" width="321.63" height="27.78" transform="translate(-1519.32 2625.6) rotate(-71.25)" style="fill:#231f20;"/><rect x="967.12" y="2377.9" width="321.63" height="27.78" transform="translate(-1499.5 2690.98) rotate(-71.25)" style="fill:#231f20;"/><rect x="1022.65" y="2396.76" width="321.63" height="27.78" transform="translate(-1479.67 2756.35) rotate(-71.25)" style="fill:#231f20;"/><path d="M1678.35,2621.63c-1.84-1.69-4.31-2.5-6.8-2.23l-247.23,26.5-7.47.69c-3.45.32-6.38,2.66-7.46,5.95l-318.57,969.96c-.99,3.01-.26,6.31,1.89,8.63l181.63,195.47c1.02,1.09,2.28,1.89,3.65,2.34,1.38.45,2.87.56,4.34.28l262.14-49.71c3.11-.59,5.65-2.82,6.64-5.83l318.56-969.91c1.07-3.26.12-6.84-2.42-9.15l-188.91-173ZM1667.87,2641.99l165.3,151.33-225.82,33.01-162.23-160.42,222.74-23.92ZM1276.87,3796.75l-162.51-174.89,310.39-945.04,166.05,164.21-313.94,955.72ZM1532.53,3759.2l-234.56,44.48,313.86-955.7,231.07-33.77-310.37,944.98Z" style="fill:#231f20;"/><polygon points="1297.97 3803.68 1532.53 3759.2 1842.9 2814.22 1611.83 2847.98 1297.97 3803.68" style="fill:#f40f78;"/><polygon points="1424.76 2676.82 1114.37 3621.86 1276.87 3796.75 1590.81 2841.03 1424.76 2676.82" style="fill:#ff78b9;"/><polygon points="1833.17 2793.32 1667.87 2641.99 1445.12 2665.91 1607.35 2826.32 1833.17 2793.32" style="fill:#fff;"/><path d="M1894.17,2397.82c-54.5,73.31-39.2,177.28,34.09,231.79h0c21.51,16,46.02,26.32,71.74,30.55v-23.67c-20.73-4-40.49-12.48-57.93-25.45-63.05-46.89-76.21-136.35-29.33-199.4,22.06-29.66,53.55-48.12,87.26-54.65v-23.54c-40.84,6.78-79.24,28.61-105.83,64.37Z" style="fill:#231f20;"/><polygon points="419.79 3312.88 507.13 3345.93 538.75 3258.08 626.06 3291.15 657.66 3203.3 733.98 3232.2 742.16 3210.59 643.87 3173.36 612.26 3261.21 524.96 3228.14 493.34 3316 406 3282.95 374.38 3370.81 287.01 3337.78 251.37 3436.7 273.12 3444.53 300.79 3367.7 388.17 3400.74 419.79 3312.88"/><path d="M51.22,2660.56c43.78-6.44,82.43-29.54,108.83-65.05,54.5-73.31,39.2-177.28-34.1-231.79-37.52-27.9-83.08-37.38-125.95-30.27v23.54c37.96-7.35,78.73.48,112.13,25.31,63.06,46.89,76.22,136.34,29.34,199.4-22.71,30.55-55.96,50.43-93.62,55.97-16.16,2.37-32.27,1.82-47.85-1.18v23.68c8.8,1.45,17.74,2.2,26.76,2.2,8.11,0,16.29-.6,24.46-1.8Z" style="fill:#231f20;"/><polygon points="4977.2 2916.97 5015.86 2861.24 4986.14 2840.63 4947.48 2896.35 4891.76 2857.69 4871.14 2887.41 4926.86 2926.07 4888.2 2981.79 4917.92 3002.41 4956.58 2946.68 5012.3 2985.34 5032.92 2955.63 4977.2 2916.97" style="fill:#231f20;"/><polygon points="5674.34 2301.52 5713 2245.8 5683.28 2225.18 5644.62 2280.9 5588.9 2242.24 5568.28 2271.96 5624 2310.62 5585.34 2366.34 5615.06 2386.96 5653.72 2331.24 5709.44 2369.9 5730.06 2340.18 5674.34 2301.52" style="fill:#231f20;"/><polygon points="4899.19 3455.38 4496.76 3584.13 4811.81 3875.55 4899.19 3455.38" style="fill:#f9de3d;"/><polygon points="5667.32 3925.43 5649.26 3888.83 5631.2 3925.43 5590.81 3931.29 5620.03 3959.78 5613.13 4000 5649.26 3981.01 5685.38 4000 5678.48 3959.78 5707.7 3931.29 5667.32 3925.43" style="fill:#231f20;"/><polygon points="4409.1 2700.61 4402.2 2740.83 4438.32 2721.84 4474.44 2740.83 4467.54 2700.61 4496.76 2672.12 4456.38 2666.25 4438.32 2629.66 4420.26 2666.25 4379.87 2672.12 4409.1 2700.61" style="fill:#231f20;"/><path d="M4443.31,2056.07c4.06-1.09,7.26-4.29,8.35-8.35,1.09-4.06-.08-8.43-3.05-11.41-2.97-2.97-7.34-4.14-11.41-3.05-4.06,1.09-7.26,4.29-8.35,8.35-1.09,4.06.09,8.43,3.06,11.4,2.97,2.97,7.34,4.14,11.4,3.06Z"/><path d="M4395.99,2008.75c-1.09,4.06.08,8.43,3.06,11.4,2.97,2.97,7.34,4.14,11.4,3.05,4.06-1.09,7.26-4.28,8.35-8.35,1.09-4.06-.08-8.43-3.06-11.41-2.23-2.23-5.25-3.45-8.33-3.45-1.03,0-2.06.13-3.08.4-4.06,1.09-7.26,4.29-8.34,8.35Z"/><path d="M4408.46,2090.91c4.06-1.09,7.26-4.29,8.35-8.35,1.09-4.06-.08-8.43-3.05-11.41-2.97-2.97-7.34-4.14-11.41-3.05-4.06,1.09-7.26,4.29-8.35,8.35-1.09,4.06.08,8.43,3.06,11.4,2.97,2.97,7.34,4.14,11.4,3.06Z"/><path d="M4375.6,2058.05c4.06-1.09,7.26-4.28,8.35-8.35,1.09-4.06-.08-8.43-3.06-11.41-2.97-2.97-7.34-4.14-11.41-3.05-4.06,1.09-7.26,4.29-8.34,8.35-1.09,4.06.08,8.43,3.06,11.4,2.97,2.97,7.34,4.14,11.4,3.06Z"/><path d="M4476.22,2088.98c4.06-1.09,7.26-4.29,8.35-8.35,1.09-4.06-.08-8.43-3.05-11.41-2.97-2.97-7.34-4.14-11.41-3.05-4.06,1.09-7.26,4.29-8.35,8.35-1.09,4.06.08,8.43,3.06,11.4,2.97,2.97,7.34,4.14,11.4,3.06Z"/><path d="M4441.37,2123.83c4.06-1.09,7.26-4.29,8.35-8.35,1.09-4.06-.08-8.43-3.05-11.41-2.97-2.97-7.34-4.14-11.41-3.05-4.06,1.09-7.26,4.29-8.35,8.35-1.09,4.06.08,8.43,3.06,11.4,2.97,2.97,7.34,4.14,11.4,3.06Z"/><path d="M4371.24,2128.13c4.06-1.09,7.26-4.29,8.35-8.35,1.09-4.06-.08-8.43-3.05-11.41-2.97-2.97-7.34-4.14-11.41-3.05-4.06,1.09-7.26,4.29-8.35,8.35-1.09,4.06.08,8.43,3.06,11.4,2.97,2.97,7.34,4.14,11.4,3.06Z"/><path d="M4338.38,2095.27c4.06-1.09,7.26-4.28,8.35-8.35,1.09-4.06-.08-8.43-3.06-11.41-2.97-2.97-7.34-4.14-11.41-3.05-4.06,1.09-7.26,4.29-8.34,8.35-1.09,4.06.08,8.43,3.06,11.4,2.97,2.97,7.34,4.14,11.4,3.06Z"/><path d="M4404.15,2161.05c4.06-1.09,7.26-4.29,8.35-8.35,1.09-4.06-.08-8.43-3.05-11.41s-7.34-4.14-11.41-3.05c-4.06,1.09-7.26,4.29-8.35,8.35-1.09,4.06.08,8.43,3.06,11.4,2.97,2.97,7.34,4.14,11.4,3.06Z"/><path d="M4287.55,3801.8c-4.06,1.09-7.26,4.29-8.35,8.35-1.09,4.06.08,8.43,3.06,11.4,2.97,2.97,7.34,4.14,11.4,3.06,4.06-1.09,7.26-4.29,8.35-8.35,1.09-4.06-.08-8.43-3.05-11.41-2.97-2.97-7.34-4.14-11.41-3.05Z"/><path d="M4254.69,3768.94c-4.06,1.09-7.26,4.29-8.34,8.35-1.09,4.06.08,8.43,3.06,11.4,2.97,2.97,7.34,4.14,11.4,3.05,4.06-1.09,7.26-4.28,8.35-8.35,1.09-4.06-.08-8.43-3.06-11.41s-7.34-4.14-11.41-3.05Z"/><path d="M4252.7,3836.64c-4.06,1.09-7.26,4.29-8.35,8.35-1.09,4.06.08,8.43,3.06,11.4,2.97,2.97,7.34,4.14,11.4,3.06,4.06-1.09,7.26-4.29,8.35-8.35,1.09-4.06-.08-8.43-3.05-11.41-2.97-2.97-7.34-4.14-11.41-3.05Z"/><path d="M4219.84,3803.78c-4.06,1.09-7.26,4.29-8.34,8.35-1.09,4.06.08,8.43,3.06,11.4,2.97,2.97,7.34,4.14,11.4,3.06,4.06-1.09,7.26-4.28,8.35-8.35,1.09-4.06-.08-8.43-3.06-11.41s-7.34-4.14-11.41-3.05Z"/><path d="M4320.46,3834.71c-4.06,1.09-7.26,4.29-8.35,8.35-1.09,4.06.08,8.43,3.06,11.4,2.97,2.97,7.34,4.14,11.4,3.06,4.06-1.09,7.26-4.29,8.35-8.35,1.09-4.06-.08-8.43-3.05-11.41-2.97-2.97-7.34-4.14-11.41-3.05Z"/><path d="M4285.62,3869.56c-4.06,1.09-7.26,4.29-8.35,8.35-1.09,4.06.08,8.43,3.06,11.4,2.97,2.97,7.34,4.14,11.4,3.06,4.06-1.09,7.26-4.29,8.35-8.35,1.09-4.06-.08-8.43-3.05-11.41-2.97-2.97-7.34-4.14-11.41-3.05Z"/><path d="M4215.48,3873.86c-4.06,1.09-7.26,4.29-8.35,8.35-1.09,4.06.08,8.43,3.06,11.4,2.97,2.97,7.34,4.14,11.4,3.06,4.06-1.09,7.26-4.29,8.35-8.35,1.09-4.06-.08-8.43-3.05-11.41-2.97-2.97-7.34-4.14-11.41-3.05Z"/><path d="M4182.62,3841c-4.06,1.09-7.26,4.29-8.34,8.35-1.09,4.06.08,8.43,3.06,11.4,2.97,2.97,7.34,4.14,11.4,3.05,4.06-1.09,7.26-4.28,8.35-8.35,1.09-4.06-.08-8.43-3.06-11.41-2.97-2.97-7.34-4.14-11.41-3.05Z"/><path d="M4262.86,3921.24c1.09-4.06-.08-8.43-3.05-11.41s-7.34-4.14-11.41-3.05c-4.06,1.09-7.26,4.29-8.35,8.35-1.09,4.06.08,8.43,3.06,11.4,2.23,2.23,5.24,3.44,8.33,3.46,1.03,0,2.06-.13,3.08-.4,4.06-1.09,7.26-4.29,8.35-8.35Z"/><rect x="4745" y="2302.5" width="321.63" height="27.78" transform="translate(1135.32 6217.16) rotate(-71.25)" style="fill:#231f20;"/><rect x="4800.53" y="2321.35" width="321.63" height="27.78" transform="translate(1155.15 6282.54) rotate(-71.25)" style="fill:#231f20;"/><rect x="4856.06" y="2340.2" width="321.63" height="27.78" transform="translate(1174.98 6347.91) rotate(-71.25)" style="fill:#231f20;"/><rect x="4911.59" y="2359.05" width="321.63" height="27.78" transform="translate(1194.8 6413.28) rotate(-71.25)" style="fill:#231f20;"/><rect x="4967.12" y="2377.9" width="321.63" height="27.78" transform="translate(1214.63 6478.66) rotate(-71.25)" style="fill:#231f20;"/><rect x="5022.65" y="2396.76" width="321.63" height="27.78" transform="translate(1234.46 6544.03) rotate(-71.25)" style="fill:#231f20;"/><path d="M5678.35,2621.63c-1.84-1.69-4.31-2.5-6.8-2.23l-247.23,26.5-7.47.69c-3.45.32-6.38,2.66-7.46,5.95l-318.57,969.96c-.99,3.01-.26,6.31,1.89,8.63l181.63,195.47c1.01,1.09,2.28,1.89,3.65,2.34,1.38.45,2.87.56,4.34.28l262.14-49.71c3.11-.59,5.65-2.82,6.64-5.83l318.56-969.91c1.07-3.26.12-6.84-2.42-9.15l-188.91-173ZM5667.87,2641.99l165.3,151.33-225.82,33.01-162.23-160.42,222.75-23.92ZM5276.87,3796.75l-162.51-174.89,310.39-945.04,166.05,164.21-313.94,955.72ZM5532.53,3759.2l-234.56,44.48,313.86-955.7,231.07-33.77-310.37,944.98Z" style="fill:#231f20;"/><polygon points="5297.97 3803.68 5532.53 3759.2 5842.9 2814.22 5611.83 2847.98 5297.97 3803.68" style="fill:#f40f78;"/><polygon points="5424.76 2676.82 5114.37 3621.86 5276.87 3796.75 5590.81 2841.03 5424.76 2676.82" style="fill:#ff78b9;"/><polygon points="5833.17 2793.32 5667.87 2641.99 5445.12 2665.91 5607.35 2826.32 5833.17 2793.32" style="fill:#fff;"/><path d="M5894.17,2397.82c-54.5,73.31-39.2,177.28,34.09,231.79h0c21.51,16,46.02,26.32,71.74,30.55v-23.67c-20.73-4-40.49-12.48-57.93-25.45-63.05-46.89-76.21-136.35-29.33-199.4,22.06-29.66,53.55-48.12,87.26-54.65v-23.54c-40.84,6.78-79.24,28.61-105.83,64.37Z" style="fill:#231f20;"/><polygon points="4419.79 3312.88 4507.13 3345.93 4538.75 3258.08 4626.06 3291.15 4657.66 3203.3 4733.98 3232.2 4742.16 3210.59 4643.87 3173.36 4612.26 3261.21 4524.96 3228.14 4493.34 3316 4406 3282.95 4374.38 3370.81 4287.01 3337.78 4251.37 3436.7 4273.12 3444.53 4300.79 3367.7 4388.17 3400.74 4419.79 3312.88"/><path d="M4051.22,2660.56c43.78-6.44,82.43-29.54,108.83-65.05,54.5-73.31,39.2-177.28-34.1-231.79-37.52-27.9-83.08-37.38-125.95-30.27v23.54c37.96-7.35,78.73.48,112.13,25.31,63.06,46.89,76.22,136.34,29.34,199.4-22.71,30.55-55.96,50.43-93.62,55.97-16.16,2.37-32.27,1.82-47.85-1.18v23.68c8.8,1.45,17.74,2.2,26.76,2.2,8.11,0,16.29-.6,24.46-1.8Z" style="fill:#231f20;"/></svg>