<?xml version="1.0" encoding="UTF-8"?><svg id="Layer_2" xmlns="http://www.w3.org/2000/svg" xmlns:xlink="http://www.w3.org/1999/xlink" viewBox="0 0 817 817"><defs><pattern id="New_Pattern_10" x="0" y="0" width="300" height="300" patternTransform="translate(-1108 2065)" patternUnits="userSpaceOnUse" viewBox="0 0 300 300"><rect width="300" height="300" style="fill:none;"/><rect x="2" y="297" width="300" height="300" style="fill:#fc6eb3;"/><polygon points="122 304.76 129.22 298.49 166.78 341.73 159.56 348 122 304.76" style="fill:#bf50b6;"/><rect x="-298" y="297" width="300" height="300" style="fill:#fc6eb3;"/><rect x="2" y="-3" width="300" height="300" style="fill:#fc6eb3;"/><polygon points="122 4.76 129.22 -1.51 166.78 41.73 159.56 48 122 4.76" style="fill:#bf50b6;"/><polygon points="43.71 162.56 37 157.18 69.21 117 75.92 122.38 43.71 162.56" style="fill:#bf50b6;"/><polygon points="261.66 259.79 265.71 254 300.34 278.21 296.29 284 261.66 259.79" style="fill:#bf50b6;"/><polygon points="139.02 108 147.04 110.6 134.02 150.8 126 148.2 139.02 108" style="fill:#bf50b6;"/><polygon points="262.34 25 265.64 31.24 228.3 51.02 225 44.79 262.34 25" style="fill:#bf50b6;"/><polygon points="196.28 183.48 195 178.68 223.74 171 225.03 175.8 196.28 183.48" style="fill:#bf50b6;"/><polygon points="283.03 104.69 281.23 100.06 308.97 89.31 310.77 93.94 283.03 104.69" style="fill:#bf50b6;"/><polygon points="219.62 105.39 205.76 109.08 199.77 122.12 194.59 117.12 200.64 103.95 214.46 100.26 218.35 86.12 232.59 80.79 237.6 85.94 223.51 91.22 219.62 105.39" style="fill:#ffb47a;"/><polygon points="77.19 236.22 90.29 229.7 93.63 215.45 99.83 219.39 96.46 233.79 83.39 240.29 82.39 255.23 69.23 263.47 63.17 259.33 76.19 251.18 77.19 236.22" style="fill:#ffb47a;"/><polygon points="189.71 243.1 194.12 254.17 205.46 257.84 201.85 262.6 190.38 258.9 185.98 247.86 173.93 246.04 168.13 234.8 171.89 230.17 177.63 241.28 189.71 243.1" style="fill:#ffb47a;"/><polygon points="62.27 50.68 66 62 77.11 66.34 73.21 70.88 61.99 66.5 58.27 55.2 46.34 52.66 41.23 41.09 45.27 36.69 50.33 48.13 62.27 50.68" style="fill:#ffb47a;"/><polygon points="293.95 200.32 293.31 188.42 283.73 181.32 288.68 177.96 298.36 185.13 299 197 309.85 202.57 311.75 215.07 306.7 218.26 304.82 205.9 293.95 200.32" style="fill:#ffb47a;"/><rect x="-298" y="-3" width="300" height="300" style="fill:#fc6eb3;"/><polygon points="-38.34 259.79 -34.29 254 .34 278.21 -3.71 284 -38.34 259.79" style="fill:#bf50b6;"/><polygon points="-16.97 104.69 -18.77 100.06 8.97 89.31 10.77 93.94 -16.97 104.69" style="fill:#bf50b6;"/><polygon points="-6.05 200.32 -6.69 188.42 -16.27 181.32 -11.32 177.96 -1.64 185.13 -1 197 9.85 202.57 11.75 215.07 6.7 218.26 4.82 205.9 -6.05 200.32" style="fill:#ffb47a;"/></pattern></defs><g id="Layer_1-2"><rect width="817" height="817" style="fill:url(#New_Pattern_10);"/></g></svg>