<?xml version="1.0" encoding="UTF-8"?><svg id="Layer_2" xmlns="http://www.w3.org/2000/svg" xmlns:xlink="http://www.w3.org/1999/xlink" viewBox="0 0 817 817"><defs><pattern id="New_Pattern_9" x="0" y="0" width="400" height="400" patternTransform="translate(-1108 979)" patternUnits="userSpaceOnUse" viewBox="0 0 400 400"><rect width="400" height="400" style="fill:none;"/><rect x="3" y="6" width="400" height="400" style="fill:#efffff;"/><polygon points="70.26 329.47 66.2 325.88 87.68 301.52 91.75 305.11 70.26 329.47" style="fill:#ff82d9;"/><polygon points="246.71 345.32 242.42 348.52 223.29 322.81 227.59 319.61 246.71 345.32" style="fill:#89a8c9;"/><polygon points="150.02 160.73 147.94 163.73 129.98 151.27 132.06 148.27 150.02 160.73" style="fill:#5bd9ca;"/><polygon points="312.37 259.25 309 255.27 332.82 235.07 336.19 239.04 312.37 259.25" style="fill:#5bd9ca;"/><polygon points="46.79 225 44 220.75 69.44 204.07 72.23 208.31 46.79 225" style="fill:#838585;"/><polygon points="187 114.72 189.12 111 211.41 123.69 209.29 127.41 187 114.72" style="fill:#ff82d9;"/><polygon points="341.61 42.83 344.42 40.49 358.39 57.31 355.58 59.64 341.61 42.83" style="fill:#89a8c9;"/><polygon points="226.46 46.44 229.7 43 249.54 61.7 246.3 65.13 226.46 46.44" style="fill:#838585;"/><polygon points="102.74 74.55 106.77 77.47 89.26 101.58 85.23 98.66 102.74 74.55" style="fill:#89a8c9;"/><polygon points="184.54 272.53 178.21 263.32 172.1 266.6 165.02 256 158.87 259.47 149.94 246.78 154.96 243.24 160.69 251.38 166.96 247.84 174.11 258.54 180.15 255.3 189.6 269.05 184.54 272.53" style="fill:#ff82d9;"/><polygon points="59.66 39.94 57.17 31.94 51.99 32.95 49.23 23.64 43.98 24.78 40.31 13.39 45.07 11.86 47.35 18.93 52.71 17.77 55.5 27.18 60.62 26.18 64.43 38.45 59.66 39.94" style="fill:#a3d7b3;"/><polygon points="342.87 348.17 340.72 343.66 350.36 339.07 348.25 333 359 328.07 356.71 321.92 369.36 315.74 371.56 320.23 362.98 324.42 365.3 330.67 354.47 335.65 356.55 341.66 342.87 348.17" style="fill:#b99eed;"/><polygon points="378.43 163.93 375.9 155.92 370.01 157.15 367.02 146.8 361.38 147.85 357.35 134.54 362.13 133.1 364.87 142.11 370.57 141.05 373.53 151.31 379.31 150.1 383.2 162.43 378.43 163.93" style="fill:#acdbbb;"/><path d="M121.96,360.52c.47,2.85,3.06,5.53,5.9,6.08l4.73.93c2.02.39,4.08,2.51,4.41,4.54l.77,4.74c.46,2.85,3.06,5.52,5.9,6.08l4.73.92c2.02.39,4.07,2.51,4.4,4.54l.77,4.73c.46,2.85,3.06,5.52,5.9,6.08l7.85,1.54.08-.07.57-3.42-6.66-1.31c-2.02-.39-4.07-2.51-4.4-4.53l-.77-4.74c-.46-2.85-3.06-5.52-5.9-6.08l-4.72-.92c-2.02-.4-4.08-2.52-4.41-4.54l-.77-4.74c-.46-2.85-3.06-5.52-5.9-6.08l-4.73-.92c-2.02-.39-4.08-2.51-4.4-4.54l-1.08-6.61-3.51.61,1.26,7.72Z" style="fill:#f5de98;"/><path d="M278.6,156.74c-2.88.24-5.75,2.61-6.53,5.41l-1.29,4.64c-.55,1.98-2.83,3.87-4.87,4.04l-4.78.4c-2.88.24-5.75,2.61-6.53,5.41l-1.29,4.64c-.55,1.98-2.83,3.86-4.87,4.03l-4.78.39c-2.88.24-5.75,2.61-6.53,5.41l-2.15,7.7.07.08,3.36.84,1.83-6.54c.55-1.98,2.83-3.86,4.87-4.03l4.78-.39c2.88-.24,5.75-2.61,6.52-5.41l1.29-4.64c.55-1.98,2.83-3.87,4.87-4.04l4.79-.4c2.88-.24,5.75-2.61,6.53-5.4l1.29-4.64c.55-1.98,2.83-3.86,4.87-4.03l6.68-.55-.33-3.55-7.79.64Z" style="fill:#f5de98;"/><rect x="-397" y="6" width="400" height="400" style="fill:#efffff;"/><rect x="3" y="-394" width="400" height="400" style="fill:#efffff;"/><path d="M121.96-39.48c.47,2.85,3.06,5.53,5.9,6.08l4.73.93c2.02.39,4.08,2.51,4.41,4.54l.77,4.74c.46,2.85,3.06,5.52,5.9,6.08l4.73.92c2.02.39,4.07,2.51,4.4,4.54l.77,4.73c.46,2.85,3.06,5.52,5.9,6.08l7.85,1.54.08-.07.57-3.42-6.66-1.31c-2.02-.39-4.07-2.51-4.4-4.53l-.77-4.74c-.46-2.85-3.06-5.52-5.9-6.08l-4.72-.92c-2.02-.4-4.08-2.52-4.41-4.54l-.77-4.74c-.46-2.85-3.06-5.52-5.9-6.08l-4.73-.92c-2.02-.39-4.08-2.51-4.4-4.54l-1.08-6.61-3.51.61,1.26,7.72Z" style="fill:#f5de98;"/><rect x="-397" y="-394" width="400" height="400" style="fill:#efffff;"/></pattern></defs><g id="Layer_1-2"><rect width="817" height="817" style="fill:url(#New_Pattern_9);"/></g></svg>