<?xml version="1.0" encoding="UTF-8"?><svg id="Layer_2" xmlns="http://www.w3.org/2000/svg" xmlns:xlink="http://www.w3.org/1999/xlink" viewBox="0 0 817 817"><defs><pattern id="New_Pattern_5" x="0" y="0" width="300" height="300" patternTransform="translate(-3916 2066)" patternUnits="userSpaceOnUse" viewBox="0 0 300 300"><rect width="300" height="300" style="fill:none;"/><rect width="300" height="300" style="fill:#00d7b0;"/><path d="M183.26,152.62c-.87-6.66-4.29-12.58-9.62-16.67-5.33-4.09-11.93-5.86-18.58-4.98l-1.79-13.63c10.3-1.36,20.51,1.38,28.75,7.71,8.24,6.33,13.52,15.48,14.88,25.78l-13.63,1.79Z" style="fill:#6e91d4;"/><path d="M68.22,165.2c2.87,5.9,7.86,10.32,14.05,12.46,6.2,2.14,12.85,1.74,18.75-1.12l5.87,12.07c-9.12,4.43-19.42,5.05-29,1.74-9.58-3.31-17.3-10.16-21.74-19.28l12.07-5.87Z" style="fill:#6e91d4;"/><path d="M253.11,24.93c-6.81.82-12.88,4.24-17.12,9.63-4.23,5.39-6.11,12.11-5.3,18.91l-13.93,1.68c-1.27-10.53,1.64-20.91,8.19-29.25,6.55-8.34,15.95-13.63,26.48-14.89l1.68,13.93Z" style="fill:#6e91d4;"/><path d="M293.29,229.99c-6.42-2.41-13.39-2.17-19.62.66-6.24,2.83-11,7.93-13.41,14.34l-13.14-4.93c3.72-9.92,11.09-17.8,20.75-22.19,9.65-4.38,20.43-4.75,30.36-1.02l-4.93,13.14Z" style="fill:#6e91d4;"/><path d="M75.91,53.46c.72-6.82-1.25-13.5-5.56-18.83-4.31-5.33-10.43-8.66-17.25-9.39l1.48-13.95c10.54,1.12,20.02,6.28,26.68,14.52,6.66,8.25,9.72,18.59,8.6,29.13l-13.95-1.48Z" style="fill:#6e91d4;"/><path d="M274.94,126.71c6.6,1.86,13.52,1.05,19.5-2.3,5.98-3.34,10.3-8.82,12.17-15.42l13.5,3.82c-2.88,10.2-9.57,18.67-18.82,23.84-9.25,5.17-19.96,6.44-30.17,3.55l3.82-13.5Z" style="fill:#6e91d4;"/><path d="M135.77,252.43c1.04,6.37,4.49,11.94,9.72,15.71,5.23,3.77,11.62,5.27,17.98,4.24l2.12,13.03c-9.85,1.6-19.72-.73-27.82-6.55-8.09-5.83-13.43-14.46-15.04-24.3l13.03-2.12Z" style="fill:#6e91d4;"/><polygon points="160.62 194.26 170.05 194.56 173.81 186.46 177.52 191.15 173.73 199.33 164.31 199.04 162.04 208.38 152.38 209.19 148.78 204.41 158.34 203.62 160.62 194.26" style="fill:#fbf77d;"/><polygon points="147.49 43.31 149.39 34.06 142.06 28.98 147.32 26.12 154.73 31.26 152.83 40.49 161.64 44.33 160.78 53.99 155.46 56.71 156.31 47.16 147.49 43.31" style="fill:#fbf77d;"/><polygon points="92.47 116.77 83.25 114.75 78.07 122.01 75.28 116.71 80.52 109.38 89.72 111.4 93.68 102.63 103.32 103.62 105.97 108.98 96.43 108 92.47 116.77" style="fill:#fbf77d;"/><polygon points="62.68 257.11 53.49 259.3 51.99 268.09 47.18 264.53 48.7 255.65 57.86 253.46 57.61 243.85 66.73 240.55 71.45 244.22 62.43 247.48 62.68 257.11" style="fill:#fbf77d;"/><polygon points="236.48 103.03 243.32 96.53 240.21 88.17 246.16 88.83 249.3 97.28 242.47 103.77 247.51 111.96 241.28 119.39 235.36 118.58 241.52 111.23 236.48 103.03" style="fill:#fbf77d;"/><polygon points="299.76 187.39 293.55 180.28 285.06 183.04 285.97 177.13 294.54 174.34 300.74 181.43 309.13 176.74 316.3 183.27 315.25 189.15 308.16 182.69 299.76 187.39" style="fill:#fbf77d;"/><polygon points="217.5 272.34 217.04 262.91 208.67 259.82 213.05 255.74 221.5 258.87 221.97 268.27 231.46 269.79 233.04 279.36 228.57 283.32 227.01 273.86 217.5 272.34" style="fill:#fbf77d;"/><polygon points="297.71 40.07 306.79 37.51 307.94 28.66 312.89 32.01 311.74 40.96 302.67 43.51 303.31 53.1 294.34 56.78 289.48 53.31 298.35 49.67 297.71 40.07" style="fill:#fbf77d;"/><path d="M-25.06,126.71c6.6,1.86,13.52,1.05,19.5-2.3,5.98-3.34,10.3-8.82,12.17-15.42l13.5,3.82c-2.88,10.2-9.57,18.67-18.82,23.84-9.25,5.17-19.96,6.44-30.17,3.55l3.82-13.5Z" style="fill:#6e91d4;"/><polygon points="-.24 187.39 -6.45 180.28 -14.94 183.04 -14.03 177.13 -5.46 174.34 .74 181.43 9.13 176.74 16.3 183.27 15.25 189.15 8.16 182.69 -.24 187.39" style="fill:#fbf77d;"/><polygon points="-2.29 40.07 6.79 37.51 7.94 28.66 12.89 32.01 11.74 40.96 2.67 43.51 3.31 53.1 -5.66 56.78 -10.52 53.31 -1.65 49.67 -2.29 40.07" style="fill:#fbf77d;"/></pattern></defs><g id="Layer_1-2"><rect width="817" height="817" style="fill:url(#New_Pattern_5);"/></g></svg>